<svg xmlns="http://www.w3.org/2000/svg" width="24" height="24" viewBox="0 0 24 24">
    <g fill="none" fill-rule="evenodd">
        <g>
            <g>
                <g>
                    <g>
                        <path d="M0 0L24 0 24 24 0 24z" transform="translate(-134 -380) translate(102 364) translate(16) translate(16 16)"/>
                        <path fill="#FFF" fill-opacity=".87" fill-rule="nonzero" d="M19 3c1.1 0 2 .9 2 2v14c0 1.1-.9 2-2 2H5c-1.1 0-2-.9-2-2V5c0-1.1.9-2 2-2zm-2.41 4.5L10 14.32l-2.58-2.66L6 13.12l4 4.13 8-8.28-1.41-1.47z" transform="translate(-134 -380) translate(102 364) translate(16) translate(16 16)"/>
                    </g>
                </g>
            </g>
        </g>
    </g>
</svg>
