<svg xmlns="http://www.w3.org/2000/svg" width="24" height="24" viewBox="0 0 24 24">
    <g fill="none" fill-rule="evenodd">
        <g>
            <g>
                <g>
                    <g>
                        <path d="M0 0H24V24H0z" transform="translate(-24 -544) translate(0 136) translate(0 392) translate(24 16)"/>
                        <path fill="#666" fill-rule="nonzero" d="M12 2c5.523 0 10 4.477 10 10s-4.477 10-10 10S2 17.523 2 12 6.477 2 12 2zm0 2c-4.418 0-8 3.582-8 8s3.582 8 8 8 8-3.582 8-8-3.582-8-8-8zm4.07 4.003l.101.017c.37.087.611.433.576.8l-.017.101-.312 1.329H17.5c.276 0 .5.224.5.5v.5c0 .276-.224.5-.5.5h-1.433l-1.17 4.988c-.168.716-1.135.773-1.413.14l-.04-.111-1.391-5.017h-.027l-1.24 4.997c-.178.714-1.146.758-1.415.123l-.038-.113-1.319-5.007H6.5c-.276 0-.5-.224-.5-.5v-.5c0-.276.224-.5.5-.5h1.119l-.344-1.309c-.106-.4.133-.81.534-.916.367-.097.743.096.884.438l.032.096.445 1.691h1.684l.418-1.68c.176-.71 1.136-.76 1.411-.131l.04.11.47 1.701h1.684l.393-1.671c.086-.37.433-.61.8-.576zm-5.589 3.747h-.916l.472 1.791.444-1.791zm4.044 0h-.916l.497 1.79.419-1.79z" transform="translate(-24 -544) translate(0 136) translate(0 392) translate(24 16)"/>
                    </g>
                </g>
            </g>
        </g>
    </g>
</svg>
