<svg xmlns="http://www.w3.org/2000/svg" width="136" height="36" viewBox="0 0 136 36">
    <g fill="none" fill-rule="evenodd">
        <g>
            <g>
                <g>
                    <g>
                        <g>
                            <g>
                                <g>
                                    <g>
                                        <path d="M0 0H136V36H0z" transform="translate(-855 -353) translate(625 255) translate(24 24) translate(24 74) translate(182)"/>
                                        <g fill="#FFF" fill-opacity=".87" font-family="AppleSDGothicNeo-Medium, Apple SD Gothic Neo" font-size="13" font-weight="400">
                                            <text transform="translate(-855 -353) translate(625 255) translate(24 24) translate(24 74) translate(182) translate(40 6)">
                                                <tspan x="0" y="12">수동입찰 모드</tspan>
                                            </text>
                                        </g>
                                        <g>
                                            <g transform="translate(-855 -353) translate(625 255) translate(24 24) translate(24 74) translate(182) translate(0 6)">
                                                <path d="M0 0L24 0 24 24 0 24z"/>
                                                <path fill="#FFF" fill-opacity=".87" fill-rule="nonzero" d="M12 2C6.48 2 2 6.48 2 12s4.48 10 10 10 10-4.48 10-10S17.52 2 12 2zm0 18c-4.42 0-8-3.58-8-8s3.58-8 8-8 8 3.58 8 8-3.58 8-8 8z"/>
                                                <circle cx="12" cy="12" r="5" fill="#FFF" fill-opacity=".87" fill-rule="nonzero"/>
                                            </g>
                                        </g>
                                    </g>
                                </g>
                            </g>
                        </g>
                    </g>
                </g>
            </g>
        </g>
    </g>
</svg>
