<svg xmlns="http://www.w3.org/2000/svg" width="24" height="24" viewBox="0 0 24 24">
    <g fill="none" fill-rule="evenodd">
        <g>
            <g>
                <g>
                    <g>
                        <g>
                            <path d="M0 0L24 0 24 24 0 24z" transform="translate(-1651 -20) translate(1647 16) translate(4 4)"/>
                            <path fill="#FFF" fill-opacity=".87" fill-rule="nonzero" d="M14 8c0 1.1-.9 2-2 2s-2-.9-2-2 .9-2 2-2 2 .9 2 2zm4 10H6c.23-.72 3.31-2 6-2 2.7 0 5.8 1.29 6 2zM12 4C9.79 4 8 5.79 8 8s1.79 4 4 4 4-1.79 4-4-1.79-4-4-4zm0 10c-2.67 0-8 1.34-8 4v1c0 .552.448 1 1 1h14c.552 0 1-.448 1-1v-1c0-2.66-5.33-4-8-4z" transform="translate(-1651 -20) translate(1647 16) translate(4 4)"/>
                        </g>
                    </g>
                </g>
            </g>
        </g>
    </g>
</svg>
