<svg xmlns="http://www.w3.org/2000/svg" width="24" height="24" viewBox="0 0 24 24">
    <g fill="none" fill-rule="evenodd">
        <g>
            <g>
                <g>
                    <g>
                        <g>
                            <g>
                                <g>
                                    <g>
                                        <g>
                                            <g>
                                                <path d="M0 0L24 0 24 24 0 24z" transform="translate(-991 -359) translate(625 255) translate(24 24) translate(24 74) translate(318) translate(0 6)"/>
                                                <path fill="#FFF" fill-opacity=".6" fill-rule="nonzero" d="M12 2C6.48 2 2 6.48 2 12s4.48 10 10 10 10-4.48 10-10S17.52 2 12 2zm0 18c-4.42 0-8-3.58-8-8s3.58-8 8-8 8 3.58 8 8-3.58 8-8 8z" transform="translate(-991 -359) translate(625 255) translate(24 24) translate(24 74) translate(318) translate(0 6)"/>
                                            </g>
                                        </g>
                                    </g>
                                </g>
                            </g>
                        </g>
                    </g>
                </g>
            </g>
        </g>
    </g>
</svg>
