<svg xmlns="http://www.w3.org/2000/svg" width="24" height="24" viewBox="0 0 24 24">
    <g fill="none" fill-rule="evenodd">
        <g>
            <g>
                <g>
                    <g>
                        <g>
                            <path d="M0 0H24V24H0z" transform="translate(-24 -712) translate(0 136) translate(0 560) translate(24 16)"/>
                            <path fill="#666" fill-rule="nonzero" d="M14.935 2.76c1.464.448 2.786 1.224 3.879 2.242l.114 3.32 2.82 1.76c.165.72.252 1.47.252 2.24 0 .77-.087 1.519-.252 2.238l-2.82 1.762-.114 3.319c-1.093 1.018-2.413 1.793-3.877 2.242L12 20.322l-2.937 1.561C7.6 21.434 6.28 20.66 5.186 19.641l-.114-3.32-2.82-1.76C2.087 13.84 2 13.09 2 12.32c0-.77.087-1.519.252-2.239l2.82-1.76.114-3.32C6.28 3.984 7.601 3.208 9.066 2.76L12 4.322l2.935-1.563zm.155 2.181L12 6.587 8.909 4.941l-.27.119c-.437.202-.855.444-1.248.722l-.237.174-.12 3.498-2.97 1.853-.032.288c-.01.12-.018.24-.024.362L4 12.322c0 .244.01.486.032.727l.032.286 2.97 1.854.12 3.497.237.175c.393.278.81.52 1.246.722l.27.117L12 18.056l3.092 1.644.27-.117c.437-.202.854-.444 1.247-.722l.236-.175.121-3.497 2.969-1.854.033-.286c.01-.12.018-.241.024-.362l.008-.365c0-.245-.01-.487-.033-.728l-.032-.287-2.969-1.852-.121-3.499-.236-.174c-.393-.278-.81-.52-1.247-.722l-.272-.119zM12 8c2.21 0 4 1.79 4 4s-1.79 4-4 4-4-1.79-4-4 1.79-4 4-4zm0 2c-1.105 0-2 .895-2 2s.895 2 2 2 2-.895 2-2-.895-2-2-2z" transform="translate(-24 -712) translate(0 136) translate(0 560) translate(24 16)"/>
                        </g>
                    </g>
                </g>
            </g>
        </g>
    </g>
</svg>
