<svg xmlns="http://www.w3.org/2000/svg" width="24" height="24" viewBox="0 0 24 24">
    <g fill="none" fill-opacity=".87" fill-rule="evenodd">
        <g fill="#6B6B6B" fill-rule="nonzero">
            <g>
                <g>
                    <g>
                        <g>
                            <path d="M14.749 11.004l.117.017c.432.094.713.465.672.86l-.02.108-.364 1.426h1.263c.322 0 .583.24.583.537v.537c0 .296-.261.536-.583.536h-1.672L13.38 20.38c-.196.768-1.324.83-1.649.151l-.046-.12-1.623-5.385h-.032L8.583 20.39c-.206.766-1.336.814-1.65.131l-.045-.12-1.538-5.375H3.583c-.322 0-.583-.24-.583-.536v-.537c0-.296.261-.537.583-.537H4.89l-.402-1.405c-.123-.43.156-.87.624-.983.428-.104.866.103 1.03.47l.038.103.52 1.815h1.964l.488-1.804c.205-.76 1.325-.815 1.646-.14l.046.12.549 1.824h1.965l.458-1.794c.1-.396.505-.655.934-.617zm-6.41 4.44h-.986l.508 2.223.478-2.223zm4.308 0h-.986l.535 2.223.451-2.223zm7.988-12.217c.394.324.477.886.211 1.306l-.073.102-3.288 4c-.35.426-.97.483-1.39.151L16 8.702l-2.645-2.679-2.644 2.68c-.358.362-.925.394-1.32.091l-.094-.082c-.363-.358-.395-.925-.092-1.32l.082-.094 3.357-3.4c.361-.367.934-.395 1.328-.085l.095.084 2.576 2.61 2.583-3.142c.351-.427.981-.488 1.408-.138z" transform="translate(-165 -830) translate(141 814) translate(24 16)"/>
                        </g>
                    </g>
                </g>
            </g>
        </g>
    </g>
</svg>
