<svg xmlns="http://www.w3.org/2000/svg" width="24" height="24" viewBox="0 0 24 24">
    <g fill="none" fill-rule="evenodd">
        <g>
            <g>
                <g>
                    <g>
                        <g>
                            <path d="M0 0H24V24H0z" transform="translate(-994 -424) translate(672 272) translate(306 126) translate(16 26)"/>
                            <path d="M2 2H22V22H2z" transform="translate(-994 -424) translate(672 272) translate(306 126) translate(16 26)"/>
                            <path fill="#EAEAEA" fill-rule="nonzero" d="M10.996 21h-1l1-7h-3.5c-.58 0-.57-.32-.38-.66.19-.34.05-.08.07-.12 1.29-2.28 3.23-5.68 5.81-10.22h1l-1 7h3.5c.49 0 .56.33.47.51l-.07.15c-3.94 6.89-5.9 10.34-5.9 10.34z" transform="translate(-994 -424) translate(672 272) translate(306 126) translate(16 26)"/>
                        </g>
                    </g>
                </g>
            </g>
        </g>
    </g>
</svg>
