<svg xmlns="http://www.w3.org/2000/svg" width="24" height="24" viewBox="0 0 24 24">
    <g fill="none" fill-rule="evenodd">
        <g>
            <g>
                <g>
                    <g>
                        <path d="M0 0L24 0 24 24 0 24z" transform="translate(-24 -532) translate(0 516) translate(24 16)"/>
                        <g fill="#666" fill-rule="nonzero">
                            <path d="M19.364 0c.857 0 1.565.908 1.631 2.073L21 2.25v13.5c0 1.179-.668 2.153-1.509 2.243l-.127.007H4.636c-.865 0-1.566-.918-1.631-2.075L3 15.75v-.926h2.199l.001 1.058h14V2.118h-14l-.001 2.117H3V2.25C3 1.06 3.66.096 4.508.007L4.636 0h14.728zM15 5c.513 0 .936.386.993.883L16 6v5c0 .552-.448 1-1 1-.513 0-.936-.386-.993-.883L14 11V6c0-.552.448-1 1-1zM4.703 5c.182 0 .338.11.391.266l.016.07.142.864c.18.072.347.167.507.267l.158.101-.017-.024.84-.312c.164-.062.346-.012.458.11l.05.066.698 1.168c.086.144.067.33-.04.455l-.06.057-.707.544-.016-.024.034.256c.005.043.007.085.007.128l-.007.128-.034.256.016-.024.707.544c.136.103.186.282.134.437l-.034.075-.699 1.168c-.085.15-.256.225-.424.198l-.083-.022-.84-.312.015-.024-.156.11c-.106.072-.216.138-.331.195l-.176.079-.142.864c-.022.168-.158.3-.331.33L4.703 13H3.306c-.182 0-.339-.11-.392-.272l-.016-.072-.141-.856c-.181-.072-.348-.167-.508-.273l-.158-.111.009.032-.84.312c-.164.062-.346.012-.458-.11l-.05-.066-.698-1.168c-.086-.144-.067-.33.04-.455l.06-.057.707-.544.016.024-.034-.256C.838 9.085.836 9.043.836 9l.007-.128.034-.248-.016.024-.707-.544c-.136-.103-.186-.282-.134-.437l.034-.075.699-1.168c.085-.15.256-.225.424-.198l.083.022.848.312-.017.024c.156-.114.317-.219.49-.305l.176-.079.141-.864c.022-.168.158-.3.331-.33L3.306 5h1.397zM11 8c.513 0 .936.386.993.883L12 9v2c0 .552-.448 1-1 1-.513 0-.936-.386-.993-.883L10 11V9c0-.552.448-1 1-1zm-6.996-.6c-.915 0-1.663.72-1.663 1.6 0 .88.748 1.6 1.663 1.6S5.667 9.88 5.667 9c0-.88-.748-1.6-1.663-1.6z" transform="translate(-24 -532) translate(0 516) translate(24 16) translate(2 3) matrix(-1 0 0 1 21 0)"/>
                        </g>
                    </g>
                </g>
            </g>
        </g>
    </g>
</svg>
