<?xml version="1.0" encoding="UTF-8"?>
<svg width="20px" height="20px" viewBox="0 0 20 20" version="1.1" xmlns="http://www.w3.org/2000/svg" xmlns:xlink="http://www.w3.org/1999/xlink">
    <title>설비이력</title>
    <g id="통합-대시보드_메뉴" stroke="none" stroke-width="1" fill="none" fill-rule="evenodd">
        <g id="공지사항-활성화-" transform="translate(-2.000000, -2.000000)">
            <g id="공지사항">
                <polygon id="Path" points="0 0 24 0 24 24 0 24"></polygon>
                <g id="notifications_active-24px">
                    <polygon id="Path" points="0 0 24 0 24 24 0 24"></polygon>
                    <g id="Group" transform="translate(2.000000, 2.500000)" fill="#FFFFFF" fill-opacity="0.87" fill-rule="nonzero">
                        <path d="M10,19.5 C11.1,19.5 12,18.6 12,17.5 L8,17.5 C8,18.6 8.9,19.5 10,19.5 Z M16,13.5 L16,8.5 C16,5.43 14.37,2.86 11.5,2.18 L11.5,1.5 C11.5,0.67 10.83,0 10,0 C9.17,0 8.5,0.67 8.5,1.5 L8.5,2.18 C5.64,2.86 4,5.42 4,8.5 L4,13.5 L2.29289322,15.2071068 C2.10535684,15.3946432 2,15.6489971 2,15.9142136 L2,16 C2,16.2761424 2.22385763,16.5 2.5,16.5 L17.5,16.5 C17.7761424,16.5 18,16.2761424 18,16 L18,15.9142136 C18,15.6489971 17.8946432,15.3946432 17.7071068,15.2071068 L16,13.5 Z M14,14.5 L6,14.5 L6,8.5 C6,6.02 7.51,4 10,4 C12.49,4 14,6.02 14,8.5 L14,14.5 Z" id="Shape"></path>
                        <path d="M3.4452998,0.667949706 C3.90482849,0.361597247 4.52569784,0.485771115 4.83205029,0.945299804 C5.13840275,1.40482849 5.01422888,2.02569784 4.5547002,2.33205029 C2.81914754,3.4890854 2,4.85433129 2,6.5 C2,7.05228475 1.55228475,7.5 1,7.5 C0.44771525,7.5 3.50830476e-14,7.05228475 3.50830476e-14,6.5 C3.50830476e-14,4.14566871 1.18085246,2.17758127 3.4452998,0.667949706 Z" id="Path-2"></path>
                        <path d="M16.5548065,0.667949706 C16.0952778,0.361597247 15.4744084,0.485771115 15.168056,0.945299804 C14.8617035,1.40482849 14.9858774,2.02569784 15.4454061,2.33205029 C17.1809587,3.4890854 18.0001063,4.85433129 18.0001063,6.5 C18.0001063,7.05228475 18.4478215,7.5 19.0001063,7.5 C19.552391,7.5 20.0001063,7.05228475 20.0001063,6.5 C20.0001063,4.14566871 18.8192538,2.17758127 16.5548065,0.667949706 Z" id="Path"></path>
                    </g>
                </g>
            </g>
        </g>
    </g>
</svg>