<svg xmlns="http://www.w3.org/2000/svg" width="24" height="24" viewBox="0 0 24 24">
    <g fill="none" fill-rule="evenodd">
        <g>
            <g>
                <g>
                    <path d="M0 0H24V24H0z" transform="translate(-24 -465) translate(24 465)"/>
                    <g fill="#FFF" fill-opacity=".87" fill-rule="nonzero">
                        <path d="M9 0v2H2v12.22h12V7h2v7c0 1.05-.82 1.918-1.851 1.994L14 16H2C.95 16 .082 15.18.006 14.149L0 14V2C0 .95.82.082 1.851.006L2 0h7zm2 10c.552 0 1 .448 1 1s-.448 1-1 1H5c-.552 0-1-.448-1-1s.448-1 1-1h6zM8 6c.552 0 1 .448 1 1s-.448 1-1 1H5c-.552 0-1-.448-1-1s.448-1 1-1h3zM16.475.705c.39.39.39 1.021.001 1.411L12.247 6.36c-.36.362-.927.39-1.32.086l-.095-.084-1.7-1.7c-.37-.37-.37-.972 0-1.343l.034-.033c.415-.375 1.05-.36 1.446.036l.918.918L15.065.705c.39-.39 1.02-.39 1.41 0z" transform="translate(-24 -465) translate(24 465) translate(4 4)"/>
                    </g>
                </g>
            </g>
        </g>
    </g>
</svg>
