<?xml version="1.0" encoding="UTF-8"?>
<svg width="20px" height="20px" viewBox="0 0 20 20" version="1.1" xmlns="http://www.w3.org/2000/svg" xmlns:xlink="http://www.w3.org/1999/xlink">
    <title>설비이력</title>
    <g id="통합-대시보드_메뉴" stroke="none" stroke-width="1" fill="none" fill-rule="evenodd">
        <g id="icon/dashboard/active" transform="translate(-2.000000, -2.000000)">
            <g>
                <rect id="Rectangle" x="0" y="0" width="24" height="24"></rect>
                <path d="M9.88678768,2.86273858 C11.0096939,1.7584332 12.7937032,1.71426098 13.9694976,2.73022193 L14.1132123,2.86273858 L21.1132123,9.74678421 C21.6334819,10.2584356 21.9450719,10.9393522 21.9933906,11.6596298 L22,11.8569474 L22,19.0270982 C22,20.6103477 20.75108,21.9045311 19.1762728,21.9949533 L19,22 L5,22 C3.40231912,22 2.09633912,20.7623612 2.00509269,19.2017788 L2,19.0270982 L2,11.8569474 C2,11.1305869 2.2682342,10.4317778 2.75011087,9.89042455 L2.88678768,9.74678421 L9.88678768,2.86273858 Z M12.7044041,4.28693158 C12.3444983,3.93378502 11.7808501,3.9066199 11.3895993,4.20543622 L11.2955959,4.28693158 L4.29559589,11.1554668 C4.13793845,11.3101633 4.03776849,11.5113843 4.00875787,11.7266701 L4,11.8572697 L4,19.0112655 C4,19.518324 4.38604019,19.9362337 4.88337887,19.9933481 L5,20 L7.999,19.9997018 L7.9982661,14.4230555 C8.00334962,13.8467132 8.04222554,13.5674525 8.18576454,13.2101973 C8.45886636,12.5304723 9.04402328,12.1438589 9.82809605,12.0953315 L9.99911504,12.0901239 L13.9955846,12.0901239 C14.8654904,12.0901239 15.516326,12.4819205 15.8089351,13.2101973 C15.9524741,13.5674525 15.99135,13.8467132 15.9964335,14.4230555 L15.9949814,14.9529218 L15.994,19.9997018 L19,20 C19.5128358,20 19.9355072,19.6183087 19.9932723,19.1265728 L20,19.0112655 L20,11.8572697 C20,11.6376564 19.9261063,11.4256159 19.7919907,11.253608 L19.7044041,11.1554668 L12.7044041,4.28693158 Z M13.9805533,14 L10.0170109,14 L10.0034933,14.2133156 C10.0023954,14.2450317 10.0014963,14.2793313 10.0007928,14.3164468 L10,20 L13.9975642,20 L14,14.4364739 L13.9957716,14.2133156 C13.9935757,14.1498835 13.990584,14.0967851 13.9867684,14.0521603 L13.9805533,14 Z" id="Shape" fill-opacity="0.87" fill="#FFFFFF" fill-rule="nonzero"></path>
            </g>
        </g>
    </g>
</svg>