<?xml version="1.0" encoding="UTF-8"?>
<svg width="20px" height="20px" viewBox="0 0 20 20" version="1.1" xmlns="http://www.w3.org/2000/svg" xmlns:xlink="http://www.w3.org/1999/xlink">
    <title>설비이력</title>
    <g id="통합-대시보드_메뉴" stroke="none" stroke-width="1" fill="none" fill-rule="evenodd" fill-opacity="0.87">
        <g id="로그아웃-활성화" transform="translate(-2.000000, -2.000000)" fill="#FFFFFF">
            <g id="Group">
                <path d="M11,2 C12.1045695,2 13,2.8954305 13,4 L13,8 C13,8.55228475 12.5522847,9 12,9 C11.4477153,9 11,8.55228475 11,8 L11,4 L4,4 L4,20 L11,20 L11,16 C11,15.4477153 11.4477153,15 12,15 C12.5522847,15 13,15.4477153 13,16 L13,20 C13,21.1045695 12.1045695,22 11,22 L4,22 C2.8954305,22 2,21.1045695 2,20 L2,4 C2,2.8954305 2.8954305,2 4,2 L11,2 Z M16.6128994,6.20970461 L16.7071068,6.29289322 L21.7071068,11.2928932 L21.8036654,11.4046934 L21.8753288,11.5159379 L21.9063462,11.5769009 L21.9063462,11.5769009 L21.9401141,11.6583496 L21.9401141,11.6583496 L21.9641549,11.734007 L21.9641549,11.734007 L21.9930928,11.8819045 L21.9930928,11.8819045 L22,12 L22,12 L21.996384,12.0852242 L21.9797599,12.2007258 L21.9797599,12.2007258 L21.9502619,12.3121425 L21.9502619,12.3121425 L21.9063266,12.4232215 L21.8540045,12.5207088 L21.8540045,12.5207088 L21.7803112,12.625449 L21.7803112,12.625449 L21.7071068,12.7071068 L16.7071068,17.7071068 C16.3165825,18.0976311 15.6834175,18.0976311 15.2928932,17.7071068 C14.9324093,17.3466228 14.9046797,16.7793918 15.2097046,16.3871006 L15.2928932,16.2928932 L18.585,13 L9,13 C8.44771525,13 8,12.5522847 8,12 C8,11.4871642 8.38604019,11.0644928 8.88337887,11.0067277 L9,11 L18.585,11 L15.2928932,7.70710678 C14.9324093,7.34662282 14.9046797,6.77939176 15.2097046,6.38710056 L15.2928932,6.29289322 C15.6533772,5.93240926 16.2206082,5.90467972 16.6128994,6.20970461 Z" id="Shape" fill-rule="nonzero"></path>
            </g>
        </g>
    </g>
</svg>