<?xml version="1.0" encoding="UTF-8"?>
<svg width="20px" height="20px" viewBox="0 0 20 20" version="1.1" xmlns="http://www.w3.org/2000/svg" xmlns:xlink="http://www.w3.org/1999/xlink">
    <title>설비이력 copy 4</title>
    <g id="통합-대시보드_메뉴" stroke="none" stroke-width="1" fill="none" fill-rule="evenodd">
        <g id="관리-활성화" transform="translate(-2.000000, -2.000000)">
            <g>
                <rect id="Rectangle" x="0" y="0" width="24" height="24"></rect>
                <path d="M14.9348509,2.75927692 C16.3993827,3.20821997 17.7208369,3.98437491 18.8139463,5.00247454 L18.9282032,8.32169098 L21.7480256,10.081135 C21.9129051,10.801438 22,11.5513935 22,12.321691 C22,13.0913533 21.9130487,13.8407071 21.7484333,14.560465 L18.9282032,16.321691 L18.8139463,19.6409074 C17.721333,20.6585451 16.4005819,21.4344575 14.9368445,21.8834937 L12,20.321691 L9.06315553,21.8834937 C7.59941805,21.4344575 6.27866705,20.6585451 5.18605368,19.6409074 L5.07179677,16.321691 L2.25156671,14.560465 C2.08695134,13.8407071 2,13.0913533 2,12.321691 C2,11.5517507 2.08701414,10.8021337 2.25174504,10.0821373 L5.07179677,8.32169098 L5.18605368,5.00247454 C6.27916307,3.98437491 7.60061728,3.20821997 9.06514913,2.75927692 L12,4.32169098 L14.9348509,2.75927692 Z M15.09,4.941 L12,6.58744762 L8.909,4.941 L8.63832168,5.05964333 C8.20162931,5.26221325 7.78420575,5.50401651 7.39098483,5.78177268 L7.154,5.956 L7.03398735,9.45448483 L4.064,11.307 L4.0324761,11.594514 C4.02167932,11.7147355 4.0135603,11.8354816 4.00814046,11.9566964 L4,12.321691 C4,12.5657963 4.01087478,12.8082521 4.03245302,13.0486109 L4.064,13.335 L7.03399488,15.1891158 L7.154,18.686 L7.39057665,18.8613209 C7.78360001,19.1389742 8.20080617,19.3807093 8.63726801,19.5832498 L8.907,19.7 L12,18.0564694 L15.092,19.7 L15.362732,19.5832498 C15.7991938,19.3807093 16.2164,19.1389742 16.6094233,18.8613209 L16.845,18.686 L16.9660051,15.1891158 L19.935,13.335 L19.967547,13.0486109 C19.9783361,12.9284315 19.9864494,12.8077278 19.9918653,12.6865559 L20,12.321691 C20,12.0773866 19.9891075,11.8347346 19.9674942,11.5941835 L19.935,11.307 L16.9660223,9.45476607 L16.845,5.956 L16.6090152,5.78177268 C16.2157942,5.50401651 15.7983707,5.26221325 15.3616783,5.05964333 L15.09,4.941 Z M12,8 C14.209139,8 16,9.790861 16,12 C16,14.209139 14.209139,16 12,16 C9.790861,16 8,14.209139 8,12 C8,9.790861 9.790861,8 12,8 Z M12,10 C10.8954305,10 10,10.8954305 10,12 C10,13.1045695 10.8954305,14 12,14 C13.1045695,14 14,13.1045695 14,12 C14,10.8954305 13.1045695,10 12,10 Z" id="Combined-Shape" fill-opacity="0.87" fill="#FFFFFF" fill-rule="nonzero"></path>
            </g>
        </g>
    </g>
</svg>