<?xml version="1.0" encoding="UTF-8"?>
<svg width="19px" height="14px" viewBox="0 0 19 14" version="1.1" xmlns="http://www.w3.org/2000/svg" xmlns:xlink="http://www.w3.org/1999/xlink">
    <title>설비이력 copy</title>
    <g id="통합-대시보드_메뉴" stroke="none" stroke-width="1" fill="none" fill-rule="evenodd">
        <g id="설비이력-활성화" transform="translate(-3.000000, -5.000000)">
            <g id="설비이력">
                <g id="Group" transform="translate(3.000000, 5.000000)" fill="#FFFFFF" fill-opacity="0.87" fill-rule="nonzero">
                    <path d="M8,13 C8,13.5522847 7.55228475,14 7,14 L1,14 C0.44771525,14 6.76353751e-17,13.5522847 0,13 C-6.76353751e-17,12.4477153 0.44771525,12 1,12 L7,12 C7.55228475,12 8,12.4477153 8,13 Z M8,9 C8,9.55228475 7.55228475,10 7,10 L1,10 C0.44771525,10 6.76353751e-17,9.55228475 0,9 C-6.76353751e-17,8.44771525 0.44771525,8 1,8 L7,8 C7.55228475,8 8,8.44771525 8,9 Z M12,5 C12,5.55228475 11.5522847,6 11,6 L1,6 C0.44771525,6 6.76353751e-17,5.55228475 0,5 C-6.76353751e-17,4.44771525 0.44771525,4 1,4 L11,4 C11.5522847,4 12,4.44771525 12,5 Z M16.5605,0 C16.9963893,-8.00715666e-17 17.3497474,0.3533581 17.3497474,0.789247407 C17.3497474,0.868606285 17.3377785,0.947511321 17.3142444,1.02330037 L15.8195553,5.8367991 L17.5240219,5.8367991 C18.0763066,5.8367991 18.5240219,6.28451435 18.5240219,6.8367991 C18.5240219,6.96379538 18.4998318,7.08962938 18.4527448,7.20757373 L15.9922061,13.3707746 C15.8405049,13.7507584 15.4726297,14 15.0634832,14 L14.6355,14 C14.2218072,14 13.8864429,13.6646357 13.8864429,13.2509429 C13.8864429,13.1558349 13.9045553,13.061597 13.9398122,12.9732652 L15.9171168,8.0193677 L14.3574322,8.0193677 C13.8051475,8.0193677 13.3574322,7.57165245 13.3574322,7.0193677 C13.3574322,6.9188625 13.3725837,6.81893155 13.4023759,6.72294342 L15.2706287,0.703575723 C15.4004924,0.285164821 15.7875843,8.04778012e-17 16.225685,0 L16.5605,0 Z M11,0 C11.5522847,-1.01453063e-16 12,0.44771525 12,1 C12,1.55228475 11.5522847,2 11,2 L1,2 C0.44771525,2 6.76353751e-17,1.55228475 0,1 C-6.76353751e-17,0.44771525 0.44771525,1.01453063e-16 1,0 L11,0 Z" id="Shape"></path>
                </g>
                <rect id="Rectangle" x="0" y="0" width="24" height="24"></rect>
            </g>
        </g>
    </g>
</svg>