<?xml version="1.0" encoding="UTF-8"?>
<svg width="18px" height="20px" viewBox="0 0 18 20" version="1.1" xmlns="http://www.w3.org/2000/svg" xmlns:xlink="http://www.w3.org/1999/xlink">
    <title>설비이력 copy 5</title>
    <g id="통합-대시보드_메뉴" stroke="none" stroke-width="1" fill="none" fill-rule="evenodd">
        <g id="보고서-활성화" transform="translate(-3.000000, -2.000000)">
            <g id="보고서">
                <polygon id="Path" points="0 0 24 0 24 24 0 24"></polygon>
                <path d="M16,16 C16.5522847,16 17,16.4477153 17,17 C17,17.5522847 16.5522847,18 16,18 L8,18 C7.44771525,18 7,17.5522847 7,17 C7,16.4477153 7.44771525,16 8,16 L16,16 Z M16,12 C16.5522847,12 17,12.4477153 17,13 C17,13.5522847 16.5522847,14 16,14 L8,14 C7.44771525,14 7,13.5522847 7,13 C7,12.4477153 7.44771525,12 8,12 L16,12 Z M16,8 C16.5522847,8 17,8.44771525 17,9 C17,9.55228475 16.5522847,10 16,10 L8,10 C7.44771525,10 7,9.55228475 7,9 C7,8.44771525 7.44771525,8 8,8 L16,8 Z M19,4 L14.82,4 C14.4,2.84 13.3,2 12,2 C10.7,2 9.6,2.84 9.18,4 L5,4 C4.86,4 4.73,4.01 4.6,4.04 C4.21,4.12 3.86,4.32 3.59,4.59 C3.41,4.77 3.26,4.99 3.16,5.23 C3.06,5.46 3,5.72 3,6 L3,20 C3,20.27 3.06,20.54 3.16,20.78 C3.26,21.02 3.41,21.23 3.59,21.42 C3.86,21.69 4.21,21.89 4.6,21.97 C4.73,21.99 4.86,22 5,22 L19,22 C20.1,22 21,21.1 21,20 L21,6 C21,4.9 20.1,4 19,4 Z M12,3.75 C12.41,3.75 12.75,4.09 12.75,4.5 C12.75,4.91 12.41,5.25 12,5.25 C11.59,5.25 11.25,4.91 11.25,4.5 C11.25,4.09 11.59,3.75 12,3.75 Z M19,20 L5,20 L5,6 L19,6 L19,20 Z" id="Shape" fill-opacity="0.87" fill="#FFFFFF" fill-rule="nonzero"></path>
            </g>
        </g>
    </g>
</svg>