<svg xmlns="http://www.w3.org/2000/svg" xmlns:xlink="http://www.w3.org/1999/xlink" width="130" height="35" viewBox="0 0 130 35">
    <defs>
        <path id="a6hbayjcba" d="M17.515 0c9.579 0 17.36 7.61 17.515 17.053l.002.287-.002.273c-.138 8.892-7.043 16.156-15.842 16.982l-.267.023 2.363-4.53-2.2-4.216.123-.022c3.99-.773 7.011-4.222 7.071-8.384v-.27c-.077-4.677-3.893-8.454-8.62-8.53h-.143l-.145.001c-4.724.076-8.54 3.854-8.616 8.53v.27c.06 4.155 3.073 7.602 7.055 8.38l.121.023 2.2 4.217-2.35 4.507-.265-.028C6.871 33.592.135 26.392.002 17.606L0 17.34l.002-.287C.157 7.61 7.94 0 17.515 0z"/>
        <path id="0u251ittld" d="M17.515 0c9.579 0 17.36 7.61 17.515 17.053l.002.287-.002.273c-.138 8.892-7.043 16.156-15.842 16.982l-.267.023 2.363-4.53-2.2-4.216.123-.022c3.99-.773 7.011-4.222 7.071-8.384v-.27c-.077-4.677-3.893-8.454-8.62-8.53h-.143l-.145.001c-4.724.076-8.54 3.854-8.616 8.53v.27c.06 4.155 3.073 7.602 7.055 8.38l.121.023 2.2 4.217-2.35 4.507-.265-.028C6.871 33.592.135 26.392.002 17.606L0 17.34l.002-.287C.157 7.61 7.94 0 17.515 0z"/>
        <path id="gx24y83aig" d="M10.7 18.317L0.065 18.317 0.065 0.03 10.7 0.03 10.7 3.177 3.981 3.177 3.981 7.33 10.7 7.33 10.7 10.476 3.981 10.476 3.981 15.145 10.7 15.145z"/>
        <path id="0n81t1veui" d="M3.937 8.096h1.236c1.209 0 2.1-.202 2.68-.607.576-.403.864-1.038.864-1.904 0-.858-.293-1.468-.886-1.83-.587-.365-1.498-.544-2.734-.544h-1.16v4.885zm-.057 3.067v7.124H0V0h5.333c2.486 0 4.327.448 5.52 1.344 1.195.897 1.79 2.256 1.79 4.082 0 1.066-.295 2.014-.886 2.844-.594.83-1.43 1.481-2.518 1.952 2.756 4.072 4.547 6.876 5.383 8.065h-4.307l-4.369-7.124H3.88z"/>
        <path id="9x9li1e30k" d="M0 0h4.082l3.136 8.484c.199.572.39 1.152.572 1.74l.548 1.766h.124c.2-.589.386-1.177.56-1.766.174-.588.36-1.168.56-1.74L12.643 0h4.082v18.144h-3.36v-7.576c0-.425.017-.895.05-1.41.033-.515.07-1.038.112-1.57.041-.53.087-1.054.137-1.569.05-.515.1-.984.149-1.41h-.1L12.22 8.877 9.383 16.5H7.267L4.405 8.876 2.937 4.61h-.1c.05.425.1.894.15 1.41.05.514.1 1.037.149 1.569.05.53.091 1.054.124 1.569.034.515.05.985.05 1.41v7.576H0V0z"/>
        <path id="0e10mkoz2m" d="M.033.03h5.138c1.434 0 2.72.181 3.86.544 1.139.362 2.109.918 2.91 1.668.802.75 1.417 1.693 1.848 2.83.43 1.136.645 2.479.645 4.027 0 1.533-.215 2.875-.645 4.028-.43 1.154-1.038 2.113-1.823 2.88-.784.765-1.733 1.342-2.847 1.73-1.113.386-2.362.58-3.746.58H.033V.03zm4.85 15.355c.86 0 1.633-.119 2.32-.358.686-.239 1.27-.609 1.75-1.111s.848-1.149 1.104-1.94c.257-.79.385-1.745.385-2.864 0-1.12-.128-2.07-.385-2.853-.256-.782-.625-1.416-1.104-1.902-.48-.486-1.064-.84-1.75-1.062-.687-.222-1.46-.333-2.32-.333H3.74v12.423h1.142z"/>
        <path id="zkvfdryklo" d="M0 7.05h3.988V19.83H0V7.05zm2.005-3.173c-.577 0-1.055-.181-1.435-.545C.19 2.97 0 2.504 0 1.94 0 1.357.19.889.57.533.95.178 1.428 0 2.005 0c.578 0 1.052.178 1.425.533.372.356.558.824.558 1.406 0 .565-.186 1.03-.558 1.393-.373.364-.847.545-1.425.545z"/>
        <path id="14yd8lnt7q" d="M6.492 18.576c-1.202 0-2.368-.226-3.498-.677C1.864 17.447.866 16.802 0 15.964l2.044-2.467c.641.596 1.358 1.076 2.152 1.439.793.363 1.583.544 2.368.544.93 0 1.635-.185 2.116-.556.481-.371.722-.871.722-1.5 0-.339-.065-.62-.193-.846-.128-.226-.308-.428-.54-.605-.233-.178-.514-.339-.842-.484l-1.094-.484-2.38-1.016c-.45-.193-.89-.427-1.323-.701-.433-.274-.818-.609-1.154-1.004-.337-.395-.61-.846-.818-1.354C.85 6.422.745 5.837.745 5.176c0-.726.153-1.407.457-2.044.305-.637.73-1.185 1.275-1.644.545-.46 1.194-.823 1.947-1.089C5.178.133 6.004 0 6.901 0c1.042 0 2.052.198 3.03.593.977.395 1.827.963 2.548 1.705l-1.803 2.25c-.561-.468-1.146-.831-1.755-1.09-.61-.257-1.283-.386-2.02-.386-.786 0-1.41.165-1.876.496-.464.33-.697.794-.697 1.39 0 .323.076.597.229.823.152.226.352.427.6.605.25.177.542.338.878.483.337.145.698.29 1.082.436l2.333.991c.545.226 1.038.484 1.478.774.441.29.818.63 1.13 1.016.313.387.554.835.722 1.343.168.508.252 1.084.252 1.729 0 .726-.148 1.419-.444 2.08-.297.661-.726 1.238-1.287 1.73-.56.491-1.246.882-2.056 1.173-.81.29-1.727.435-2.753.435z"/>
        <linearGradient id="tyol38baxb" x1="0%" x2="0%" y1=".209%" y2="644.234%">
            <stop offset="0%" stop-color="#146FB8"/>
            <stop offset="100%" stop-color="#2CB1A4"/>
        </linearGradient>
        <linearGradient id="u3fckx1bme" x1=".001%" x2="99.937%" y1="100%" y2="100%">
            <stop offset="0%" stop-color="#146FB8"/>
            <stop offset="100%" stop-color="#2CB1A4"/>
        </linearGradient>
    </defs>
    <g fill="none" fill-rule="evenodd">
        <g>
            <g>
                <g>
                    <g>
                        <g>
                            <g transform="translate(-30 -14) translate(30 14)">
                                <mask id="bve9hsltcc" fill="#fff">
                                    <use xlink:href="#a6hbayjcba"/>
                                </mask>
                                <path fill="url(#tyol38baxb)" d="M0 34.618L35.055 34.618 35.055 -0.073 0 -0.073z" mask="url(#bve9hsltcc)"/>
                            </g>
                            <g transform="translate(-30 -14) translate(30 14)">
                                <mask id="yghvp6s8of" fill="#fff">
                                    <use xlink:href="#0u251ittld"/>
                                </mask>
                                <path fill="url(#u3fckx1bme)" d="M0 34.618L35.055 34.618 35.055 -0.073 0 -0.073z" mask="url(#yghvp6s8of)"/>
                                <g transform="translate(68.637 9.864)">
                                    <mask id="6yxlxzt5jh" fill="#fff">
                                        <use xlink:href="#gx24y83aig"/>
                                    </mask>
                                    <path fill="#FFF" d="M-1.021 19.397L11.786 19.397 11.786 -1.05 -1.021 -1.05z" mask="url(#6yxlxzt5jh)"/>
                                </g>
                                <g transform="translate(81.453 9.864)">
                                    <mask id="43lylhxb1j" fill="#fff">
                                        <use xlink:href="#0n81t1veui"/>
                                    </mask>
                                    <path fill="#FFF" d="M-1.086 19.367L15.708 19.367 15.708 -1.08 -1.086 -1.08z" mask="url(#43lylhxb1j)"/>
                                </g>
                                <g transform="translate(97.091 10.08)">
                                    <mask id="vgyb68dvyl" fill="#fff">
                                        <use xlink:href="#9x9li1e30k"/>
                                    </mask>
                                    <path fill="#FFF" d="M-1.086 19.224L17.811 19.224 17.811 -1.08 -1.086 -1.08z" mask="url(#vgyb68dvyl)"/>
                                </g>
                                <g transform="translate(52.274 9.864)">
                                    <mask id="j1k5z1i27n" fill="#fff">
                                        <use xlink:href="#0e10mkoz2m"/>
                                    </mask>
                                    <path fill="#FFF" d="M-1.053 19.397L15.52 19.397 15.52 -1.05 -1.053 -1.05z" mask="url(#j1k5z1i27n)"/>
                                </g>
                                <g transform="translate(43.224 8.352)">
                                    <mask id="5xvvaz71pp" fill="#fff">
                                        <use xlink:href="#zkvfdryklo"/>
                                    </mask>
                                    <path fill="#FFF" d="M-1.086 20.909L5.074 20.909 5.074 -1.08 -1.086 -1.08z" mask="url(#5xvvaz71pp)"/>
                                </g>
                                <g transform="translate(115.988 9.648)">
                                    <mask id="8osbfmeyer" fill="#fff">
                                        <use xlink:href="#14yd8lnt7q"/>
                                    </mask>
                                    <path fill="#FFF" d="M-1.086 19.656L14.118 19.656 14.118 -1.08 -1.086 -1.08z" mask="url(#8osbfmeyer)"/>
                                </g>
                            </g>
                        </g>
                    </g>
                </g>
            </g>
        </g>
    </g>
</svg>
