<?xml version="1.0" encoding="UTF-8"?>
<svg width="8px" height="14px" viewBox="0 0 8 14" version="1.1" xmlns="http://www.w3.org/2000/svg" xmlns:xlink="http://www.w3.org/1999/xlink">
    <title>Fill 1 Copy</title>
    <g id="이관-자료" stroke="none" stroke-width="1" fill="none" fill-rule="evenodd">
        <g id="SPC-이관자료-상세" transform="translate(-2134.000000, -616.000000)" fill="#363636">
            <path d="M2140.90909,619.181818 L2140.90909,626.5 C2140.90909,627.906364 2139.60727,629.045455 2138,629.045455 C2136.39273,629.045455 2135.09091,627.906364 2135.09091,626.5 L2135.09091,618.545455 C2135.09091,617.667273 2135.90545,616.954545 2136.90909,616.954545 C2137.91273,616.954545 2138.72727,617.667273 2138.72727,618.545455 L2138.72727,625.227273 C2138.72727,625.577273 2138.4,625.863636 2138,625.863636 C2137.6,625.863636 2137.27273,625.577273 2137.27273,625.227273 L2137.27273,619.181818 L2136.18182,619.181818 L2136.18182,625.227273 C2136.18182,626.105455 2136.99636,626.818182 2138,626.818182 C2139.00364,626.818182 2139.81818,626.105455 2139.81818,625.227273 L2139.81818,618.545455 C2139.81818,617.139091 2138.51636,616 2136.90909,616 C2135.30182,616 2134,617.139091 2134,618.545455 L2134,626.5 C2134,628.434545 2135.78909,630 2138,630 C2140.21091,630 2142,628.434545 2142,626.5 L2142,619.181818 L2140.90909,619.181818 Z" id="Fill-1-Copy"></path>
        </g>
    </g>
</svg>