<?xml version="1.0" encoding="UTF-8"?>
<svg width="8px" height="14px" viewBox="0 0 8 14" version="1.1" xmlns="http://www.w3.org/2000/svg" xmlns:xlink="http://www.w3.org/1999/xlink">
    <title>Fill 1</title>
    <g id="이관-자료" stroke="none" stroke-width="1" fill="none" fill-rule="evenodd" fill-opacity="0.87">
        <g id="SPC-이관자료-상세-Copy" transform="translate(-1584.000000, -396.000000)" fill="#FFFFFF">
            <path d="M1590.90909,399.181818 L1590.90909,406.5 C1590.90909,407.906364 1589.60727,409.045455 1588,409.045455 C1586.39273,409.045455 1585.09091,407.906364 1585.09091,406.5 L1585.09091,398.545455 C1585.09091,397.667273 1585.90545,396.954545 1586.90909,396.954545 C1587.91273,396.954545 1588.72727,397.667273 1588.72727,398.545455 L1588.72727,405.227273 C1588.72727,405.577273 1588.4,405.863636 1588,405.863636 C1587.6,405.863636 1587.27273,405.577273 1587.27273,405.227273 L1587.27273,399.181818 L1586.18182,399.181818 L1586.18182,405.227273 C1586.18182,406.105455 1586.99636,406.818182 1588,406.818182 C1589.00364,406.818182 1589.81818,406.105455 1589.81818,405.227273 L1589.81818,398.545455 C1589.81818,397.139091 1588.51636,396 1586.90909,396 C1585.30182,396 1584,397.139091 1584,398.545455 L1584,406.5 C1584,408.434545 1585.78909,410 1588,410 C1590.21091,410 1592,408.434545 1592,406.5 L1592,399.181818 L1590.90909,399.181818 Z" id="Fill-1"></path>
        </g>
    </g>
</svg>