<svg xmlns="http://www.w3.org/2000/svg" width="18" height="18" viewBox="0 0 18 18">
    <path fill="#1D98E9" d="M15.3 10.29c.359 0 .655.266.695.61l.005.08v3.454c0 .354-.27.646-.618.686l-.082.005H2.7c-.359 0-.655-.267-.695-.61L2 14.435V10.98c0-.381.313-.69.7-.69.359 0 .655.266.695.61l.005.08v2.763h11.2V10.98c0-.354.27-.646.618-.686l.082-.005zM9 2l.082.005c.321.036.576.288.613.605l.005.08v7.6l1.68-1.244.073-.048c.303-.17.693-.096.907.186.214.282.177.673-.073.911l-.067.056-2.823 2.09-.05.03-.023.013c-.1.052-.205.077-.31.079h-.029c-.115-.002-.232-.033-.34-.097l-.07-.046-2.795-2.069c-.31-.229-.372-.662-.14-.967.214-.282.604-.356.906-.186l.074.048L8.3 10.29V2.691l.005-.08c.037-.318.292-.57.613-.606L9 2z"/>
</svg>
