<svg xmlns="http://www.w3.org/2000/svg" width="24" height="24" viewBox="0 0 24 24">
    <g fill="none" fill-rule="evenodd">
        <g>
            <g>
                <g>
                    <g>
                        <g>
                            <g>
                                <g>
                                    <path d="M0 0L24 0 24 24 0 24z" transform="translate(-423 -786) translate(309 464) translate(114 322)"/>
                                    <path fill="#FFF" fill-opacity=".6" fill-rule="nonzero" d="M11.5 15h1v-1h-1v1zm.5-8c-2.76 0-5 2.24-5 5s2.24 5 5 5 5-2.24 5-5-2.24-5-5-5zm0 9c-2.205 0-4-1.795-4-4s1.795-4 4-4 4 1.795 4 4-1.795 4-4 4zm0-7c-1.105 0-2 .895-2 2h1c0-.55.45-1 1-1s1 .45 1 1c0 1-1.5.875-1.5 2.5h1c0-1.125 1.5-1.25 1.5-2.5 0-1.105-.895-2-2-2z" transform="translate(-423 -786) translate(309 464) translate(114 322)"/>
                                </g>
                            </g>
                        </g>
                    </g>
                </g>
            </g>
        </g>
    </g>
</svg>
