<?xml version="1.0" encoding="UTF-8"?>
<svg width="14px" height="14px" viewBox="0 0 14 14" version="1.1" xmlns="http://www.w3.org/2000/svg" xmlns:xlink="http://www.w3.org/1999/xlink">
    <title>ico-warning</title>
    <g id="Page-1" stroke="none" stroke-width="1" fill="none" fill-rule="evenodd">
        <g id="ico-warning" fill="#F2A363" fill-rule="nonzero">
            <path d="M6.3,9.1 L7.7,9.1 L7.7,10.5 L6.3,10.5 L6.3,9.1 Z M6.3,3.5 L7.7,3.5 L7.7,7.7 L6.3,7.7 L6.3,3.5 Z M6.993,0 C3.129,0 0,3.136 0,7 C0,10.864 3.129,14 6.993,14 C10.864,14 14,10.864 14,7 C14,3.136 10.864,0 6.993,0 Z M7,12.6 C3.906,12.6 1.4,10.094 1.4,7 C1.4,3.906 3.906,1.4 7,1.4 C10.094,1.4 12.6,3.906 12.6,7 C12.6,10.094 10.094,12.6 7,12.6 Z" id="Shape"></path>
        </g>
    </g>
</svg>