<svg xmlns="http://www.w3.org/2000/svg" width="18" height="18" viewBox="0 0 18 18">
    <g fill="none" fill-opacity=".87" fill-rule="evenodd">
        <g fill="#FFF" fill-rule="nonzero">
            <g>
                <path d="M13.5 14.25h-9c-.412 0-.75-.338-.75-.75v-9c0-.412.338-.75.75-.75h3.75c.412 0 .75-.337.75-.75s-.338-.75-.75-.75h-4.5c-.833 0-1.5.675-1.5 1.5v10.5c0 .825.675 1.5 1.5 1.5h10.5c.825 0 1.5-.675 1.5-1.5v-4.5c0-.412-.338-.75-.75-.75s-.75.338-.75.75v3.75c0 .412-.338.75-.75.75zM10.5 3c0 .413.338.75.75.75h1.943l-6.848 6.848c-.292.292-.292.764 0 1.057.293.293.765.293 1.058 0l6.847-6.847V6.75c0 .412.338.75.75.75s.75-.338.75-.75V3c0-.413-.338-.75-.75-.75h-3.75c-.412 0-.75.337-.75.75z" transform="translate(-236 -85) translate(236 85)"/>
            </g>
        </g>
    </g>
</svg>
