<?xml version="1.0" encoding="UTF-8"?>
<svg width="15px" height="21px" viewBox="0 0 15 21" version="1.1" xmlns="http://www.w3.org/2000/svg" xmlns:xlink="http://www.w3.org/1999/xlink">
    <title>Shape</title>
    <g id="Symbols" stroke="none" stroke-width="1" fill="none" fill-rule="evenodd" fill-opacity="0.87" opacity="0.87">
        <g id="Icon/disconnector/light-Copy" transform="translate(-5.000000, -2.000000)" fill="#000000" fill-rule="nonzero">
            <path d="M17.4,2 C18.6702549,2 19.7100212,2.98683903 19.7944631,4.23568127 L19.8,4.4 L19.8,20.4 C19.8,21.6702549 18.813161,22.7100212 17.5643187,22.7944631 L17.4,22.8 L7.4,22.8 C6.12974508,22.8 5.08997876,21.813161 5.00553687,20.5643187 L5,20.4 L5,4.4 C5,3.12974508 5.98683903,2.08997876 7.23568127,2.00553687 L7.4,2 L17.4,2 Z M17.0833333,4 L7.91666667,4 C7.44656715,4 7.05911844,4.36459351 7.00616709,4.83430227 L7,4.94444444 L7,20.0555556 C7,20.5399005 7.35387017,20.9390901 7.80976397,20.993646 L7.91666667,21 L17.0833333,21 C17.5534329,21 17.9408816,20.6354065 17.9938329,20.1656977 L18,20.0555556 L18,4.94444444 C18,4.46009949 17.6461298,4.0609099 17.190236,4.00635397 L17.0833333,4 Z M9.4,16.9 C10.2284271,16.9 10.9,17.5715729 10.9,18.4 C10.9,19.2284271 10.2284271,19.9 9.4,19.9 C8.57157288,19.9 7.9,19.2284271 7.9,18.4 C7.9,17.5715729 8.57157288,16.9 9.4,16.9 Z M15.4,16.9 C16.2284271,16.9 16.9,17.5715729 16.9,18.4 C16.9,19.2284271 16.2284271,19.9 15.4,19.9 C14.5715729,19.9 13.9,19.2284271 13.9,18.4 C13.9,17.5715729 14.5715729,16.9 15.4,16.9 Z M9.4,17.9 C9.12385763,17.9 8.9,18.1238576 8.9,18.4 C8.9,18.6761424 9.12385763,18.9 9.4,18.9 C9.67614237,18.9 9.9,18.6761424 9.9,18.4 C9.9,18.1238576 9.67614237,17.9 9.4,17.9 Z M15.4,17.9 C15.1238576,17.9 14.9,18.1238576 14.9,18.4 C14.9,18.6761424 15.1238576,18.9 15.4,18.9 C15.6761424,18.9 15.9,18.6761424 15.9,18.4 C15.9,18.1238576 15.6761424,17.9 15.4,17.9 Z M8.9,15.1 C8.27867966,15.1 7.76764746,14.6278003 7.70619546,14.022693 L7.7,13.9 L7.7,12.9 C7.7,12.2786797 8.17219968,11.7676475 8.77730697,11.7061955 L8.9,11.7 L9.7,11.699 L9.7,9.9 C9.7,9.27867966 10.1721997,8.76764746 10.777307,8.70619546 L10.9,8.7 L13.9,8.7 C14.5213203,8.7 15.0323525,9.17219968 15.0938045,9.77730697 L15.1,9.9 L15.099,11.699 L15.9,11.7 C16.5213203,11.7 17.0323525,12.1721997 17.0938045,12.777307 L17.1,12.9 L17.1,13.9 C17.1,14.5213203 16.6278003,15.0323525 16.022693,15.0938045 L15.9,15.1 L8.9,15.1 Z M9.7,13.1 L9.1,13.1 L9.1,13.7 L9.7,13.7 L9.7,13.1 Z M15.7,13.1 L15.1,13.1 L15.1,13.7 L15.7,13.7 L15.7,13.1 Z M13.7,10.1 L11.1,10.1 L11.1,13.7 L13.7,13.7 L13.7,10.1 Z M9.4,4.9 C10.2284271,4.9 10.9,5.57157288 10.9,6.4 C10.9,7.22842712 10.2284271,7.9 9.4,7.9 C8.57157288,7.9 7.9,7.22842712 7.9,6.4 C7.9,5.57157288 8.57157288,4.9 9.4,4.9 Z M15.4,4.9 C16.2284271,4.9 16.9,5.57157288 16.9,6.4 C16.9,7.22842712 16.2284271,7.9 15.4,7.9 C14.5715729,7.9 13.9,7.22842712 13.9,6.4 C13.9,5.57157288 14.5715729,4.9 15.4,4.9 Z M9.4,5.9 C9.12385763,5.9 8.9,6.12385763 8.9,6.4 C8.9,6.67614237 9.12385763,6.9 9.4,6.9 C9.67614237,6.9 9.9,6.67614237 9.9,6.4 C9.9,6.12385763 9.67614237,5.9 9.4,5.9 Z M15.4,5.9 C15.1238576,5.9 14.9,6.12385763 14.9,6.4 C14.9,6.67614237 15.1238576,6.9 15.4,6.9 C15.6761424,6.9 15.9,6.67614237 15.9,6.4 C15.9,6.12385763 15.6761424,5.9 15.4,5.9 Z" id="Shape"></path>
        </g>
    </g>
</svg>