<svg xmlns="http://www.w3.org/2000/svg" width="24" height="24" viewBox="0 0 24 24">
    <g fill="none" fill-rule="evenodd">
        <path d="M0 0h24v24H0V0zm0 0h24v24H0V0zm0 0h24v24H0V0zm0 0h24v24H0V0z"/>
        <path fill="#FFF" fill-opacity=".87" fill-rule="nonzero" d="M12 5.55c-3.79 0-7.17 2.13-8.82 5.5.59 1.22 1.42 2.27 2.41 3.12l-1.41 1.41C2.79 14.35 1.69 12.81 1 11.05c1.73-4.39 6-7.5 11-7.5 1.27 0 2.49.2 3.64.57l-1.65 1.65c-.65-.13-1.31-.22-1.99-.22zm1.07 1.14L11 8.76c-.57.25-1.03.71-1.28 1.28l-2.07 2.07c-.08-.34-.14-.7-.14-1.07C7.5 8.56 9.52 6.55 12 6.55c.37 0 .72.05 1.07.14zm8.92-3.27L19.31 6.1c1.63 1.28 2.92 2.98 3.69 4.95-1.73 4.39-6 7.5-11 7.5-1.52 0-2.98-.29-4.32-.82l-3.42 3.42-1.41-1.41L20.58 2l1.41 1.42zm-7.5 7.5l-2.61 2.61c.04.01.08.02.12.02 1.38 0 2.5-1.12 2.5-2.5 0-.05-.01-.08-.01-.13zm3.4-3.4l-1.75 1.75c.23.55.36 1.15.36 1.78 0 2.48-2.02 4.5-4.5 4.5-.63 0-1.23-.13-1.77-.36l-.98.98c.88.24 1.8.38 2.75.38 3.79 0 7.17-2.13 8.82-5.5-.7-1.43-1.72-2.61-2.93-3.53z"/>
    </g>
</svg>
