<?xml version="1.0" encoding="UTF-8"?>
<svg width="18px" height="16px" viewBox="0 0 18 16" version="1.1" xmlns="http://www.w3.org/2000/svg" xmlns:xlink="http://www.w3.org/1999/xlink">
    <title>Shape</title>
    <g id="Page-1" stroke="none" stroke-width="1" fill="none" fill-rule="evenodd">
        <path d="M1,0 C1.513,0 1.936,0.386 1.993,0.883 L2,1 L2,14 L17,14 C17.513,14 17.936,14.386 17.993,14.883 L18,15 C18,15.513 17.614,15.936 17.117,15.993 L17,16 L0,16 L0,1 C0,0.448 0.448,0 1,0 Z M15.586,5.19 C15.999,5.488 16.116,6.044 15.877,6.48 L15.81,6.586 L12.194,11.586 C11.866,12.039 11.238,12.13 10.798,11.81 L10.706,11.736 L7.692,8.959 L4.677,11.736 C4.302,12.081 3.735,12.086 3.355,11.764 L3.265,11.677 C2.919,11.302 2.915,10.735 3.235,10.355 L3.323,10.265 L7.014,6.865 C7.365,6.541 7.89,6.515 8.27,6.783 L8.37,6.864 L11.233,9.501 L14.19,5.414 C14.513,4.966 15.139,4.866 15.586,5.19 L15.586,5.19 Z" id="Shape" fill="#1D98E9" fill-rule="nonzero"></path>
    </g>
</svg>