<?xml version="1.0" encoding="UTF-8"?>
<svg width="17px" height="16px" viewBox="0 0 17 16" version="1.1" xmlns="http://www.w3.org/2000/svg" xmlns:xlink="http://www.w3.org/1999/xlink">
    <title>Combined Shape</title>
    <g id="Symbols" stroke="none" stroke-width="1" fill="none" fill-rule="evenodd">
        <g id="Icon/wind-Copy-2" transform="translate(-4.000000, -4.000000)" fill="#000000" fill-rule="nonzero">
            <path d="M5.65474435,6.47259842 C8.99518583,3.16442556 14.3809716,3.17749526 17.7053179,6.50184159 C21.0296643,9.82618792 21.042734,15.2119737 17.7329021,18.5540825 L17.7329021,18.5540825 L16.7077679,19.5795225 L16.7077679,19.5795225 L16.6168053,19.6590294 C16.2689989,19.9237406 15.7704281,19.8972695 15.4527747,19.5796161 C15.1061768,19.2330183 15.1061349,18.6710851 15.4526811,18.3244356 L15.4526811,18.3244356 L16.4777625,17.2990484 C19.1203487,14.6564621 19.1203487,10.3719833 16.4777625,7.72939705 C13.8351762,5.0868108 9.55069738,5.0868108 6.90805839,7.72944978 L6.90805839,7.72944978 L5.8827239,8.75447847 C5.5360744,9.10102458 4.97414125,9.10098268 4.62754344,8.75438487 L4.62754344,8.75438487 L4.54804899,8.66340888 C4.28339114,8.31556328 4.30993773,7.8169976 4.62763851,7.49939308 L4.62763851,7.49939308 Z M8.68451729,11.1719168 C9.58258824,10.2760277 11.0363361,10.2760277 11.9353511,11.1728598 L11.9353511,11.1728598 L13.0352427,12.273012 C13.9311318,13.171083 13.9311318,14.6248309 13.0343832,15.5237624 L13.0343832,15.5237624 L9.7327974,18.8253475 C9.30171676,19.2572746 8.71653767,19.5 8.10629875,19.5 C7.49605983,19.5 6.91088073,19.2572746 6.48049332,18.8260414 L6.48049332,18.8260414 L5.38181203,17.7273594 C4.94988492,17.2962788 4.70715951,16.7110997 4.70715951,16.1008608 C4.70715951,15.4906219 4.94988492,14.9054428 5.38181203,14.4743621 L5.38181203,14.4743621 Z M7.42114485,8.86306567 C9.61951812,6.66469241 13.1837854,6.66469241 15.3821587,8.86306567 C17.580532,11.0614389 17.580532,14.6257062 15.3821587,16.8240795 L15.3821587,16.8240795 L13.6050847,18.6011535 C13.2888522,18.917386 12.7761381,18.917386 12.4599056,18.6011535 L12.4599056,18.6011535 L12.3814988,18.5103292 C12.1462874,18.1933216 12.1724245,17.7434585 12.4599086,17.4559774 L12.4599086,17.4559774 L14.234062,15.6818423 C15.7779088,14.1121945 15.7674641,11.5913618 14.2106633,10.034561 C12.6538626,8.47776025 10.1330299,8.46731555 8.56632392,10.0082447 L8.56632392,10.0082447 L6.78924991,11.7853188 C6.47301744,12.1015512 5.96030331,12.1015512 5.64407084,11.7853188 C5.32783837,11.4690863 5.32783837,10.9563722 5.64407084,10.6401397 L5.64407084,10.6401397 Z M10.5219146,12.5878493 C10.4044969,12.4707169 10.2144275,12.4707169 10.0978425,12.5870177 L10.0978425,12.5870177 L6.7953039,15.8892967 C6.73863231,15.9458579 6.70715951,16.0217346 6.70715951,16.1008608 C6.70715951,16.1799869 6.73863231,16.2558637 6.79533169,16.3124526 L6.79533169,16.3124526 L7.8954001,17.4125217 C7.95129582,17.4685272 8.0271726,17.5 8.10629875,17.5 C8.18542489,17.5 8.26130167,17.4685272 8.31789061,17.4118278 L8.31789061,17.4118278 L11.6193102,14.1104093 C11.7364426,13.9929916 11.7364426,13.8029222 11.6200862,13.6862816 L11.6200862,13.6862816 Z" id="Combined-Shape"></path>
        </g>
    </g>
</svg>