<?xml version="1.0" encoding="UTF-8"?>
<svg width="18px" height="16px" viewBox="0 0 18 16" version="1.1" xmlns="http://www.w3.org/2000/svg" xmlns:xlink="http://www.w3.org/1999/xlink">
    <title>Shape</title>
    <g id="Symbols" stroke="none" stroke-width="1" fill="none" fill-rule="evenodd" fill-opacity="0.87">
        <g id="Icon/inverter/selected" transform="translate(-3.000000, -4.000000)" fill="#000000" fill-rule="nonzero">
            <path d="M4,20 L20,20 C20.5522847,20 21,19.5522847 21,19 L21,17 C21,16.4477153 20.5522847,16 20,16 L4,16 C3.44771525,16 3,16.4477153 3,17 L3,19 C3,19.5522847 3.44771525,20 4,20 Z M5,17 L7,17 L7,19 L5,19 L5,17 Z M4,8 L20,8 C20.5522847,8 21,7.55228475 21,7 L21,5 C21,4.44771525 20.5522847,4 20,4 L4,4 C3.44771525,4 3,4.44771525 3,5 L3,7 C3,7.55228475 3.44771525,8 4,8 Z M7,7 L5,7 L5,5 L7,5 L7,7 Z M4,14 L20,14 C20.5522847,14 21,13.5522847 21,13 L21,11 C21,10.4477153 20.5522847,10 20,10 L4,10 C3.44771525,10 3,10.4477153 3,11 L3,13 C3,13.5522847 3.44771525,14 4,14 Z M5,11 L7,11 L7,13 L5,13 L5,11 Z" id="Shape"></path>
        </g>
    </g>
</svg>