<svg xmlns="http://www.w3.org/2000/svg" width="24" height="24" viewBox="0 0 24 24">
    <path fill="#FFF" fill-opacity=".87" fill-rule="evenodd" d="M2.5 18c-.276 0-.5-.224-.5-.5v-15c0-.276.224-.5.5-.5h19c.276 0 .5.224.5.5v15c0 .276-.224.5-.5.5H13v2h4.5c.276 0 .5.224.5.5v1c0 .276-.224.5-.5.5h-11c-.276 0-.5-.224-.5-.5v-1c0-.276.224-.5.5-.5H11v-2H2.5zm8.2-7H4.3c-.142 0-.261.099-.292.231L4 11.3v4.4c0 .142.099.261.231.292L4.3 16h6.4c.142 0 .261-.099.292-.231L11 15.7v-4.4c0-.166-.134-.3-.3-.3zm9 0h-6.4c-.142 0-.261.099-.292.231L13 11.3v4.4c0 .142.099.261.231.292L13.3 16h6.4c.142 0 .261-.099.292-.231L20 15.7v-4.4c0-.166-.134-.3-.3-.3zm-9-7H4.3c-.142 0-.261.099-.292.231L4 4.3v4.4c0 .142.099.261.231.292L4.3 9h6.4c.142 0 .261-.099.292-.231L11 8.7V4.3c0-.166-.134-.3-.3-.3zm9 0h-6.4c-.142 0-.261.099-.292.231L13 4.3v4.4c0 .142.099.261.231.292L13.3 9h6.4c.142 0 .261-.099.292-.231L20 8.7V4.3c0-.166-.134-.3-.3-.3z"/>
</svg>
