<?xml version="1.0" encoding="UTF-8"?>
<svg width="16px" height="16px" viewBox="0 0 16 16" version="1.1" xmlns="http://www.w3.org/2000/svg" xmlns:xlink="http://www.w3.org/1999/xlink">
    <title>Shape</title>
    <g id="Symbols" stroke="none" stroke-width="1" fill="none" fill-rule="evenodd" fill-opacity="0.87">
        <g id="Icon/solar/selected" transform="translate(-4.000000, -4.000000)" fill="#000000">
            <path d="M5,16 C4.44771525,16 4,15.5522847 4,15 L4,5 C4,4.44771525 4.44771525,4 5,4 L19,4 C19.5522847,4 20,4.44771525 20,5 L20,15 C20,15.5522847 19.5522847,16 19,16 L13,16 L13,18 L17,18 L17,20 L7,20 L7,18 L11,18 L11,16 L5,16 Z M11,11 L6,11 L6,14 L11,14 L11,11 Z M18,11 L13,11 L13,14 L18,14 L18,11 Z M11,6 L6,6 L6,9 L11,9 L11,6 Z M18,6 L13,6 L13,9 L18,9 L18,6 Z" id="Shape"></path>
        </g>
    </g>
</svg>