<?xml version="1.0" encoding="UTF-8"?>
<svg width="19px" height="19px" viewBox="0 0 19 19" version="1.1" xmlns="http://www.w3.org/2000/svg" xmlns:xlink="http://www.w3.org/1999/xlink">
    <title>Combined Shape</title>
    <g id="Symbols" stroke="none" stroke-width="1" fill="none" fill-rule="evenodd" fill-opacity="0.87">
        <g id="Icon/inverter" transform="translate(-2.000000, -2.000000)" fill="#000000" fill-rule="nonzero">
            <path d="M17.435867,2.5 C19.0675042,2.5 20.4046466,3.78081589 20.4951202,5.39029008 L20.5,5.56394799 L20.5,17.436052 C20.5,19.0677318 19.2191305,20.4048661 17.6097044,20.4951421 L17.436052,20.5 L5.56394799,20.5 C3.93226825,20.5 2.5951339,19.2191305 2.5048579,17.6097044 L2.5,17.436052 L2.5,5.56394799 C2.5,3.93226825 3.78086953,2.5951339 5.39029563,2.5048579 L5.56394799,2.5 L17.435867,2.5 Z M18.8089474,5.506 L5.506,18.8089474 L5.56394799,18.8123712 L17.435867,18.8123712 C18.1498296,18.8123712 18.7391881,18.2650105 18.806054,17.5681776 L18.8123712,17.435867 L18.8123712,5.56394799 L18.8089474,5.506 Z M17.436052,4.18744379 L5.56394799,4.18744379 C4.84998533,4.18744379 4.26062686,4.73480446 4.19376103,5.43163734 L4.18744379,5.56394799 L4.18744379,17.435867 C4.18744379,17.4849247 4.19006472,17.5335982 4.19523437,17.5817461 L4.21568421,17.7128421 L17.7128421,4.21568421 L17.581931,4.1952351 L17.436052,4.18744379 Z M13.5089012,13.4290669 C14.635736,13.4290669 15.5471137,14.3877684 15.5471137,15.5607355 C15.5471137,15.9817217 15.8690077,16.3200093 16.258038,16.3200093 C16.6468246,16.3200093 16.9684506,15.9817932 16.9684506,15.5607355 L16.9684506,15.5607355 L16.9754632,15.4710203 C17.0170064,15.2078199 17.238305,15.0035147 17.5099563,15.0035147 L17.5099563,15.0035147 L17.7549154,15.0035147 C18.0568727,15.0035147 18.2964211,15.2555169 18.2964211,15.5605562 C18.2964211,16.7337372 17.3850084,17.6922248 16.258038,17.6922248 C15.1309571,17.6922248 14.2193138,16.7336199 14.2193138,15.5605562 C14.2193138,15.1392692 13.897634,14.8007443 13.5090718,14.8007443 C13.1200562,14.8007443 12.798318,15.1392045 12.798318,15.5605562 C12.798318,16.7337406 11.8867299,17.6922248 10.7595938,17.6922248 C10.298592,17.6922248 9.79719975,17.5483813 9.49940625,17.2333611 C9.36737414,17.0936913 9.29725315,16.8480871 9.27670267,16.6548121 C9.27670267,16.3803856 9.43020653,16.0160201 9.63710416,15.9313395 C9.84884008,15.8442268 10.0905887,15.9031773 10.2407175,16.0766491 L10.2407175,16.0766491 L10.3126983,16.1485789 C10.4393943,16.2588153 10.5978257,16.3200093 10.7594232,16.3200093 C11.1481634,16.3200093 11.4696652,15.9818397 11.4696652,15.5607355 L11.4696652,15.5607355 L11.4747795,15.4090149 C11.5493685,14.3062059 12.4305837,13.4290669 13.5089012,13.4290669 Z M10.5526316,8.65789474 C11.0758487,8.65789474 11.5,9.08204603 11.5,9.60526316 C11.5,10.1284803 11.0758487,10.5526316 10.5526316,10.5526316 L6.76315789,10.5526316 C6.23994076,10.5526316 5.81578947,10.1284803 5.81578947,9.60526316 C5.81578947,9.08204603 6.23994076,8.65789474 6.76315789,8.65789474 L10.5526316,8.65789474 Z M10.5526316,5.81578947 C11.0758487,5.81578947 11.5,6.23994076 11.5,6.76315789 C11.5,7.28637503 11.0758487,7.71052632 10.5526316,7.71052632 L6.76315789,7.71052632 C6.23994076,7.71052632 5.81578947,7.28637503 5.81578947,6.76315789 C5.81578947,6.23994076 6.23994076,5.81578947 6.76315789,5.81578947 L10.5526316,5.81578947 Z" id="Combined-Shape"></path>
        </g>
    </g>
</svg>