<?xml version="1.0" encoding="UTF-8"?>
<svg width="18px" height="18px" viewBox="0 0 18 18" version="1.1" xmlns="http://www.w3.org/2000/svg" xmlns:xlink="http://www.w3.org/1999/xlink">
    <title>server(1)</title>
    <g id="Symbols" stroke="none" stroke-width="1" fill="none" fill-rule="evenodd" opacity="0.87">
        <g id="Icon/connector/selected-Copy-2" transform="translate(-3.000000, -3.000000)" fill="#000000" fill-rule="nonzero">
            <g id="server(1)" transform="translate(3.000000, 3.000000)">
                <path d="M17.1290323,13.9354839 L16.8387097,13.9354839 L16.8387097,13.6451613 C16.8387097,13.1649677 16.4479355,12.7741935 15.9677419,12.7741935 L2.03225806,12.7741935 C1.55206452,12.7741935 1.16129032,13.1649677 1.16129032,13.6451613 L1.16129032,13.9354839 L0.870967742,13.9354839 C0.390774194,13.9354839 0,14.3262581 0,14.8064516 L0,15.9677419 C0,16.4479355 0.390774194,16.8387097 0.870967742,16.8387097 L1.16129032,16.8387097 L1.16129032,17.1290323 C1.16129032,17.6092258 1.55206452,18 2.03225806,18 L15.9677419,18 C16.4479355,18 16.8387097,17.6092258 16.8387097,17.1290323 L16.8387097,16.8387097 L17.1290323,16.8387097 C17.6092258,16.8387097 18,16.4479355 18,15.9677419 L18,14.8064516 C18,14.3262581 17.6092258,13.9354839 17.1290323,13.9354839 Z M16.2580645,13.6451613 L16.2580645,15.0967742 L14.516129,15.0967742 L14.516129,13.3548387 L15.9677419,13.3548387 C16.128,13.3548387 16.2580645,13.4849032 16.2580645,13.6451613 Z M6.96774194,15.6774194 L6.96774194,17.4193548 L4.64516129,17.4193548 L4.64516129,15.6774194 L6.96774194,15.6774194 Z M7.5483871,15.6774194 L9.29032258,15.6774194 L9.29032258,17.4193548 L7.5483871,17.4193548 L7.5483871,15.6774194 Z M9.29032258,15.0967742 L7.5483871,15.0967742 L7.5483871,13.3548387 L9.29032258,13.3548387 L9.29032258,15.0967742 Z M9.87096774,13.3548387 L11.6129032,13.3548387 L11.6129032,15.0967742 L9.87096774,15.0967742 L9.87096774,13.3548387 Z M9.87096774,15.6774194 L11.6129032,15.6774194 L11.6129032,17.4193548 L9.87096774,17.4193548 L9.87096774,15.6774194 Z M12.1935484,15.6774194 L13.9354839,15.6774194 L13.9354839,17.4193548 L12.1935484,17.4193548 L12.1935484,15.6774194 Z M12.1935484,15.0967742 L12.1935484,13.3548387 L13.9354839,13.3548387 L13.9354839,15.0967742 L12.1935484,15.0967742 Z M2.03225806,13.3548387 L6.96774194,13.3548387 L6.96774194,15.0967742 L1.74193548,15.0967742 L1.74193548,13.6451613 C1.74193548,13.4849032 1.872,13.3548387 2.03225806,13.3548387 Z M0.870967742,16.2580645 C0.710709677,16.2580645 0.580645161,16.128 0.580645161,15.9677419 L0.580645161,14.8064516 C0.580645161,14.6461935 0.710709677,14.516129 0.870967742,14.516129 L1.16129032,14.516129 L1.16129032,16.2580645 L0.870967742,16.2580645 Z M1.74193548,17.1290323 L1.74193548,15.6774194 L4.06451613,15.6774194 L4.06451613,17.4193548 L2.03225806,17.4193548 C1.872,17.4193548 1.74193548,17.2892903 1.74193548,17.1290323 Z M15.9677419,17.4193548 L14.516129,17.4193548 L14.516129,15.6774194 L16.2580645,15.6774194 L16.2580645,17.1290323 C16.2580645,17.2892903 16.128,17.4193548 15.9677419,17.4193548 Z M17.4193548,15.9677419 C17.4193548,16.128 17.2892903,16.2580645 17.1290323,16.2580645 L16.8387097,16.2580645 L16.8387097,14.516129 L17.1290323,14.516129 C17.2892903,14.516129 17.4193548,14.6461935 17.4193548,14.8064516 L17.4193548,15.9677419 Z" id="Shape"></path>
                <polygon id="Path" points="2.32258065 13.9354839 2.90322581 13.9354839 2.90322581 14.516129 2.32258065 14.516129"></polygon>
                <polygon id="Path" points="4.64516129 13.9354839 5.22580645 13.9354839 5.22580645 14.516129 4.64516129 14.516129"></polygon>
                <polygon id="Path" points="3.48387097 13.9354839 4.06451613 13.9354839 4.06451613 14.516129 3.48387097 14.516129"></polygon>
                <polygon id="Path" points="5.80645161 13.9354839 6.38709677 13.9354839 6.38709677 14.516129 5.80645161 14.516129"></polygon>
                <polygon id="Path" points="8.12903226 13.9354839 8.70967742 13.9354839 8.70967742 14.516129 8.12903226 14.516129"></polygon>
                <polygon id="Path" points="10.4516129 13.9354839 11.0322581 13.9354839 11.0322581 14.516129 10.4516129 14.516129"></polygon>
                <polygon id="Path" points="12.7741935 13.9354839 13.3548387 13.9354839 13.3548387 14.516129 12.7741935 14.516129"></polygon>
                <polygon id="Path" points="15.0967742 13.9354839 15.6774194 13.9354839 15.6774194 14.516129 15.0967742 14.516129"></polygon>
                <path d="M17.1290323,7.5483871 L16.8387097,7.5483871 L16.8387097,7.25806452 C16.8387097,6.77787097 16.4479355,6.38709677 15.9677419,6.38709677 L2.03225806,6.38709677 C1.55206452,6.38709677 1.16129032,6.77787097 1.16129032,7.25806452 L1.16129032,7.5483871 L0.870967742,7.5483871 C0.390774194,7.5483871 0,7.93916129 0,8.41935484 L0,9.58064516 C0,10.0608387 0.390774194,10.4516129 0.870967742,10.4516129 L1.16129032,10.4516129 L1.16129032,10.7419355 C1.16129032,11.222129 1.55206452,11.6129032 2.03225806,11.6129032 L15.9677419,11.6129032 C16.4479355,11.6129032 16.8387097,11.222129 16.8387097,10.7419355 L16.8387097,10.4516129 L17.1290323,10.4516129 C17.6092258,10.4516129 18,10.0608387 18,9.58064516 L18,8.41935484 C18,7.93916129 17.6092258,7.5483871 17.1290323,7.5483871 Z M16.2580645,7.25806452 L16.2580645,8.70967742 L14.516129,8.70967742 L14.516129,6.96774194 L15.9677419,6.96774194 C16.128,6.96774194 16.2580645,7.09780645 16.2580645,7.25806452 Z M6.96774194,9.29032258 L6.96774194,11.0322581 L4.64516129,11.0322581 L4.64516129,9.29032258 L6.96774194,9.29032258 Z M7.5483871,9.29032258 L9.29032258,9.29032258 L9.29032258,11.0322581 L7.5483871,11.0322581 L7.5483871,9.29032258 Z M9.29032258,8.70967742 L7.5483871,8.70967742 L7.5483871,6.96774194 L9.29032258,6.96774194 L9.29032258,8.70967742 Z M9.87096774,6.96774194 L11.6129032,6.96774194 L11.6129032,8.70967742 L9.87096774,8.70967742 L9.87096774,6.96774194 Z M9.87096774,9.29032258 L11.6129032,9.29032258 L11.6129032,11.0322581 L9.87096774,11.0322581 L9.87096774,9.29032258 Z M12.1935484,9.29032258 L13.9354839,9.29032258 L13.9354839,11.0322581 L12.1935484,11.0322581 L12.1935484,9.29032258 Z M12.1935484,8.70967742 L12.1935484,6.96774194 L13.9354839,6.96774194 L13.9354839,8.70967742 L12.1935484,8.70967742 Z M2.03225806,6.96774194 L6.96774194,6.96774194 L6.96774194,8.70967742 L1.74193548,8.70967742 L1.74193548,7.25806452 C1.74193548,7.09780645 1.872,6.96774194 2.03225806,6.96774194 Z M0.870967742,9.87096774 C0.710709677,9.87096774 0.580645161,9.74090323 0.580645161,9.58064516 L0.580645161,8.41935484 C0.580645161,8.25909677 0.710709677,8.12903226 0.870967742,8.12903226 L1.16129032,8.12903226 L1.16129032,9.87096774 L0.870967742,9.87096774 Z M1.74193548,10.7419355 L1.74193548,9.29032258 L4.06451613,9.29032258 L4.06451613,11.0322581 L2.03225806,11.0322581 C1.872,11.0322581 1.74193548,10.9021935 1.74193548,10.7419355 Z M15.9677419,11.0322581 L14.516129,11.0322581 L14.516129,9.29032258 L16.2580645,9.29032258 L16.2580645,10.7419355 C16.2580645,10.9021935 16.128,11.0322581 15.9677419,11.0322581 Z M17.4193548,9.58064516 C17.4193548,9.74090323 17.2892903,9.87096774 17.1290323,9.87096774 L16.8387097,9.87096774 L16.8387097,8.12903226 L17.1290323,8.12903226 C17.2892903,8.12903226 17.4193548,8.25909677 17.4193548,8.41935484 L17.4193548,9.58064516 Z" id="Shape"></path>
                <polygon id="Path" points="2.32258065 7.5483871 2.90322581 7.5483871 2.90322581 8.12903226 2.32258065 8.12903226"></polygon>
                <polygon id="Path" points="4.64516129 7.5483871 5.22580645 7.5483871 5.22580645 8.12903226 4.64516129 8.12903226"></polygon>
                <polygon id="Path" points="5.80645161 7.5483871 6.38709677 7.5483871 6.38709677 8.12903226 5.80645161 8.12903226"></polygon>
                <polygon id="Path" points="3.48387097 7.5483871 4.06451613 7.5483871 4.06451613 8.12903226 3.48387097 8.12903226"></polygon>
                <polygon id="Path" points="8.12903226 7.5483871 8.70967742 7.5483871 8.70967742 8.12903226 8.12903226 8.12903226"></polygon>
                <polygon id="Path" points="10.4516129 7.5483871 11.0322581 7.5483871 11.0322581 8.12903226 10.4516129 8.12903226"></polygon>
                <polygon id="Path" points="12.7741935 7.5483871 13.3548387 7.5483871 13.3548387 8.12903226 12.7741935 8.12903226"></polygon>
                <polygon id="Path" points="15.0967742 7.5483871 15.6774194 7.5483871 15.6774194 8.12903226 15.0967742 8.12903226"></polygon>
                <path d="M17.1290323,1.16129032 L16.8387097,1.16129032 L16.8387097,0.870967742 C16.8387097,0.390774194 16.4479355,0 15.9677419,0 L2.03225806,0 C1.55206452,0 1.16129032,0.390774194 1.16129032,0.870967742 L1.16129032,1.16129032 L0.870967742,1.16129032 C0.390774194,1.16129032 0,1.55206452 0,2.03225806 L0,3.19354839 C0,3.67374194 0.390774194,4.06451613 0.870967742,4.06451613 L1.16129032,4.06451613 L1.16129032,4.35483871 C1.16129032,4.83503226 1.55206452,5.22580645 2.03225806,5.22580645 L15.9677419,5.22580645 C16.4479355,5.22580645 16.8387097,4.83503226 16.8387097,4.35483871 L16.8387097,4.06451613 L17.1290323,4.06451613 C17.6092258,4.06451613 18,3.67374194 18,3.19354839 L18,2.03225806 C18,1.55206452 17.6092258,1.16129032 17.1290323,1.16129032 Z M16.2580645,0.870967742 L16.2580645,2.32258065 L14.516129,2.32258065 L14.516129,0.580645161 L15.9677419,0.580645161 C16.128,0.580645161 16.2580645,0.710709677 16.2580645,0.870967742 Z M6.96774194,2.90322581 L6.96774194,4.64516129 L4.64516129,4.64516129 L4.64516129,2.90322581 L6.96774194,2.90322581 Z M7.5483871,2.90322581 L9.29032258,2.90322581 L9.29032258,4.64516129 L7.5483871,4.64516129 L7.5483871,2.90322581 Z M9.29032258,2.32258065 L7.5483871,2.32258065 L7.5483871,0.580645161 L9.29032258,0.580645161 L9.29032258,2.32258065 Z M9.87096774,0.580645161 L11.6129032,0.580645161 L11.6129032,2.32258065 L9.87096774,2.32258065 L9.87096774,0.580645161 Z M9.87096774,2.90322581 L11.6129032,2.90322581 L11.6129032,4.64516129 L9.87096774,4.64516129 L9.87096774,2.90322581 Z M12.1935484,2.90322581 L13.9354839,2.90322581 L13.9354839,4.64516129 L12.1935484,4.64516129 L12.1935484,2.90322581 Z M12.1935484,2.32258065 L12.1935484,0.580645161 L13.9354839,0.580645161 L13.9354839,2.32258065 L12.1935484,2.32258065 Z M2.03225806,0.580645161 L6.96774194,0.580645161 L6.96774194,2.32258065 L1.74193548,2.32258065 L1.74193548,0.870967742 C1.74193548,0.710709677 1.872,0.580645161 2.03225806,0.580645161 Z M0.870967742,3.48387097 C0.710709677,3.48387097 0.580645161,3.35380645 0.580645161,3.19354839 L0.580645161,2.03225806 C0.580645161,1.872 0.710709677,1.74193548 0.870967742,1.74193548 L1.16129032,1.74193548 L1.16129032,3.48387097 L0.870967742,3.48387097 Z M1.74193548,4.35483871 L1.74193548,2.90322581 L4.06451613,2.90322581 L4.06451613,4.64516129 L2.03225806,4.64516129 C1.872,4.64516129 1.74193548,4.51509677 1.74193548,4.35483871 Z M15.9677419,4.64516129 L14.516129,4.64516129 L14.516129,2.90322581 L16.2580645,2.90322581 L16.2580645,4.35483871 C16.2580645,4.51509677 16.128,4.64516129 15.9677419,4.64516129 Z M17.4193548,3.19354839 C17.4193548,3.35380645 17.2892903,3.48387097 17.1290323,3.48387097 L16.8387097,3.48387097 L16.8387097,1.74193548 L17.1290323,1.74193548 C17.2892903,1.74193548 17.4193548,1.872 17.4193548,2.03225806 L17.4193548,3.19354839 Z" id="Shape"></path>
                <polygon id="Path" points="5.80645161 1.16129032 6.38709677 1.16129032 6.38709677 1.74193548 5.80645161 1.74193548"></polygon>
                <polygon id="Path" points="2.32258065 1.16129032 2.90322581 1.16129032 2.90322581 1.74193548 2.32258065 1.74193548"></polygon>
                <polygon id="Path" points="3.48387097 1.16129032 4.06451613 1.16129032 4.06451613 1.74193548 3.48387097 1.74193548"></polygon>
                <polygon id="Path" points="4.64516129 1.16129032 5.22580645 1.16129032 5.22580645 1.74193548 4.64516129 1.74193548"></polygon>
                <polygon id="Path" points="8.12903226 1.16129032 8.70967742 1.16129032 8.70967742 1.74193548 8.12903226 1.74193548"></polygon>
                <polygon id="Path" points="10.4516129 1.16129032 11.0322581 1.16129032 11.0322581 1.74193548 10.4516129 1.74193548"></polygon>
                <polygon id="Path" points="12.7741935 1.16129032 13.3548387 1.16129032 13.3548387 1.74193548 12.7741935 1.74193548"></polygon>
                <polygon id="Path" points="15.0967742 1.16129032 15.6774194 1.16129032 15.6774194 1.74193548 15.0967742 1.74193548"></polygon>
            </g>
        </g>
    </g>
</svg>