<?xml version="1.0" encoding="UTF-8"?>
<svg width="18px" height="20px" viewBox="0 0 18 20" version="1.1" xmlns="http://www.w3.org/2000/svg" xmlns:xlink="http://www.w3.org/1999/xlink">
    <title>iconfinder_power-off_1608429</title>
    <g id="Symbols" stroke="none" stroke-width="1" fill="none" fill-rule="evenodd" opacity="0.87">
        <g id="Icon/disconnector" transform="translate(-3.000000, -3.000000)" fill="#000000" fill-rule="nonzero">
            <g id="iconfinder_power-off_1608429" transform="translate(3.000000, 3.000000)">
                <path d="M18,10.5 C18,11.71875 17.7617188,12.8828125 17.2851562,13.9921875 C16.8085938,15.1015625 16.1679688,16.0585938 15.3632812,16.8632812 C14.5585938,17.6679688 13.6015625,18.3085938 12.4921875,18.7851562 C11.3828125,19.2617188 10.21875,19.5 9,19.5 C7.78125,19.5 6.6171875,19.2617188 5.5078125,18.7851562 C4.3984375,18.3085938 3.44140625,17.6679688 2.63671875,16.8632812 C1.83203125,16.0585938 1.19140625,15.1015625 0.71484375,13.9921875 C0.23828125,12.8828125 0,11.71875 0,10.5 C0,9.078125 0.314453125,7.73828125 0.943359375,6.48046875 C1.57226563,5.22265625 2.45703125,4.16796875 3.59765625,3.31640625 C3.93359375,3.06640625 4.30664062,2.96875 4.71679688,3.0234375 C5.12695312,3.078125 5.453125,3.2734375 5.6953125,3.609375 C5.9453125,3.9375 6.04101562,4.30664063 5.98242188,4.71679688 C5.92382812,5.12695313 5.73046875,5.45703125 5.40234375,5.70703125 C4.63671875,6.28515625 4.04492188,6.9921875 3.62695312,7.828125 C3.20898438,8.6640625 3,9.5546875 3,10.5 C3,11.3125 3.15820312,12.0878906 3.47460938,12.8261719 C3.79101562,13.5644531 4.21875,14.203125 4.7578125,14.7421875 C5.296875,15.28125 5.93554688,15.7089844 6.67382812,16.0253906 C7.41210938,16.3417969 8.1875,16.5 9,16.5 C9.8125,16.5 10.5878906,16.3417969 11.3261719,16.0253906 C12.0644531,15.7089844 12.703125,15.28125 13.2421875,14.7421875 C13.78125,14.203125 14.2089844,13.5644531 14.5253906,12.8261719 C14.8417969,12.0878906 15,11.3125 15,10.5 C15,9.5546875 14.7910156,8.6640625 14.3730469,7.828125 C13.9550781,6.9921875 13.3632812,6.28515625 12.5976562,5.70703125 C12.2695312,5.45703125 12.0761719,5.12695313 12.0175781,4.71679688 C11.9589844,4.30664063 12.0546875,3.9375 12.3046875,3.609375 C12.546875,3.2734375 12.875,3.078125 13.2890625,3.0234375 C13.703125,2.96875 14.0742188,3.06640625 14.4023438,3.31640625 C15.5429688,4.16796875 16.4277344,5.22265625 17.0566406,6.48046875 C17.6855469,7.73828125 18,9.078125 18,10.5 Z M10.5,1.5 L10.5,9 C10.5,9.40625 10.3515625,9.7578125 10.0546875,10.0546875 C9.7578125,10.3515625 9.40625,10.5 9,10.5 C8.59375,10.5 8.2421875,10.3515625 7.9453125,10.0546875 C7.6484375,9.7578125 7.5,9.40625 7.5,9 L7.5,1.5 C7.5,1.09375 7.6484375,0.7421875 7.9453125,0.4453125 C8.2421875,0.1484375 8.59375,0 9,0 C9.40625,0 9.7578125,0.1484375 10.0546875,0.4453125 C10.3515625,0.7421875 10.5,1.09375 10.5,1.5 Z" id="Shape"></path>
            </g>
        </g>
    </g>
</svg>