<?xml version="1.0" encoding="UTF-8"?>
<svg width="18px" height="21px" viewBox="0 0 18 21" version="1.1" xmlns="http://www.w3.org/2000/svg" xmlns:xlink="http://www.w3.org/1999/xlink">
    <title>Combined Shape</title>
    <g id="Symbols" stroke="none" stroke-width="1" fill="none" fill-rule="evenodd" fill-opacity="0.87">
        <g id="Icon/smartmeter" transform="translate(-3.000000, -2.000000)" fill="#000000" fill-rule="nonzero">
            <path d="M20,2 C20.5522847,2 21,2.44771525 21,3 L21,19 C21,19.5522847 20.5522847,20 20,20 L19,20 L19,20.812222 C19,21.8665838 18.1841222,22.7303871 17.1492623,22.8067363 L17,22.812222 L7,22.812222 C5.9456382,22.812222 5.08183488,21.9963442 5.00548574,20.9614844 L5,20.812222 L5,20 L4,20 C3.44771525,20 3,19.5522847 3,19 L3,3 C3,2.44771525 3.44771525,2 4,2 L20,2 Z M17,20 L7,20 L7,21.1755078 L17,21.1755078 L17,20 Z M19,3.999 L5,3.999 L5,18 L19,18 L19,3.999 Z M12,13.5 C12.8275681,13.5 13.5000638,14.1724956 13.5,15 C13.5,15.8275192 12.8275192,16.5 12,16.5 C11.1724694,16.5 10.5,15.8275503 10.5,15 C10.5,14.1724497 11.1724694,13.5 12,13.5 Z M8,13.5 C8.82756814,13.5 9.50006378,14.1724956 9.5,15 C9.5,15.8275192 8.82751922,16.5 8,16.5 C7.17246939,16.5 6.5,15.8275503 6.5,15 C6.5,14.1724497 7.17246939,13.5 8,13.5 Z M16,13.5 C16.8275681,13.5 17.5000638,14.1724956 17.5,15 C17.5,15.8275192 16.8275192,16.5 16,16.5 C15.1724694,16.5 14.5,15.8275503 14.5,15 C14.5,14.1724497 15.1724694,13.5 16,13.5 Z M12,14.5 C11.7247476,14.5 11.5,14.724741 11.5,15 C11.5,15.275259 11.7247476,15.5 12,15.5 C12.2752345,15.5 12.5,15.2752345 12.5,14.9999615 C12.5000212,14.7247507 12.2752705,14.5 12,14.5 Z M8,14.5 C7.72474758,14.5 7.5,14.724741 7.5,15 C7.5,15.275259 7.72474758,15.5 8,15.5 C8.27523447,15.5 8.5,15.2752345 8.5,14.9999615 C8.50002121,14.7247507 8.27527055,14.5 8,14.5 Z M16,14.5 C15.7247476,14.5 15.5,14.724741 15.5,15 C15.5,15.275259 15.7247476,15.5 16,15.5 C16.2752345,15.5 16.5,15.2752345 16.5,14.9999615 C16.5000212,14.7247507 16.2752705,14.5 16,14.5 Z M16.5,6 C17.0522847,6 17.5,6.44771525 17.5,7 L17.5,10 C17.5,10.5522847 17.0522847,11 16.5,11 L7.5,11 C6.94771525,11 6.5,10.5522847 6.5,10 L6.5,7 C6.5,6.44771525 6.94771525,6 7.5,6 L16.5,6 Z M16,7.32133439 L8,7.32133439 L8,9.69237309 L16,9.69237309 L16,7.32133439 Z" id="Combined-Shape"></path>
        </g>
    </g>
</svg>