<?xml version="1.0" encoding="UTF-8"?>
<svg width="18px" height="18px" viewBox="0 0 18 18" version="1.1" xmlns="http://www.w3.org/2000/svg" xmlns:xlink="http://www.w3.org/1999/xlink">
    <title>Combined Shape</title>
    <g id="Symbols" stroke="none" stroke-width="1" fill="none" fill-rule="evenodd" fill-opacity="0.87">
        <g id="Icon/meter" transform="translate(-3.000000, -3.000000)" fill="#000000" fill-rule="nonzero">
            <path d="M4.4626762,5.80989433 C8.25879915,2.05044189 14.379279,2.06529448 18.1571112,5.84312666 C21.9349434,9.62095885 21.949796,15.7414387 18.1884582,19.5394565 L18.1884582,19.5394565 L17.0174407,20.7108233 L17.0174407,20.7108233 C16.6269164,21.1015585 15.9937515,21.1015585 15.6033326,20.7109288 L15.6033326,20.7109288 L15.5912485,20.6988446 C15.2008708,20.3082561 15.2008236,19.6751724 15.591143,19.2845256 L15.591143,19.2845256 L16.7621006,18.1132187 C19.7651714,15.1101479 19.7651714,10.2412081 16.7621006,7.23813732 C13.7590298,4.23506651 8.89008999,4.23506651 5.88695926,7.23819723 L5.88695926,7.23819723 L4.71571228,8.4090949 C4.32506548,8.79941428 3.69198184,8.79936707 3.30139326,8.40898943 L3.30139326,8.40898943 L3.2893091,8.39690527 L3.2893091,8.39690527 L3.20592057,8.30268536 C2.9009557,7.91034853 2.92877878,7.34312929 3.28941622,6.98279885 L3.28941622,6.98279885 Z M7.9057512,11.1502634 C8.9263312,10.1321629 10.57839,10.1321629 11.6000428,11.151335 L11.6000428,11.151335 L12.8499745,12.4015629 C13.868075,13.4221429 13.868075,15.0742017 12.8489978,16.0957596 L12.8489978,16.0957596 L9.09703092,19.8477257 C8.60714504,20.3385735 7.9421396,20.6144099 7.24865582,20.6144099 C6.55517205,20.6144099 5.8901666,20.3385735 5.40106851,19.8485142 L5.40106851,19.8485142 L4.15251222,18.5999572 C3.66166441,18.1100713 3.38582797,17.4450658 3.38582797,16.7515821 C3.38582797,16.0580983 3.66166441,15.3930928 4.15251222,14.903207 L4.15251222,14.903207 Z M6.47003766,8.52645369 C8.96829881,6.02819254 13.0187804,6.02819254 15.5170416,8.52645369 C18.0153027,11.0247148 18.0153027,15.0751965 15.5170416,17.5734576 L15.5170416,17.5734576 L13.4975506,19.5929486 C13.1381798,19.9523195 12.5555245,19.9523195 12.1961536,19.5929486 L12.1961536,19.5929486 L12.1137953,19.4987093 C11.8392792,19.1380163 11.8667337,18.6209748 12.196157,18.291555 L12.196157,18.291555 L14.212329,16.2754038 C15.9667774,14.4916347 15.9549079,11.6269264 14.1857384,9.85775688 C12.4165689,8.08858739 9.55186055,8.07671789 7.77143466,9.82785069 L7.77143466,9.82785069 L5.75194369,11.8473417 C5.39257283,12.2067125 4.80991754,12.2067125 4.45054669,11.8473417 C4.09117583,11.4879708 4.09117583,10.9053155 4.45054669,10.5459447 L4.45054669,10.5459447 Z M9.99379437,12.7593483 C9.86035929,12.6262374 9.64436191,12.6262374 9.51187315,12.7584032 L9.51187315,12.7584032 L5.75882353,16.5111578 C5.69442116,16.5754346 5.65865505,16.661662 5.65865505,16.7515821 C5.65865505,16.8415021 5.69442116,16.9277295 5.75885511,16.9920379 L5.75885511,16.9920379 L7.00898774,18.2421713 C7.0725084,18.3058167 7.1587358,18.3415828 7.24865582,18.3415828 C7.33857584,18.3415828 7.42480324,18.3058167 7.48911169,18.2413828 L7.48911169,18.2413828 L11.2408896,14.4896061 C11.3740005,14.356171 11.3740005,14.1401736 11.2417714,14.0076215 L11.2417714,14.0076215 Z" id="Combined-Shape"></path>
        </g>
    </g>
</svg>