<?xml version="1.0" encoding="UTF-8"?>
<svg width="24px" height="19px" viewBox="0 0 24 19" version="1.1" xmlns="http://www.w3.org/2000/svg" xmlns:xlink="http://www.w3.org/1999/xlink">
    <title>Combined Shape</title>
    <g id="Page-1" stroke="none" stroke-width="1" fill="none" fill-rule="evenodd" opacity="0.87">
        <path d="M19.5441045,0.632886738 C19.8364067,0.430392661 20.2405433,0.459320386 20.5008928,0.719669914 C20.7937861,1.01256313 20.7937861,1.48743687 20.5008928,1.78033009 L20.5008928,1.78033009 L17.7965541,4.48308386 C18.4057631,4.76183498 19.0107269,5.0798185 19.6103558,5.43356684 C21.1245175,6.32683964 22.4303782,7.33830262 23.4677902,8.29916668 L23.7709001,8.58573915 L23.780137,8.59481135 L23.789216,8.60404166 C24.0771184,8.90184205 24.0690945,9.37664799 23.7712941,9.66455041 C22.691384,10.7085676 21.2787331,11.8344233 19.6135131,12.8169895 C17.1429299,14.2747617 14.5797821,15.125 12.0000007,15.125 C10.6116512,15.125 9.2274831,14.8780995 7.85943984,14.4222836 L3.53033009,18.7508928 L3.42645825,18.837676 C3.13415604,19.0401701 2.73001944,19.0112424 2.46966991,18.7508928 C2.1767767,18.4579996 2.1767767,17.9831259 2.46966991,17.6902327 L2.46966991,17.6902327 L6.33421678,13.8262224 C5.6807564,13.5335658 5.03208819,13.1955755 4.3895537,12.8165183 C2.87532339,11.9232122 1.56920348,10.9115002 0.532060344,9.95073937 L0.229047574,9.66420902 L0.219782898,9.65510726 L0.210677217,9.64584644 C-0.0771633969,9.34798631 -0.0690409758,8.87318204 0.228819152,8.58534143 C1.31004953,7.54048183 2.72148459,6.4156076 4.38638072,5.43318597 C6.85689817,3.97538343 9.41999599,3.125 12.0000007,3.125 C13.4364253,3.125 14.8683982,3.38933029 16.2826961,3.87591419 L19.4402327,0.719669914 Z M16.6571051,5.62267279 L16.2451277,6.03546079 C16.8770966,6.90231798 17.2500007,7.97011078 17.2500007,9.125 C17.2500007,10.6918794 16.5635843,12.0984376 15.4750521,13.0603743 C16.606634,12.7036322 17.7358314,12.1832639 18.8512401,11.5251149 C19.9078858,10.9016392 20.8584119,10.2139348 21.6734948,9.53305361 L22.014438,9.24187229 L22.0203014,9.23626825 C22.0836054,9.16602077 22.0782385,9.06689009 22.0137864,9.00905835 C21.3615723,8.44012753 20.6110968,7.85927073 19.7797019,7.30846898 L19.3573415,7.03576704 L18.8481848,6.72550158 C18.1224453,6.29735488 17.3910648,5.9274987 16.6571051,5.62267279 Z M15.1394694,7.14153474 L10.0165354,12.2644687 C10.5903488,12.6277551 11.2706146,12.8380643 12.0000007,12.8380643 C14.0506695,12.8380643 15.713065,11.1756688 15.713065,9.125 C15.713065,8.39561391 15.5027558,7.71534816 15.1394694,7.14153474 Z M8.52494925,5.18962569 L8.36407119,5.24045277 C7.28610518,5.59619185 6.21113561,6.09811138 5.14868051,6.72504471 C4.09222147,7.34843989 3.14226191,8.0357091 2.32708075,8.71662019 L1.98605158,9.0078452 L1.97961047,9.01388599 C1.92875399,9.07014574 1.92192702,9.14438833 1.95396181,9.20126596 L1.98519374,9.24011595 C2.63804768,9.80968255 3.38869014,10.3907114 4.22015361,10.9415756 L4.64254187,11.2143013 L5.15172016,11.5245809 C5.92221703,11.9791283 6.69908545,12.3679726 7.47866162,12.6830477 L7.83616545,12.3234558 C7.1549272,11.4373344 6.75000069,10.328455 6.75000069,9.125 C6.75000069,7.55812062 7.43641703,6.15156236 8.52494925,5.18962569 Z M12.0000007,5.4119357 C9.9493319,5.4119357 8.28693639,7.07433121 8.28693639,9.125 C8.28693639,9.90367478 8.52662949,10.6263662 8.93625788,11.2233166 L14.0983172,6.06125719 C13.5013669,5.65162881 12.7786755,5.4119357 12.0000007,5.4119357 Z" id="Combined-Shape" fill="#FFFFFF" fill-rule="nonzero"></path>
    </g>
</svg>