<?xml version="1.0" encoding="UTF-8"?>
<svg width="20px" height="20px" viewBox="0 0 20 20" version="1.1" xmlns="http://www.w3.org/2000/svg" xmlns:xlink="http://www.w3.org/1999/xlink">
    <title>Combined Shape</title>
    <g id="Page-1" stroke="none" stroke-width="1" fill="none" fill-rule="evenodd">
        <path d="M19.1304297,0 C19.61,0 20,0.39 20,0.869570312 L20,0.869570312 L20,19.1304297 C20,19.61 19.61,20 19.1304297,20 L19.1304297,20 L0.869140625,20 C0.39,20 0,19.61 0,19.1304297 L0,19.1304297 L0,0.869570312 C0,0.39 0.39,0 0.869570312,0 L0.869570312,0 Z M6,14 L2,14 L2,18 L6,18 L6,14 Z M12,14 L8,14 L8,18 L12,18 L12,14 Z M18,14 L14,14 L14,18 L18,18 L18,14 Z M6,8 L2,8 L2,12 L6,12 L6,8 Z M12,8 L8,8 L8,12 L12,12 L12,8 Z M18,8 L14,8 L14,12 L18,12 L18,8 Z M18,2 L2,2 L2,6 L18,6 L18,2 Z" id="Combined-Shape" fill="#666666" fill-rule="nonzero"></path>
    </g>
</svg>