<?xml version="1.0" encoding="UTF-8"?>
<svg width="24px" height="13px" viewBox="0 0 24 13" version="1.1" xmlns="http://www.w3.org/2000/svg" xmlns:xlink="http://www.w3.org/1999/xlink">
    <title>Combined Shape</title>
    <g id="Page-1" stroke="none" stroke-width="1" fill="none" fill-rule="evenodd" opacity="0.87">
        <path d="M12.0000007,0.25 C14.576547,0.25 17.1387706,1.10046645 19.6103558,2.55856684 C21.2759337,3.54116692 22.6894674,4.66677712 23.7709001,5.71073915 L23.7709001,5.71073915 L23.780137,5.71981135 L23.780137,5.71981135 L23.789216,5.72904166 C24.0771184,6.02684205 24.0690945,6.50164799 23.7712941,6.78955041 C22.691384,7.83356765 21.2787331,8.9594233 19.6135131,9.94198949 C17.1429299,11.3997617 14.5797821,12.25 12.0000007,12.25 C9.42333246,12.25 6.86106706,11.3995646 4.3895537,9.94151827 C2.72390035,8.95888158 1.3100606,7.83297371 0.229047574,6.78920902 L0.229047574,6.78920902 L0.219782898,6.78010726 L0.219782898,6.78010726 L0.210677217,6.77084644 C-0.0771633969,6.47298631 -0.0690409758,5.99818204 0.228819152,5.71034143 C1.31004953,4.66548183 2.72148459,3.5406076 4.38638072,2.55818597 C6.85689817,1.10038343 9.41999599,0.25 12.0000007,0.25 Z M15.4764928,2.31502606 L15.5671117,2.39792635 C16.6021427,3.35684565 17.2500007,4.72776516 17.2500007,6.25 C17.2500007,7.81687938 16.5635843,9.22343764 15.4750521,10.1853743 C16.606634,9.82863224 17.7358314,9.30826393 18.8512401,8.65011493 C20.0588352,7.93757121 21.1278251,7.14113701 22.014438,6.36687229 L22.014438,6.36687229 L22.0203014,6.36126825 C22.0836054,6.29102077 22.0782385,6.19189009 22.0137864,6.13405835 C21.25287,5.47030573 20.3582088,4.79032052 19.3573415,4.16076704 L19.3573415,4.16076704 L18.8481848,3.85050158 C17.7338915,3.19312933 16.6062998,2.6731725 15.4764928,2.31502606 Z M8.52494925,2.31462569 L8.36407119,2.36545277 C7.28610518,2.72119185 6.21113561,3.22311138 5.14868051,3.85004471 C3.94129876,4.56249634 2.87301835,5.35837528 1.98605158,6.1328452 L1.98605158,6.1328452 L1.97961047,6.13888599 C1.91603987,6.20921067 1.92126537,6.30763355 1.98519374,6.36511595 L1.98519374,6.36511595 C2.74685667,7.02961032 3.64162064,7.70970602 4.64254187,8.33930125 L4.64254187,8.33930125 L5.15172016,8.64958085 C6.26597717,9.30692641 7.3935594,9.82686283 8.52338591,10.1849954 C7.43557609,9.22171386 6.75000069,7.81591929 6.75000069,6.25 C6.75000069,4.68312062 7.43641703,3.27656236 8.52494925,2.31462569 Z M12.0000007,2.5369357 C9.9493319,2.5369357 8.28693639,4.19933121 8.28693639,6.25 C8.28693639,8.30066879 9.9493319,9.9630643 12.0000007,9.9630643 C14.0506695,9.9630643 15.713065,8.30066879 15.713065,6.25 C15.713065,4.19933121 14.0506695,2.5369357 12.0000007,2.5369357 Z" id="Combined-Shape" fill="#FFFFFF" fill-rule="nonzero"></path>
    </g>
</svg>