<svg xmlns="http://www.w3.org/2000/svg" xmlns:xlink="http://www.w3.org/1999/xlink" width="148" height="49" viewBox="0 0 148 49">
    <defs>
        <path id="at7hamyf3a" d="M0 47.973L147.589 47.973 147.589 0 0 0z"/>
    </defs>
    <g fill="none" fill-rule="evenodd">
        <g>
            <path fill="#FEFEFE" d="M65.589 30.623L63.485 38.25 61.498 38.25 60.451 32.994 60.43 32.994 59.383 38.25 57.364 38.25 55.302 30.623 57.289 30.623 58.368 36.199 58.389 36.199 59.511 30.623 61.38 30.623 62.502 36.199 62.523 36.199 63.602 30.623z"/>
            <g transform="translate(0 .006)">
                <path fill="#FEFEFE" d="M68.794 33.928c-.292 0-.538.103-.737.31-.25.263-.374.655-.374 1.175 0 1.068.367 1.602 1.1 1.602.37 0 .656-.17.855-.512.157-.292.235-.656.235-1.09 0-.406-.078-.74-.235-1.004-.192-.32-.474-.48-.844-.48zm-2.863 6.175V32.7h1.73v.64h.022c.363-.534.872-.8 1.528-.8.819 0 1.449.313 1.89.94.392.555.588 1.26.588 2.115 0 .776-.192 1.424-.577 1.944-.434.577-1.022.865-1.762.865-.677 0-1.204-.253-1.581-.758h-.022v2.457h-1.816zM82.617 33.34H80.63c-.05-.377-.212-.667-.486-.87-.274-.203-.625-.304-1.052-.304-.598 0-1.054.235-1.368.705-.27.406-.405.925-.405 1.56 0 .633.135 1.153.405 1.559.314.47.77.705 1.368.705.947 0 1.46-.47 1.538-1.41h1.987c-.05.968-.397 1.73-1.041 2.286-.645.555-1.459.833-2.441.833-1.133 0-2.055-.384-2.767-1.154-.691-.747-1.036-1.687-1.036-2.82 0-1.132.35-2.078 1.052-2.836.701-.758 1.618-1.138 2.75-1.138.884 0 1.663.25 2.34.748.733.556 1.115 1.268 1.143 2.137M85.106 34.43c0 .634.135 1.154.406 1.56.313.47.769.705 1.367.705s1.054-.235 1.368-.705c.27-.406.406-.926.406-1.56s-.136-1.153-.406-1.56c-.314-.47-.77-.704-1.368-.704-.598 0-1.054.235-1.367.705-.27.406-.406.925-.406 1.56m-1.987 0c0-1.147.327-2.087.983-2.821.683-.77 1.61-1.154 2.777-1.154 1.168 0 2.094.385 2.778 1.154.655.734.983 1.674.983 2.82 0 1.147-.328 2.087-.983 2.82-.684.77-1.61 1.154-2.778 1.154s-2.094-.384-2.777-1.154c-.656-.733-.983-1.673-.983-2.82"/>
                <mask id="ade5yemlhb" fill="#fff">
                    <use xlink:href="#at7hamyf3a"/>
                </mask>
                <path fill="#FEFEFE" d="M91.462 38.244L93.449 38.244 93.449 36.257 91.462 36.257zM94.57 38.244v-1.987h1.988v1.763c0 .683-.232 1.21-.695 1.58-.349.278-.78.446-1.292.503v-.855c.52-.135.812-.47.876-1.004h-.876zM100.766 38.244L100.766 30.617 102.753 30.617 102.753 36.535 106.311 36.535 106.311 38.244zM110.295 32.7v1.175h-1.122v2.52c0 .357.218.535.652.535.05 0 .126-.004.23-.01.103-.008.183-.011.24-.011v1.335c-.085 0-.25.01-.491.032-.214.014-.381.021-.502.021-.77 0-1.286-.135-1.55-.406-.263-.27-.395-.786-.395-1.549v-2.467h-.918V32.7h.918v-1.678h1.816V32.7h1.122zM113.5 33.928c-.385 0-.673.16-.866.48-.163.264-.245.6-.245 1.005 0 .442.082.805.245 1.09.193.341.481.512.866.512.719 0 1.079-.516 1.079-1.549 0-.441-.082-.797-.246-1.068-.185-.313-.463-.47-.833-.47zm2.83-3.311v7.627h-1.73v-.641h-.021c-.364.534-.873.801-1.528.801-.819 0-1.45-.313-1.89-.94-.393-.555-.588-1.26-.588-2.115 0-.776.192-1.424.577-1.944.434-.577 1.021-.866 1.762-.866.677 0 1.204.253 1.581.759h.022v-2.681h1.816zM118.753 35.982L147.095 35.982 147.095 33.85 118.753 33.85z" mask="url(#ade5yemlhb)"/>
                <path fill="#F3C11E" d="M41.877 20.442l4.272-5.62-6.994-.956 1.796-6.827-6.828 1.793-.953-6.994-5.622 4.27L23.991.01l-3.56 6.095-5.62-4.271-.956 6.994L7.03 7.033l1.793 6.827-6.994.954 4.269 5.621L.193 23.88h7.935c.035-8.698 7.095-15.738 15.8-15.738 8.706 0 15.766 7.04 15.802 15.738h8.034l-5.887-3.438z" mask="url(#ade5yemlhb)"/>
                <path fill="#FEFEFE" d="M23.929 8.142c-8.706 0-15.766 7.04-15.801 15.738H39.73c-.036-8.698-7.096-15.738-15.801-15.738" mask="url(#ade5yemlhb)"/>
                <path fill="#79797A" d="M40.94 30.982l-1.677 1.677h-4.026l-1.677-1.677v-3.957l1.676-1.677h4.027l1.677 1.677v3.957zm0 8.78l-1.677 1.677h-4.026l-1.677-1.677v-3.957l1.677-1.677h4.026l1.677 1.677v3.957zm-8.85-8.78l-1.676 1.677h-4.027l-1.676-1.677v-3.957l1.676-1.677h4.027l1.677 1.677v3.957zm0 8.78l-1.676 1.677h-4.027l-1.676-1.677v-3.957l1.676-1.677h4.027l1.677 1.677v3.957zm-8.848-8.78l-1.677 1.677h-4.027l-1.677-1.677v-3.957l1.677-1.677h4.027l1.677 1.677v3.957zm0 8.78l-1.677 1.677h-4.027l-1.677-1.677v-3.957l1.677-1.677h4.027l1.677 1.677v3.957zm-8.85-8.78l-1.676 1.677H8.689l-1.677-1.677v-3.957l1.677-1.677h4.027l1.676 1.677v3.957zm0 8.78l-1.676 1.677H8.689l-1.677-1.677v-3.957l1.677-1.677h4.027l1.676 1.677v3.957zm29.694-14.414h3.848c.025-.447.039-.897.039-1.351l-.002-.117H.001L0 23.997c0 .454.014.904.039 1.351h3.827l1.677 1.677v3.957L3.866 32.66H1.613c.193.498.403.988.627 1.47h1.626l1.677 1.676v3.528l.197.232c.965 1.13 2.033 2.169 3.19 3.103l.3.24h3.486l1.676 1.677v1.4c.482.211.972.407 1.47.586v-1.986l1.676-1.677h4.027l1.677 1.677v3.386c.247.007.495.012.744.012.243 0 .484-.004.725-.011v-3.387l1.676-1.677h4.027l1.677 1.677v1.993c.497-.178.987-.373 1.469-.583v-1.41l1.677-1.677h3.506l.29-.231c1.156-.933 2.225-1.971 3.19-3.1l.186-.22v-3.552l1.677-1.677h1.647c.224-.481.434-.97.627-1.469h-2.274l-1.677-1.677v-3.957l1.677-1.677z" mask="url(#ade5yemlhb)"/>
                <path fill="#F3C11E" d="M55.541 17.52v-.64c0-2.411.506-4.466 1.548-6.28.14-.243.18-.506.11-.742-.066-.228-.23-.42-.463-.541-.239-.124-.493-.16-.734-.103-.25.058-.48.216-.667.458-.723.951-1.278 2.056-1.65 3.282-.374 1.229-.563 2.578-.563 4.01v.472c0 1.432.19 2.782.563 4.01.372 1.227.927 2.331 1.65 3.284.187.24.418.398.667.457.075.017.15.026.226.026.17 0 .343-.043.508-.13.232-.12.397-.312.463-.54.07-.236.03-.5-.11-.742-1.042-1.815-1.548-3.87-1.548-6.281M72.258 18.27h-12.72c-.535 0-.88.406-.88 1.033 0 .628.345 1.033.88 1.033h5.16v4.267c0 .714.603 1.033 1.2 1.033.598 0 1.202-.32 1.202-1.033v-4.267h5.158c.536 0 .882-.405.882-1.033 0-.627-.346-1.032-.882-1.032M60.61 17.346c.136.064.278.097.42.097.127 0 .254-.026.376-.079 1.098-.484 1.956-.868 3-1.399.84-.42 1.296-.76 1.507-1.146.22.36.675.694 1.477 1.096 1.045.53 1.903.914 3.002 1.4.255.109.537.103.794-.017.24-.112.44-.313.562-.565v-.002c.144-.31.168-.645.064-.92-.081-.217-.235-.38-.446-.475-1.088-.47-1.907-.852-2.921-1.36-1.003-.509-1.327-.918-1.329-1.682h3.46c.535 0 .881-.406.881-1.033 0-.627-.346-1.033-.881-1.033H61.22c-.535 0-.881.406-.881 1.033 0 .627.346 1.033.881 1.033h3.46c-.002.764-.326 1.173-1.328 1.682-1.015.508-1.834.89-2.921 1.36-.217.093-.376.26-.459.481-.106.283-.078.629.076.949.12.26.32.465.562.58M76.463 9.672l-.001-.002c-.187-.24-.418-.398-.667-.456-.241-.057-.495-.021-.734.103-.232.12-.397.313-.463.54-.07.237-.03.5.11.742 1.042 1.815 1.548 3.87 1.548 6.282v.639c0 2.412-.506 4.466-1.548 6.28-.14.243-.18.507-.11.743.066.228.23.42.463.54.165.087.338.13.508.13.076 0 .151-.009.226-.026.25-.059.48-.217.668-.458.722-.952 1.277-2.056 1.65-3.282.373-1.23.562-2.579.562-4.011v-.471c0-1.433-.19-2.782-.563-4.011-.372-1.227-.927-2.33-1.65-3.282M94.787 7.9c-.237-.179-.56-.277-.911-.277-.675 0-1.355.36-1.355 1.162v4.472h-3.24c-.32 0-.582.125-.757.363-.153.207-.233.49-.233.819 0 .706.388 1.162.99 1.162h3.24v7.913c0 .804.68 1.163 1.355 1.163.35 0 .674-.099.911-.277.278-.21.425-.516.425-.886V8.785c0-.369-.147-.675-.425-.885" mask="url(#ade5yemlhb)"/>
                <path fill="#F3C11E" d="M90.764 17.864c-.197-.157-.45-.22-.731-.184-1.829.245-3.792.365-6.002.365-.259 0-.318-.06-.318-.318v-6.154c0-.258.06-.318.318-.318h4.73c.601 0 .99-.456.99-1.162 0-.329-.081-.612-.234-.819-.175-.237-.436-.363-.756-.363h-6c-.674 0-1.095.117-1.365.379-.272.264-.393.678-.393 1.341v8.038c0 .663.121 1.077.393 1.341.27.262.691.379 1.366.379 3.231 0 5.65-.123 7.612-.386.566-.078.872-.58.799-1.309-.037-.356-.182-.651-.409-.83M113.162 15.314H98.587c-.31 0-.565.116-.738.336-.152.195-.233.46-.233.77 0 .704.372 1.142.97 1.142h14.576c.598 0 .97-.438.97-1.143 0-.308-.08-.574-.233-.769-.172-.22-.427-.336-.737-.336M111.508 23.775h-9.056c-.125 0-.165-.04-.165-.164v-.289c0-.124.04-.164.165-.164h7.826c.674 0 1.095-.117 1.365-.379.272-.264.393-.678.393-1.341V20.11c0-.663-.121-1.077-.393-1.341-.27-.262-.69-.38-1.365-.38h-9.73c-.627 0-.913.544-.913 1.048 0 .286.077.546.217.733.164.218.404.333.696.333h8.71c.125 0 .165.04.165.165v.288c0 .124-.04.164-.165.164h-7.826c-.674 0-1.095.117-1.365.379-.272.264-.393.678-.393 1.341v1.327c0 .663.121 1.077.393 1.342.27.262.69.378 1.365.378h10.076c.292 0 .532-.115.696-.333.14-.187.217-.447.217-.733 0-.504-.286-1.047-.913-1.047M102.364 11.602h7.02v.587c0 .124-.04.164-.164.164h-6.692c-.124 0-.164-.04-.164-.164v-.587zm-.874 2.922h8.768c.675 0 1.096-.117 1.366-.379.272-.264.393-.678.393-1.34V8.88c0-.352-.146-.646-.423-.852-.236-.175-.554-.272-.893-.272-.34 0-.658.097-.894.272-.277.206-.423.5-.423.852v.568h-7.02v-.568c0-.352-.146-.646-.422-.852-.237-.175-.554-.272-.894-.272-.34 0-.657.097-.894.272-.276.206-.423.5-.423.852v3.923c0 .663.122 1.077.394 1.341.27.262.69.38 1.365.38zM120.68 10.932c.59-.36 1.495-.542 2.692-.542s2.103.183 2.692.542c.517.315.78.764.78 1.334 0 .57-.263 1.018-.78 1.333-.59.36-1.495.542-2.692.542s-2.103-.182-2.692-.542c-.517-.315-.78-.764-.78-1.333 0-.57.263-1.019.78-1.334m2.692 5.534c3.928 0 6.181-1.53 6.181-4.2s-2.253-4.201-6.181-4.201-6.181 1.531-6.181 4.2c0 2.67 2.253 4.201 6.181 4.201M130.64 17.64h-14.536c-.601 0-.99.457-.99 1.163 0 .312.081.584.234.787.177.233.438.357.756.357h3.26v4.836c0 .37.143.673.415.876.23.173.55.268.901.268.343 0 .657-.095.885-.268.27-.205.412-.507.412-.876v-4.836h2.79v4.836c0 .37.143.673.415.876.23.173.55.268.901.268.343 0 .657-.095.885-.268.27-.205.412-.507.412-.876v-4.836h3.26c.318 0 .58-.124.756-.357.153-.203.234-.475.234-.787 0-.706-.388-1.162-.99-1.162M139.303 18.013c-.597.032-1.191.049-1.809.05v-6.808h1.81v6.758zm4.275-.111c-.2-.157-.456-.22-.744-.183h-.003c-.322.051-.627.087-.933.12v-6.584h.645c.317 0 .578-.123.755-.356.153-.203.234-.475.234-.787 0-.312-.08-.584-.234-.786-.177-.234-.438-.357-.755-.357h-8.422c-.318 0-.58.123-.756.357-.153.202-.234.474-.234.786 0 .312.081.584.234.787.177.233.438.356.756.356h.779v6.828h-.895c-.317 0-.578.123-.755.357-.153.203-.234.475-.234.786 0 .312.08.584.234.787.177.233.438.357.755.357 4.071 0 6.738-.062 9.17-.386.3-.041.532-.201.67-.462.117-.222.162-.508.129-.828-.036-.338-.177-.62-.396-.792zM147.16 7.9c-.242-.179-.577-.277-.945-.277-.674 0-1.355.36-1.355 1.162v14.73c0 .803.68 1.162 1.355 1.162.368 0 .703-.098.944-.277.282-.208.43-.514.43-.886V8.785c0-.371-.148-.677-.43-.886" mask="url(#ade5yemlhb)"/>
                <path fill="#3C3936" d="M61.634 38.078h1.725l2.013-7.296h-1.633l-1.053 5.442c-.015.078-.083.135-.163.135h-.02c-.08 0-.148-.056-.163-.133l-1.095-5.444h-1.598l-1.095 5.444c-.016.077-.084.133-.163.133h-.021c-.08 0-.148-.057-.163-.135l-1.053-5.442h-1.634l1.973 7.296h1.756l1.02-5.122c.016-.078.084-.134.163-.134h.021c.08 0 .147.056.163.134l1.02 5.122zm1.85.332h-1.986c-.08 0-.147-.056-.163-.134l-.895-4.493-.895 4.493c-.015.078-.083.134-.162.134h-2.02c-.074 0-.14-.05-.16-.123l-2.06-7.627c-.014-.05-.004-.103.028-.144.03-.041.08-.065.131-.065h1.987c.08 0 .148.056.163.134l.93 4.806.967-4.807c.015-.077.083-.133.162-.133h1.87c.078 0 .146.056.162.133l.967 4.807.93-4.806c.015-.078.083-.134.162-.134h1.987c.052 0 .1.024.132.065s.042.095.028.145l-2.104 7.627c-.02.072-.086.122-.16.122zM68.794 34.094c-.247 0-.45.085-.618.259-.217.23-.327.586-.327 1.06 0 .498.083.87.246 1.108.152.221.377.329.688.329.31 0 .541-.14.71-.428.142-.266.214-.606.214-1.009 0-.374-.07-.683-.211-.92-.162-.268-.391-.4-.702-.4zm-.01 3.087c-.424 0-.747-.159-.962-.472-.205-.298-.305-.722-.305-1.296 0-.561.141-.995.42-1.289.232-.24.52-.362.857-.362.43 0 .763.19.986.562.172.289.259.655.259 1.089 0 .46-.086.853-.255 1.168 0 .002-.002.003-.003.005-.23.395-.566.595-.998.595zm-2.687 2.756h1.485v-2.291c0-.092.074-.166.165-.166h.022c.052 0 .101.025.132.067.348.465.821.691 1.449.691.691 0 1.225-.261 1.63-.799.36-.487.543-1.108.543-1.844 0-.816-.187-1.495-.557-2.02-.412-.585-.987-.87-1.755-.87-.603 0-1.057.238-1.39.729-.032.045-.083.072-.138.072h-.021c-.092 0-.166-.074-.166-.165v-.476h-1.4v7.072zm1.65.331h-1.816c-.091 0-.166-.074-.166-.165V32.7c0-.092.075-.166.166-.166h1.73c.092 0 .166.074.166.166v.21c.365-.357.828-.536 1.384-.536.872 0 1.553.34 2.026 1.01.41.582.618 1.325.618 2.21 0 .81-.205 1.497-.61 2.043-.466.62-1.103.933-1.895.933-.577 0-1.059-.174-1.437-.518v2.05c0 .092-.074.166-.166.166zM79.135 30.622c-1.08 0-1.964.365-2.63 1.085-.669.723-1.008 1.64-1.008 2.723 0 1.084.334 1.995.992 2.708.676.73 1.566 1.1 2.646 1.1.937 0 1.722-.266 2.332-.793.567-.488.894-1.159.972-1.994h-1.66c-.062.437-.223.777-.48 1.014-.287.262-.693.396-1.207.396-.655 0-1.16-.262-1.505-.78-.288-.43-.434-.986-.434-1.65 0-.665.146-1.22.434-1.652.344-.517.85-.78 1.505-.78.461 0 .849.114 1.15.338.275.203.452.484.528.838h1.67c-.067-.744-.417-1.347-1.065-1.838-.645-.474-1.398-.715-2.24-.715m0 7.948c-1.176 0-2.147-.406-2.889-1.207-.717-.776-1.08-1.763-1.08-2.933s.369-2.162 1.096-2.948c.73-.79 1.697-1.191 2.873-1.191.914 0 1.735.262 2.437.78l.002.001c.772.585 1.179 1.346 1.209 2.263.001.045-.016.089-.047.12-.031.033-.074.051-.119.051H80.63c-.083 0-.153-.061-.164-.144-.044-.334-.182-.582-.42-.759-.244-.18-.565-.272-.954-.272-.544 0-.947.207-1.23.631-.25.377-.378.87-.378 1.468s.127 1.092.378 1.468c.283.425.686.631 1.23.631.865 0 1.301-.4 1.373-1.258.007-.086.079-.152.165-.152h1.987c.045 0 .089.019.12.052s.048.077.046.122c-.053 1.011-.422 1.82-1.1 2.403-.672.58-1.53.874-2.548.874M86.88 32.331c-.545 0-.947.207-1.23.631-.251.377-.378.87-.378 1.468s.127 1.092.378 1.468c.283.425.685.631 1.23.631.543 0 .945-.206 1.229-.631.25-.376.378-.87.378-1.468 0-.597-.127-1.091-.378-1.468-.284-.424-.686-.63-1.23-.63m0 4.529c-.654 0-1.16-.262-1.505-.78-.288-.43-.434-.986-.434-1.65 0-.665.146-1.22.434-1.652.344-.517.85-.78 1.505-.78.654 0 1.16.263 1.505.78.288.431.434.987.434 1.651s-.146 1.22-.434 1.652c-.344.517-.85.779-1.505.779m0-6.239c-1.113 0-2.006.37-2.653 1.098-.625.7-.941 1.61-.941 2.71 0 1.1.316 2.011.94 2.71.648.729 1.541 1.098 2.654 1.098s2.006-.369 2.654-1.098c.624-.699.94-1.61.94-2.71 0-1.099-.316-2.01-.94-2.71-.648-.729-1.54-1.098-2.654-1.098m0 7.948c-1.212 0-2.188-.407-2.901-1.21-.68-.76-1.025-1.746-1.025-2.93 0-1.183.345-2.169 1.025-2.93.713-.802 1.69-1.21 2.901-1.21 1.212 0 2.188.408 2.902 1.21.68.761 1.024 1.747 1.024 2.93s-.345 2.17-1.025 2.93c-.713.803-1.689 1.21-2.9 1.21M91.628 38.078h1.655v-1.655h-1.655v1.655zm1.821.332h-1.987c-.091 0-.166-.075-.166-.166v-1.987c0-.092.075-.166.166-.166h1.987c.092 0 .166.074.166.166v1.987c0 .091-.074.166-.166.166zM94.736 39.371v.54c.4-.07.744-.217 1.024-.44.425-.34.632-.815.632-1.451v-1.597h-1.656v1.655h.71c.048 0 .093.02.125.056.031.035.046.083.04.13-.036.3-.139.548-.307.74-.143.165-.333.288-.568.367m-.165.897c-.04 0-.08-.015-.11-.042-.036-.031-.056-.076-.056-.123v-.855c0-.075.05-.141.124-.16.387-.101.624-.324.718-.678h-.676c-.092 0-.166-.075-.166-.166v-1.987c0-.092.074-.166.166-.166h1.987c.091 0 .165.074.165.166v1.763c0 .733-.254 1.308-.756 1.71-.373.296-.836.477-1.378.537l-.018.001M100.932 38.078h5.213V36.7h-3.392c-.091 0-.165-.074-.165-.165v-5.753h-1.656v7.296zm5.379.332h-5.545c-.091 0-.165-.075-.165-.166v-7.627c0-.092.074-.166.165-.166h1.987c.092 0 .166.074.166.166v5.752h3.392c.091 0 .165.074.165.166v1.709c0 .091-.074.166-.165.166zM106.604 33.709h.753c.092 0 .166.074.166.166v2.467c0 .714.117 1.197.348 1.434.23.236.711.356 1.43.356.116 0 .28-.007.49-.021.138-.012.25-.021.338-.026V37.08c-.02 0-.04.002-.063.004-.106.007-.187.01-.241.01-.711 0-.817-.438-.817-.7v-2.52c0-.092.074-.166.165-.166h.956v-.844h-.956c-.091 0-.165-.074-.165-.165v-1.512h-1.485V32.7c0 .091-.074.165-.166.165h-.753v.844zm2.698 4.754c-.824 0-1.37-.15-1.668-.456-.298-.306-.442-.85-.442-1.665V34.04h-.753c-.092 0-.166-.074-.166-.165V32.7c0-.092.074-.166.166-.166h.753v-1.512c0-.091.074-.165.165-.165h1.816c.092 0 .166.074.166.165v1.512h.956c.092 0 .166.074.166.166v1.175c0 .091-.074.165-.166.165h-.956v2.356c0 .191.059.368.486.368.032 0 .096-.002.218-.01.11-.007.192-.011.252-.011.092 0 .166.074.166.166v1.335c0 .091-.074.166-.166.166-.08 0-.24.01-.477.031h-.003c-.22.015-.389.022-.513.022z" mask="url(#ade5yemlhb)"/>
                <path fill="#3C3936" d="M113.5 34.094c-.325 0-.562.13-.723.4l-.002.002c-.146.236-.22.544-.22.917 0 .41.075.75.223 1.007.163.29.399.43.722.43.304 0 .525-.104.673-.317.16-.228.24-.587.24-1.067 0-.408-.075-.739-.222-.982-.155-.263-.381-.39-.691-.39zm0 3.087c-.447 0-.787-.2-1.01-.597-.177-.307-.267-.702-.267-1.171 0-.435.09-.802.27-1.09.223-.372.562-.56 1.007-.56.43 0 .76.185.976.55.178.295.268.684.268 1.153 0 .557-.098.968-.3 1.257-.21.304-.529.458-.944.458zm-.588-4.476c-.692 0-1.225.262-1.63.8-.36.487-.544 1.108-.544 1.844 0 .816.188 1.495.558 2.02.412.585.986.87 1.755.87.602 0 1.057-.239 1.39-.73.031-.045.083-.072.138-.072h.021c.092 0 .166.074.166.166v.475h1.399v-7.296h-1.485v2.516c0 .091-.074.166-.165.166h-.022c-.052 0-.101-.025-.133-.067-.347-.466-.821-.692-1.448-.692zm.14 5.865c-.873 0-1.555-.34-2.027-1.01-.41-.582-.618-1.326-.618-2.211 0-.809.205-1.496.61-2.043.465-.619 1.103-.932 1.895-.932.577 0 1.058.174 1.437.518v-2.275c0-.092.074-.166.166-.166h1.816c.091 0 .165.074.165.166v7.627c0 .091-.074.166-.165.166H114.6c-.091 0-.166-.075-.166-.166v-.21c-.364.356-.827.536-1.383.536zM118.919 35.816h28.01v-1.8h-28.01v1.8zm28.176.332h-28.342c-.091 0-.165-.074-.165-.166V33.85c0-.091.074-.165.165-.165h28.342c.091 0 .165.074.165.165v2.132c0 .092-.074.166-.165.166z" mask="url(#ade5yemlhb)"/>
            </g>
        </g>
    </g>
</svg>
