<svg xmlns="http://www.w3.org/2000/svg" xmlns:xlink="http://www.w3.org/1999/xlink" width="138" height="23" viewBox="0 0 138 23">
    <defs>
        <path id="prefix__a" d="M0.182 0.235L18.517 0.235 18.517 22.738 0.182 22.738z"/>
        <path id="prefix__c" d="M.24 11.534c0 5.848 4.457 10.655 10.16 11.216l1.513-2.929-1.416-2.742c-2.63-.48-4.622-2.78-4.622-5.545 0-3.115 2.526-5.64 5.643-5.64 3.116 0 5.642 2.525 5.642 5.64 0 2.77-1.998 5.071-4.632 5.547l1.416 2.74-1.522 2.945c5.806-.46 10.374-5.312 10.374-11.232 0-6.225-5.05-11.272-11.278-11.272C5.288.262.239 5.31.239 11.534"/>
    </defs>
    <g fill="none" fill-rule="evenodd">
        <path fill="#FFF" d="M0 .909L0 22.02 15.199 22.02 15.199 17.442 6.101 17.442 6.101 13.669 15.199 13.669 15.199 9.091 6.101 9.091 6.101 5.486 15.199 5.486 15.199.909zM31.065 11.973L23.543.909 17.442.909 17.442 22.02 23.543 22.02 23.543 10.941 31.065 22.02 37.165 22.02 37.165.909 31.065.909z"/>
        <g transform="translate(39.223 .04)">
            <mask id="prefix__b" fill="#fff">
                <use xlink:href="#prefix__a"/>
            </mask>
            <path fill="#FFF" d="M11.434 17.418c-3.276 0-5.932-2.655-5.932-5.931 0-3.276 2.656-5.932 5.932-5.932 1.754 0 3.33.762 4.416 1.973.553-1.782 1.474-3.403 2.667-4.78C16.583 1.177 14.12.234 11.434.234 5.219.235.182 5.273.182 11.487s5.037 11.251 11.252 11.251c2.685 0 5.15-.942 7.083-2.512-1.193-1.377-2.114-2.998-2.667-4.78-1.086 1.21-2.662 1.972-4.416 1.972" mask="url(#prefix__b)"/>
            <path fill="#FFF" d="M57.855 11.835c1.238-1.113 1.856-2.603 1.856-4.47 0-1.629-.538-3.047-1.615-4.253-1.33-1.495-3.38-2.243-6.152-2.243h-9.486V21.98h6.1v-8.105l5.826 8.105h6.107l-5.9-8.66c1.385-.28 2.474-.775 3.264-1.486M52.738 9.58c-.564.483-1.49.725-2.777.725H48.56V5.045h1.402c1.276 0 2.201.242 2.777.725.609.514.913 1.147.913 1.897s-.304 1.388-.913 1.912M68.046 5.447L77.145 5.447 77.145.869 61.946.869 61.946 21.981 77.145 21.981 77.145 17.403 68.046 17.403 68.046 13.629 77.145 13.629 77.145 9.051 68.046 9.051zM97.67 6.824c-.867-1.655-2.18-3.42-3.69-4.3-1.716-1-4.126-1.655-5.59-1.655h-9.005V21.98h9.005c.562 0 2.272-.253 3.184-.573 1.981-.694 3.778-2.165 5.09-3.89 1.444-1.894 2.025-3.905 2.025-6.1 0-1.578-.235-3.1-1.019-4.594m-5.663 8.424c-1.194 1.436-2.727 2.155-5.126 2.155h-1.395V5.447h1.395c2.387 0 3.92.72 5.126 2.156.907 1.085 1.36 2.357 1.36 3.815 0 1.457-.453 2.734-1.36 3.83"/>
        </g>
        <g transform="translate(57.051 .04)">
            <mask id="prefix__d" fill="#fff">
                <use xlink:href="#prefix__c"/>
            </mask>
            <path fill="#FFF" d="M.24 11.534c0 5.848 4.457 10.655 10.16 11.216l1.513-2.929-1.416-2.742c-2.63-.48-4.622-2.78-4.622-5.545 0-3.115 2.526-5.64 5.643-5.64 3.116 0 5.642 2.525 5.642 5.64 0 2.77-1.998 5.071-4.632 5.547l1.416 2.74-1.522 2.945c5.806-.46 10.374-5.312 10.374-11.232 0-6.225-5.05-11.272-11.278-11.272C5.288.262.239 5.31.239 11.534" mask="url(#prefix__d)"/>
        </g>
    </g>
</svg>
