<?xml version="1.0" encoding="utf-8"?>
<!-- Generator: Adobe Illustrator 16.0.0, SVG Export Plug-In . SVG Version: 6.00 Build 0)  -->
<!DOCTYPE svg PUBLIC "-//W3C//DTD SVG 1.1//EN" "http://www.w3.org/Graphics/SVG/1.1/DTD/svg11.dtd">
<svg version="1.1" id="Layer_1" xmlns="http://www.w3.org/2000/svg" xmlns:xlink="http://www.w3.org/1999/xlink" x="0px" y="0px"
	 width="260.912px" height="52.652px" viewBox="0 0 260.912 52.652" enable-background="new 0 0 260.912 52.652"
	 xml:space="preserve">
<path fill="#FFFFFF" d="M145.313,15.958c-2.564,2.271-3.863,5.092-3.863,8.381v16.612c0,3.229,1.28,6.03,3.817,8.333
	c2.486,2.235,5.513,3.368,8.997,3.368h9.22l12.094-10.328h-19.843c-1.042,0-1.838-0.275-2.465-0.824
	c-0.577-0.533-0.842-1.132-0.857-1.899V25.773c0.016-0.811,0.278-1.41,0.816-1.905c0.668-0.588,1.464-0.863,2.506-0.863h23.303
	v19.319v2.282v5.764v2.282H190.1V12.638h-35.815C150.825,12.535,147.809,13.723,145.313,15.958z"/>
<path fill="#FFFFFF" d="M187.726,12.632"/>
<line fill="#FFFFFF" x1="163.483" y1="52.652" x2="175.577" y2="42.324"/>
<g>
	<polygon fill="#FFFFFF" points="51.496,21.162 39.408,31.489 61.209,31.489 61.209,21.162 	"/>
</g>
<g>
	<path fill="#FFFFFF" d="M11.134,38.189v-7.354h19.012l12.466-10.646H11.134v-9.517c0,0,2.406-0.032,3.479-0.027h34.593
		L61.242,0.367L50.438,0H13.751H0c-0.044,0.455-0.068,12.66-0.068,13.132v26.389l0,0c0,7.252,5.879,13.132,13.132,13.132h27.07
		l12.467-10.646H19.077c-0.518-0.009-2.394-0.023-4.192-0.037C12.808,41.954,11.134,40.266,11.134,38.189z"/>
</g>
<g>
	<polygon fill="#FFFFFF" points="129.21,-0.001 100.768,25.83 92.361,34.328 100.768,41.464 121.734,23.666 121.734,52.651 
		132.896,52.651 132.896,-0.001 	"/>
	<polygon fill="#FFFFFF" points="72.325,-0.001 68.639,-0.001 68.639,52.651 79.8,52.651 79.8,23.666 91.44,33.547 98.603,23.865 	
		"/>
</g>
<path fill="#FFFFFF" d="M260.926,12.632l-3.081,0.001L221.123,42.24l34.97-29.607l-2.946,0.001l-36.72,29.606l34.968-29.605
	l-2.946,0.001L211.73,42.24l34.966-29.604l-3.283,0.001L228.43,25.269l-14.983-12.631l-17.513-0.006l23.414,20.293l-23.4,19.728
	h18.801l13.681-11.857l13.681,11.857h18.802l-23.401-19.728L260.926,12.632z M248.466,46.914c0.75,0.636,0.842,1.763,0.206,2.512
	s-1.763,0.841-2.512,0.205l-1.569-1.332l-0.912,1.074l-1.041-0.885l1.668-1.967l2.612,2.217c0.257,0.219,0.644,0.188,0.862-0.069
	c0.218-0.257,0.186-0.644-0.071-0.862l-2.625-2.229l0.757-0.893L248.466,46.914z M241.762,41.218l-2.119,2.497
	c-0.218,0.257-0.187,0.644,0.069,0.861c0.258,0.218,0.645,0.187,0.862-0.07l2.12-2.497l0.893,0.759l-2.12,2.497
	c-0.218,0.257-0.187,0.643,0.07,0.86s0.644,0.187,0.861-0.07l2.119-2.497l0.893,0.758l-2.119,2.497
	c-0.637,0.749-1.763,0.841-2.512,0.205c-0.314-0.266-0.521-0.621-0.597-1.028l-0.019-0.096l-0.098-0.002
	c-0.413-0.01-0.798-0.155-1.112-0.423c-0.749-0.636-0.841-1.762-0.205-2.512l2.12-2.497L241.762,41.218z M238.337,38.311
	l2.101,1.784l-0.757,0.893l-2.006-1.703c-0.316-0.269-0.749-0.371-1.157-0.273l-0.232,0.056l2.907,2.467l-0.758,0.893l-2.907-2.468
	l-0.017,0.239c-0.029,0.425,0.138,0.824,0.458,1.096l1.985,1.686l-0.758,0.892l-2.079-1.766c-1.046-0.888-1.175-2.461-0.287-3.507
	S237.291,37.423,238.337,38.311z"/>
</svg>
