<svg xmlns="http://www.w3.org/2000/svg" xmlns:xlink="http://www.w3.org/1999/xlink" width="94" height="24" viewBox="0 0 94 24">
    <defs>
        <path id="prefix__a" d="M0 0.01L4.77 0.01 4.77 5.702 0 5.702z"/>
    </defs>
    <g fill="none" fill-rule="evenodd">
        <path fill="#FFF" d="M26.673 17.49l1.487-1.86c.43.372 1.272 1.077 2.76 1.077 1.39 0 1.957-.627 1.957-1.448 0-.881-.587-1.253-1.996-2.369-1.194-.978-2.368-1.996-2.368-3.855 0-2.387 1.878-3.602 4.364-3.602 2.016 0 2.994.686 3.524 1.096l-1.292 1.918c-.45-.352-1.175-.84-2.31-.84-1.116 0-1.644.488-1.644 1.31 0 .822.607 1.254 1.781 2.174 1.272.977 2.642 1.956 2.642 3.973 0 2.25-1.604 3.874-4.756 3.874-2.31 0-3.582-.938-4.15-1.447M46.333 11.97c1.938 0 2.819-.997 2.819-2.523 0-1.057-.588-1.664-2.037-1.664h-1.29l-.744 4.188h1.252zm-2.857-6.3h4.09c2.544 0 4.364 1.233 4.364 3.484 0 3.306-2.407 4.911-5.91 4.911H44.69l-.822 4.638h-2.7L43.476 5.67zM58.604 12.93c0-1.311-.47-2.055-1.429-2.055-1.604 0-2.603 2.27-2.603 4.032 0 1.252.47 2.074 1.469 2.074 1.662 0 2.563-2.31 2.563-4.051m-6.614 2.035c0-3.307 2.309-6.047 5.381-6.047 2.427 0 3.797 1.703 3.797 3.973 0 3.444-2.212 6.047-5.363 6.047-2.485 0-3.815-1.8-3.815-3.973M62.264 9.172h2.642l.235 4.54c.019.862 0 1.684 0 1.918h.04l2.974-6.458h2.23l.274 4.443c.06.959.06 1.761.06 1.957h.038l2.857-6.4h2.584l-4.658 9.531h-2.348l-.45-6.556h-.04l-3.229 6.556h-2.25l-.959-9.53zM78.782 13.517c1.937-.196 3.248-.842 3.248-1.84 0-.528-.293-.783-.9-.783-1.194 0-2.015 1.233-2.348 2.623m-2.7 1.604c0-3.56 2.426-6.203 5.478-6.203 1.82 0 2.917.9 2.917 2.465 0 2.33-2.662 3.406-5.832 3.758.059 1.096.45 1.742 1.507 1.742.998 0 1.82-.49 2.427-.998l.997 1.683c-.763.626-1.957 1.37-3.835 1.37-2.407 0-3.66-1.565-3.66-3.817M87.198 9.172h2.446c-.078.705-.313 1.84-.47 2.388h.039c.646-1.233 1.683-2.642 3.131-2.642.45 0 .841.078 1.096.196l-.861 2.446c-.195-.098-.47-.176-.822-.176-1.331 0-2.7 1.272-3.62 6.536l-.137.783h-2.524l1.722-9.53zM37.249 10.875L40.572 10.875 40.181 13.028 36.876 13.028zM21.328 10.934l-.047-.92c.15.005.663.032 1.17-.317.443-.304.546-.705.352-.99-.267-.388-.813-.179-1.505-.082-.723.107-1.356.046-1.846-.667-.517-.752-.205-1.656.581-2.196.72-.493 1.261-.524 1.541-.513l.072.912c-.22.004-.667.06-1.044.319-.355.244-.478.561-.274.858.236.344.662.215 1.27.11.762-.136 1.513-.214 2.071.597.548.8.296 1.72-.68 2.39-.714.49-1.36.526-1.661.5M17.832 4.602l-.685-.614c.108-.102.489-.447.599-1.053.098-.527-.114-.885-.452-.946-.465-.086-.702.448-1.12 1.007-.436.587-.925.994-1.775.837-.898-.164-1.319-1.023-1.147-1.96.158-.858.518-1.264.723-1.454l.699.592c-.152.159-.43.515-.512.964-.078.425.06.736.415.8.409.076.62-.316.974-.821.441-.635.917-1.224 1.884-1.047.953.176 1.428 1.003 1.214 2.168-.156.852-.587 1.334-.817 1.527M10.878 2.615l-.92.052c.004-.148.028-.662-.324-1.169-.304-.442-.705-.542-.99-.346-.387.27-.176.814-.076 1.504.11.723.053 1.356-.658 1.85-.75.52-1.656.211-2.198-.572-.497-.717-.53-1.258-.521-1.539l.912-.075c.006.22.063.667.323 1.042.246.355.564.476.86.27.342-.236.212-.663.104-1.27C7.25 1.603 7.168.85 7.978.29c.797-.552 1.719-.305 2.394.67.491.71.532 1.356.506 1.656M4.561 6.14l-.61.69c-.104-.109-.45-.488-1.057-.597-.528-.093-.883.12-.944.458-.084.465.452.699 1.012 1.117.59.43.999.918.847 1.77-.161.898-1.018 1.323-1.956 1.155-.859-.153-1.267-.513-1.458-.717l.589-.7c.16.152.517.426.967.507.425.076.735-.064.799-.419.073-.409-.32-.618-.827-.969-.637-.44-1.229-.911-1.055-1.881.17-.953.997-1.432 2.163-1.223.852.152 1.336.58 1.53.81"/>
        <g transform="translate(0 13.09)">
            <mask id="prefix__b" fill="#fff">
                <use xlink:href="#prefix__a"/>
            </mask>
            <path fill="#FFF" d="M2.605.015l.057.918C2.512.93 2 .909 1.494 1.26c-.44.309-.539.71-.341.993.27.387.813.173 1.505.07.721-.114 1.356-.06 1.851.649.524.748.22 1.655-.56 2.201-.716.5-1.258.536-1.536.527l-.082-.91c.22-.007.668-.067 1.041-.328.355-.249.474-.567.268-.862-.24-.34-.664-.21-1.27-.097-.762.141-1.512.227-2.078-.58C-.262 2.13-.02 1.207.952.528 1.66.031 2.305-.01 2.605.015" mask="url(#prefix__b)"/>
        </g>
        <path fill="#FFF" d="M6.16 19.404l.692.608c-.108.103-.486.452-.592 1.06-.092.528.123.882.463.942.465.081.697-.456 1.111-1.018.428-.592.915-1.003 1.767-.854.899.156 1.328 1.011 1.162 1.95-.15.86-.505 1.27-.709 1.46l-.703-.585c.152-.16.424-.52.503-.969.074-.426-.067-.735-.422-.797-.41-.07-.618.323-.966.832-.436.64-.905 1.233-1.876 1.063-.953-.166-1.436-.99-1.232-2.158.148-.852.573-1.338.803-1.534M13.134 21.328l.917-.06c-.002.15-.022.662.334 1.166.309.439.712.536.994.338.386-.273.167-.816.063-1.506-.119-.722-.066-1.356.64-1.855.746-.526 1.654-.226 2.203.552.505.712.543 1.253.536 1.533l-.912.085c-.008-.22-.069-.667-.332-1.04-.25-.352-.569-.47-.863-.262-.34.24-.205.665-.091 1.27.145.76.234 1.512-.57 2.08-.791.558-1.716.32-2.399-.648-.499-.707-.545-1.352-.52-1.653M19.416 17.744l.604-.692c.105.107.454.482 1.063.586.53.09.882-.126.94-.466.078-.466-.459-.695-1.023-1.108-.593-.426-1.006-.91-.863-1.762.153-.9 1.007-1.332 1.945-1.173.86.147 1.273.501 1.464.704l-.581.705c-.162-.15-.52-.421-.972-.498-.425-.072-.734.07-.794.425-.07.411.325.617.835.962.642.434 1.236.9 1.072 1.871-.162.956-.984 1.441-2.151 1.243-.854-.143-1.343-.568-1.539-.797M18.546 13.254l.127-.748c.12.032.527.146.998-.042.41-.164.566-.467.462-.73-.145-.362-.62-.292-1.194-.342-.6-.044-1.097-.207-1.36-.869-.278-.698.135-1.367.864-1.658.667-.266 1.109-.193 1.332-.132l-.109.745c-.177-.036-.546-.073-.895.067-.331.13-.488.364-.378.639.127.318.494.294 1 .317.636.03 1.256.104 1.556.858.295.74-.074 1.434-.98 1.796-.662.263-1.188.175-1.423.099M17.512 8.212l-.439-.618c.105-.062.474-.271.673-.737.174-.406.07-.73-.192-.842-.357-.153-.644.233-1.084.606-.454.393-.922.63-1.576.35-.691-.295-.873-1.061-.564-1.782.282-.661.644-.922.844-1.037l.452.602c-.15.1-.437.336-.585.68-.139.329-.085.604.187.72.316.135.557-.143.932-.484.471-.43.959-.816 1.704-.498.733.314.964 1.065.58 1.961-.278.656-.712.965-.932 1.079M13.21 5.387l-.748-.124c.03-.119.142-.527-.047-.997-.166-.41-.47-.565-.733-.46-.36.148-.29.623-.335 1.197-.041.6-.203 1.098-.864 1.365-.697.282-1.368-.13-1.66-.858-.27-.666-.2-1.107-.14-1.33l.746.104c-.035.178-.07.547.07.896.134.33.366.484.642.374.318-.129.29-.495.314-1.002.026-.636.096-1.254.85-1.558.739-.3 1.434.067 1.799.972.266.66.18 1.186.105 1.421M8.173 6.445l-.616.441c-.063-.105-.273-.472-.74-.67-.407-.172-.73-.065-.84.196-.153.359.234.644.608 1.08.397.455.636.92.358 1.576-.292.693-1.056.877-1.779.573-.661-.28-.925-.64-1.042-.84l.601-.456c.102.15.338.436.685.582.328.139.602.083.717-.19.133-.316-.145-.555-.488-.93-.431-.467-.82-.954-.506-1.7.31-.736 1.06-.97 1.959-.591.657.277.969.709 1.083.929M5.369 10.76l-.122.749c-.119-.03-.528-.141-.997.05-.409.168-.563.473-.455.735.148.36.623.287 1.196.33.6.04 1.1.198 1.37.857.284.696-.125 1.37-.85 1.666-.665.272-1.107.204-1.33.145l.101-.747c.178.035.547.068.895-.074.33-.135.483-.369.37-.642-.128-.318-.495-.29-1.002-.31-.636-.025-1.255-.093-1.562-.842-.303-.739.062-1.436.964-1.805.659-.27 1.185-.186 1.422-.112M6.448 15.791l.444.615c-.104.063-.47.274-.666.743-.17.408-.062.732.2.84.358.15.641-.24 1.078-.616.451-.396.916-.638 1.572-.365.695.29.884 1.054.581 1.778-.275.663-.636.927-.835 1.045l-.457-.599c.149-.101.433-.34.578-.687.137-.329.08-.602-.194-.715-.316-.133-.554.147-.926.491-.467.435-.95.826-1.7.513-.736-.306-.974-1.055-.599-1.955.274-.658.705-.972.924-1.088M10.776 18.577l.749.117c-.03.12-.139.529.056.997.168.408.474.561.736.451.36-.149.285-.624.324-1.196.037-.601.195-1.101.852-1.374.694-.288 1.37.117 1.668.842.276.665.21 1.105.152 1.33l-.747-.098c.033-.178.065-.548-.079-.895-.136-.33-.369-.482-.644-.369-.316.133-.286.498-.306 1.005-.02.637-.084 1.256-.834 1.566-.737.306-1.435-.054-1.808-.955-.273-.658-.192-1.185-.119-1.421M15.804 17.474l.61-.447c.064.105.278.47.747.663.408.168.731.059.84-.203.147-.361-.243-.643-.621-1.075-.4-.45-.643-.913-.372-1.572.285-.695 1.048-.888 1.775-.59.664.274.93.633 1.048.831l-.597.461c-.102-.148-.341-.433-.689-.575-.329-.136-.602-.077-.716.197-.13.317.15.554.497.924.436.464.83.947.521 1.696-.304.738-1.051.98-1.953.609-.66-.27-.975-.7-1.09-.919M16.01 13.89l.226-.436c.067.042.297.194.626.17.286-.02.442-.176.429-.36-.017-.251-.326-.303-.67-.446-.362-.146-.637-.346-.668-.806-.035-.486.353-.818.86-.854.467-.032.724.1.85.182l-.214.438c-.102-.058-.324-.152-.567-.136-.23.016-.372.129-.36.32.017.223.249.28.556.395.387.145.756.312.79.836.038.517-.328.872-.96.917-.46.032-.767-.126-.897-.22M16.174 10.458l-.15-.468c.079-.019.348-.074.563-.323.187-.217.187-.438.047-.559-.19-.165-.443.017-.789.16-.359.154-.694.208-1.043-.094-.369-.32-.33-.828.003-1.213.305-.352.58-.442.727-.474l.16.462c-.112.032-.336.12-.496.305-.152.174-.172.355-.026.481.168.146.372.022.67-.115.377-.173.754-.315 1.153.029.39.338.385.848-.028 1.326-.303.35-.632.456-.791.483M13.857 7.92l-.438-.225c.043-.067.193-.297.168-.626-.021-.285-.178-.44-.361-.427-.251.019-.302.327-.443.671-.145.363-.343.64-.804.675-.486.036-.819-.351-.858-.86-.035-.464.098-.723.177-.848l.442.211c-.058.104-.153.324-.135.568.018.23.131.372.323.358.221-.017.278-.248.392-.557.142-.388.308-.757.832-.795.516-.04.874.325.921.955.034.462-.123.769-.216.9M10.424 7.772l-.468.151c-.018-.077-.075-.346-.325-.56-.218-.187-.437-.185-.559-.045-.163.191.02.445.164.788.155.358.211.694-.09 1.043-.316.372-.826.334-1.212.004-.354-.304-.445-.579-.478-.724l.462-.164c.032.113.123.336.307.495.176.15.356.17.481.024.145-.17.02-.372-.118-.671-.174-.375-.319-.752.024-1.151.335-.392.846-.39 1.327.022.351.3.458.63.485.788M7.896 10.1l-.222.438c-.067-.042-.298-.19-.626-.164-.287.022-.44.18-.426.363.02.252.328.301.674.44.363.144.64.34.677.801.037.486-.348.821-.854.861-.466.037-.724-.092-.85-.171l.21-.443c.102.056.324.15.568.131.229-.018.37-.132.355-.324-.017-.221-.25-.277-.559-.39-.387-.14-.757-.304-.8-.829-.04-.515.324-.875.953-.924.46-.037.77.12.9.211M7.765 13.534l.153.467c-.077.018-.345.076-.56.328-.184.218-.182.44-.042.558.193.164.445-.02.788-.166.357-.157.693-.215 1.044.084.372.316.338.826.009 1.213-.303.355-.578.447-.723.48l-.166-.46c.114-.032.337-.123.495-.31.149-.176.168-.356.022-.48-.17-.145-.373-.019-.67.12-.374.177-.752.323-1.152-.017-.395-.335-.395-.847.016-1.329.298-.35.627-.46.786-.488M10.104 16.05l.44.221c-.042.068-.19.3-.163.627.024.286.183.44.366.425.252-.02.3-.33.438-.677.14-.363.337-.641.797-.679.486-.042.823.342.864.85.04.464-.088.724-.167.85l-.444-.207c.056-.103.15-.325.13-.568-.02-.231-.134-.371-.326-.356-.223.019-.277.252-.388.562-.138.388-.302.758-.826.802-.514.043-.876-.318-.929-.947-.038-.461.117-.77.208-.902M13.54 16.168l.466-.156c.018.077.078.345.33.557.219.185.44.181.558.04.163-.192-.023-.444-.17-.787-.158-.356-.219-.691.08-1.044.314-.374.823-.342 1.212-.013.356.3.45.574.485.72l-.461.167c-.032-.113-.124-.336-.312-.492-.177-.15-.356-.167-.48-.02-.144.17-.017.372.124.67.178.372.325.749-.014 1.15-.333.396-.843.397-1.327-.01-.354-.298-.463-.624-.492-.782M14.262 13.962l.227-.244c.036.04.16.18.378.226.19.039.32-.035.347-.159.033-.167-.159-.257-.358-.413-.21-.16-.354-.34-.29-.648.065-.325.379-.47.717-.403.31.065.455.197.523.273l-.22.25c-.057-.058-.184-.16-.346-.192-.153-.032-.267.016-.294.144-.03.148.112.226.292.359.226.164.438.34.367.69-.07.344-.375.51-.795.425-.308-.063-.48-.224-.548-.308M14.992 11.748l-.012-.334c.054.003.24.015.426-.109.162-.106.2-.252.132-.357-.095-.142-.294-.068-.544-.037-.263.035-.493.01-.666-.252-.183-.275-.065-.601.221-.792.264-.175.46-.184.563-.178l.021.331c-.08 0-.243.018-.38.11-.13.086-.176.2-.105.31.083.125.24.081.46.046.277-.045.55-.069.748.228.194.293.098.625-.26.863-.261.173-.496.182-.604.171M13.938 9.667l-.246-.225c.041-.036.18-.16.224-.379.039-.192-.036-.32-.16-.345-.167-.033-.256.158-.411.359-.16.21-.34.356-.647.294-.325-.064-.473-.378-.406-.717.062-.31.195-.455.27-.523l.25.218c-.056.057-.158.185-.19.348-.03.153.018.266.146.292.148.03.226-.112.357-.293.163-.228.34-.439.69-.369.343.068.51.371.428.792-.062.307-.222.48-.305.548M11.72 8.948l-.334.015c.003-.054.014-.24-.11-.426-.109-.162-.254-.2-.356-.131-.144.095-.07.295-.037.544.036.263.012.493-.249.667-.275.185-.6.068-.793-.218-.176-.263-.186-.459-.18-.56l.33-.024c.001.08.02.243.111.38.088.13.203.176.312.103.125-.084.08-.24.043-.46-.045-.276-.071-.55.224-.748.292-.195.626-.1.865.256.175.259.185.494.174.602M9.645 10.012l-.226.246c-.036-.04-.16-.178-.38-.22-.19-.039-.32.036-.344.16-.032.166.16.255.36.409.213.159.358.339.298.646-.062.325-.376.473-.714.41-.31-.061-.458-.194-.525-.269l.217-.251c.057.056.186.159.348.19.154.03.267-.02.292-.148.028-.148-.113-.226-.295-.356-.229-.163-.44-.337-.371-.687.066-.344.368-.514.79-.431.308.06.481.217.55.3M8.935 12.233l.016.333c-.054-.002-.24-.012-.425.114-.162.108-.2.253-.13.357.096.142.295.066.546.033.262-.038.491-.013.667.245.185.274.07.601-.215.796-.262.176-.459.187-.56.183l-.024-.332c.08-.002.243-.02.378-.113.132-.088.176-.202.103-.31-.085-.126-.24-.08-.46-.043-.276.048-.55.074-.75-.222-.197-.29-.104-.623.251-.864.26-.176.494-.187.603-.177M10.008 14.303l.248.224c-.04.037-.18.161-.22.38-.037.192.04.322.162.345.168.032.254-.162.408-.362.158-.212.338-.36.645-.301.325.061.476.373.412.713-.06.31-.191.457-.265.526l-.254-.217c.058-.057.158-.184.189-.348.028-.154-.021-.266-.148-.29-.148-.03-.226.113-.356.294-.16.231-.334.442-.685.377-.344-.066-.515-.367-.434-.79.056-.307.215-.48.298-.551M12.232 15.003l.333-.017c-.002.054-.011.24.115.424.11.161.255.199.359.128.14-.097.066-.295.03-.545-.037-.263-.016-.492.243-.669.273-.186.6-.073.795.21.178.263.19.458.186.56l-.331.025c-.002-.079-.022-.241-.115-.377-.088-.13-.203-.174-.31-.1-.125.084-.079.24-.04.46.048.276.076.549-.219.75-.29.198-.624.106-.866-.247-.176-.259-.19-.493-.18-.602M13.022 13.691l.193-.109c.015.032.064.146.193.219.113.062.21.04.252-.032.054-.1-.05-.195-.144-.333-.101-.144-.156-.286-.056-.469.107-.19.335-.221.535-.11.184.102.248.215.276.276l-.188.114c-.025-.047-.086-.137-.181-.191-.091-.05-.172-.042-.213.034-.05.087.024.166.112.285.11.148.208.302.094.509-.113.205-.339.249-.587.111-.182-.1-.26-.236-.286-.304M13.925 12.435l.06-.213c.032.012.147.057.29.016.124-.036.178-.12.154-.2-.03-.108-.171-.102-.336-.132-.174-.03-.315-.092-.37-.292-.062-.21.078-.393.297-.457.2-.058.327-.024.39-.001l-.052.214c-.05-.015-.156-.036-.262-.007-.1.029-.151.093-.127.176.028.097.135.1.28.12.185.028.362.067.428.295.065.223-.063.414-.336.493-.2.058-.35.018-.416-.012M13.672 10.909l-.11-.192c.032-.015.145-.065.217-.195.063-.113.04-.21-.031-.25-.1-.055-.195.049-.333.145-.144.101-.287.157-.469.057-.192-.105-.223-.333-.113-.533.102-.184.214-.25.275-.278l.115.188c-.047.024-.137.085-.19.18-.05.093-.041.173.034.215.088.049.166-.025.284-.113.15-.113.303-.21.51-.098.204.113.25.337.113.588-.1.182-.234.26-.302.286M12.412 10.012l-.214-.058c.012-.034.057-.149.014-.29-.035-.126-.12-.178-.198-.155-.11.032-.102.173-.132.338-.029.173-.091.314-.29.372-.21.062-.394-.077-.458-.296-.06-.202-.027-.328-.004-.39l.215.05c-.016.051-.036.158-.005.263.028.1.092.151.176.128.095-.03.098-.136.119-.284.026-.184.064-.361.29-.428.224-.066.417.06.497.334.058.199.02.349-.01.416M10.887 10.272l-.19.111c-.017-.034-.067-.145-.197-.216-.114-.062-.211-.04-.25.032-.055.1.05.195.146.332.102.144.16.285.06.467-.106.194-.333.226-.534.117-.184-.1-.25-.212-.278-.273l.187-.116c.025.046.085.137.182.189.091.05.173.042.214-.035.047-.088-.028-.165-.116-.284-.111-.148-.211-.3-.098-.51.111-.204.336-.25.587-.115.182.099.26.234.287.301M9.996 11.536l-.057.214c-.034-.012-.15-.056-.292-.013-.124.037-.176.121-.153.2.033.109.174.102.339.13.173.029.314.088.373.288.063.211-.074.395-.293.46-.2.06-.328.027-.391.005l.05-.215c.05.015.157.036.262.004.1-.029.152-.093.127-.176-.03-.096-.136-.098-.283-.118-.185-.025-.363-.064-.43-.29-.067-.223.058-.415.331-.497.199-.06.35-.02.417.008M10.262 13.06l.112.19c-.033.016-.144.067-.216.198-.06.114-.038.21.036.25.1.053.194-.051.33-.149.143-.102.285-.158.468-.06.193.103.226.33.119.533-.1.184-.212.25-.274.279l-.116-.187c.046-.025.136-.086.189-.182.05-.092.04-.173-.037-.214-.088-.048-.165.027-.283.115-.148.114-.3.213-.51.102-.204-.11-.251-.335-.117-.586.098-.183.233-.261.3-.289M11.53 13.945l.215.056c-.012.035-.056.149-.012.292.038.123.121.175.2.152.109-.034.102-.174.13-.34.027-.173.086-.313.286-.374.21-.065.394.073.46.292.061.202.03.327.008.391l-.215-.05c.015-.05.035-.157.002-.262-.03-.1-.094-.15-.177-.125-.095.029-.097.136-.117.282-.023.185-.06.363-.287.433-.224.067-.415-.058-.498-.329-.061-.2-.023-.35.005-.418"/>
    </g>
</svg>
