<svg xmlns="http://www.w3.org/2000/svg" xmlns:xlink="http://www.w3.org/1999/xlink" width="180" height="48" viewBox="0 0 180 48">
    <defs>
        <path id="prefix__a" d="M24.326 0C37.63 0 48.438 10.568 48.653 23.685l.003.398-.003.379c-.192 12.35-9.782 22.439-22.003 23.587l-.372.032 3.283-6.293-3.054-5.854.17-.032c5.54-1.072 9.737-5.863 9.82-11.643l.002-.176-.002-.199c-.107-6.496-5.407-11.742-11.971-11.847l-.2-.001-.201.001c-6.562.106-11.86 5.353-11.966 11.849l-.002.197.002.177c.084 5.771 4.267 10.557 9.798 11.639l.168.031 3.055 5.858-3.263 6.259-.368-.039C9.543 46.655.189 36.655.003 24.454L0 24.084l.003-.399C.218 10.568 11.027 0 24.326 0z"/>
        <path id="prefix__d" d="M24.326 0C37.63 0 48.438 10.568 48.653 23.685l.003.398-.003.379c-.192 12.35-9.782 22.439-22.003 23.587l-.372.032 3.283-6.293-3.054-5.854.17-.032c5.54-1.072 9.737-5.863 9.82-11.643l.002-.176-.002-.199c-.107-6.496-5.407-11.742-11.971-11.847l-.2-.001-.201.001c-6.562.106-11.86 5.353-11.966 11.849l-.002.197.002.177c.084 5.771 4.267 10.557 9.798 11.639l.168.031 3.055 5.858-3.263 6.259-.368-.039C9.543 46.655.189 36.655.003 24.454L0 24.084l.003-.399C.218 10.568 11.027 0 24.326 0z"/>
        <path id="prefix__g" d="M14.861 25.44L0.091 25.44 0.091 0.042 14.861 0.042 14.861 4.413 5.529 4.413 5.529 10.181 14.861 10.181 14.861 14.55 5.529 14.55 5.529 21.035 14.861 21.035z"/>
        <path id="prefix__i" d="M5.468 11.245h1.716c1.68 0 2.919-.28 3.724-.843.8-.56 1.2-1.442 1.2-2.646 0-1.19-.408-2.039-1.232-2.542-.815-.505-2.08-.755-3.797-.755H5.468v6.786zm-.079 4.26v9.893H0V0h7.407c3.453 0 6.01.622 7.668 1.866 1.658 1.247 2.485 3.135 2.485 5.67 0 1.48-.41 2.798-1.231 3.95-.825 1.153-1.987 2.057-3.497 2.711 3.827 5.656 6.315 9.55 7.477 11.201h-5.983L8.26 15.505h-2.87z"/>
        <path id="prefix__k" d="M0 0h5.669l4.355 11.783c.277.794.542 1.6.796 2.418l.76 2.451h.173c.276-.817.536-1.634.778-2.451.242-.818.5-1.624.777-2.418L17.56 0h5.67v25.2h-4.667V14.677c0-.59.023-1.243.069-1.958.046-.715.098-1.441.155-2.18.058-.737.121-1.464.19-2.179.07-.715.139-1.368.208-1.958h-.139l-2.074 5.926-3.94 10.59h-2.938l-3.976-10.59-2.04-5.926h-.137c.069.59.138 1.243.207 1.958.07.715.138 1.442.207 2.18.07.738.127 1.464.173 2.18.046.714.07 1.367.07 1.957V25.2H0V0z"/>
        <path id="prefix__m" d="M.046.042h7.136c1.992 0 3.779.252 5.36.755 1.582.503 2.93 1.276 4.043 2.317 1.113 1.04 1.968 2.35 2.566 3.93.598 1.578.896 3.443.896 5.594 0 2.128-.298 3.993-.896 5.594-.598 1.602-1.441 2.935-2.53 3.999-1.09 1.064-2.409 1.865-3.955 2.402-1.547.538-3.281.807-5.203.807H.046V.042zm6.735 21.327c1.195 0 2.27-.166 3.223-.498.954-.331 1.764-.846 2.43-1.544.667-.697 1.178-1.595 1.534-2.692.356-1.098.535-2.425.535-3.98 0-1.555-.179-2.876-.535-3.962-.356-1.086-.867-1.967-1.534-2.641-.666-.675-1.476-1.167-2.43-1.475-.954-.31-2.028-.464-3.223-.464H5.195V21.37h1.586z"/>
        <path id="prefix__o" d="M0 9.792h5.539V27.54H0V9.792zm2.785-4.407c-.802 0-1.466-.252-1.994-.757C.264 4.123 0 3.478 0 2.693 0 1.885.264 1.234.791.74 1.32.247 1.983 0 2.785 0s1.461.247 1.978.74c.517.494.776 1.145.776 1.953 0 .785-.259 1.43-.776 1.935-.517.505-1.176.757-1.978.757z"/>
        <path id="prefix__q" d="M9.017 25.8c-1.67 0-3.29-.314-4.86-.94-1.569-.628-2.955-1.524-4.157-2.688l2.839-3.427c.89.829 1.887 1.495 2.989 2 1.102.503 2.198.755 3.29.755 1.29 0 2.27-.258 2.938-.773.668-.515 1.002-1.209 1.002-2.082 0-.47-.09-.863-.267-1.176-.179-.314-.429-.594-.752-.84s-.712-.47-1.169-.672l-1.52-.672-3.305-1.41c-.624-.27-1.236-.594-1.837-.975-.601-.38-1.136-.845-1.603-1.394-.468-.549-.846-1.176-1.136-1.881-.289-.706-.434-1.518-.434-2.436 0-1.008.212-1.954.635-2.839.423-.884 1.013-1.646 1.77-2.284C4.197 1.428 5.098.924 6.145.554 7.19.184 8.338 0 9.585 0c1.447 0 2.85.274 4.208.823 1.358.549 2.538 1.338 3.54 2.368l-2.505 3.125c-.78-.65-1.592-1.154-2.438-1.512-.846-.358-1.781-.538-2.805-.538-1.091 0-1.96.23-2.605.69-.646.458-.969 1.102-.969 1.93 0 .449.106.83.318 1.143.211.313.49.593.834.84.346.246.752.47 1.22.672.467.201.968.403 1.502.604l3.24 1.378c.757.313 1.441.672 2.053 1.075.613.403 1.136.873 1.57 1.41.434.538.768 1.16 1.002 1.865.234.706.35 1.506.35 2.402 0 1.008-.205 1.97-.617 2.89-.412.917-1.008 1.718-1.787 2.401-.78.683-1.73 1.226-2.855 1.63-1.125.402-2.4.604-3.824.604z"/>
        <linearGradient id="prefix__b" x1="0%" x2="0%" y1=".209%" y2="644.234%">
            <stop offset="0%" stop-color="#146FB8"/>
            <stop offset="100%" stop-color="#2CB1A4"/>
        </linearGradient>
        <linearGradient id="prefix__e" x1=".001%" x2="99.937%" y1="100%" y2="100%">
            <stop offset="0%" stop-color="#146FB8"/>
            <stop offset="100%" stop-color="#2CB1A4"/>
        </linearGradient>
    </defs>
    <g fill="none" fill-rule="evenodd">
        <mask id="prefix__c" fill="#fff">
            <use xlink:href="#prefix__a"/>
        </mask>
        <path fill="url(#prefix__b)" d="M0 48.081L48.687 48.081 48.687 -0.101 0 -0.101z" mask="url(#prefix__c)"/>
        <g>
            <mask id="prefix__f" fill="#fff">
                <use xlink:href="#prefix__d"/>
            </mask>
            <path fill="url(#prefix__e)" d="M0 48.081L48.687 48.081 48.687 -0.101 0 -0.101z" mask="url(#prefix__f)"/>
            <g transform="translate(95.33 13.7)">
                <mask id="prefix__h" fill="#fff">
                    <use xlink:href="#prefix__g"/>
                </mask>
                <path fill="#FFF" d="M-1.418 26.94L16.369 26.94 16.369 -1.458 -1.418 -1.458z" mask="url(#prefix__h)"/>
            </g>
            <g transform="translate(113.128 13.7)">
                <mask id="prefix__j" fill="#fff">
                    <use xlink:href="#prefix__i"/>
                </mask>
                <path fill="#FFF" d="M-1.508 26.898L21.817 26.898 21.817 -1.5 -1.508 -1.5z" mask="url(#prefix__j)"/>
            </g>
            <g transform="translate(134.85 14)">
                <mask id="prefix__l" fill="#fff">
                    <use xlink:href="#prefix__k"/>
                </mask>
                <path fill="#FFF" d="M-1.508 26.7L24.737 26.7 24.737 -1.5 -1.508 -1.5z" mask="url(#prefix__l)"/>
            </g>
            <g transform="translate(72.603 13.7)">
                <mask id="prefix__n" fill="#fff">
                    <use xlink:href="#prefix__m"/>
                </mask>
                <path fill="#FFF" d="M-1.462 26.94L21.556 26.94 21.556 -1.458 -1.462 -1.458z" mask="url(#prefix__n)"/>
            </g>
            <g transform="translate(60.034 11.6)">
                <mask id="prefix__p" fill="#fff">
                    <use xlink:href="#prefix__o"/>
                </mask>
                <path fill="#FFF" d="M-1.508 29.04L7.047 29.04 7.047 -1.5 -1.508 -1.5z" mask="url(#prefix__p)"/>
            </g>
            <g transform="translate(161.095 13.4)">
                <mask id="prefix__r" fill="#fff">
                    <use xlink:href="#prefix__q"/>
                </mask>
                <path fill="#FFF" d="M-1.508 27.3L19.609 27.3 19.609 -1.5 -1.508 -1.5z" mask="url(#prefix__r)"/>
            </g>
        </g>
    </g>
</svg>
