<?xml version="1.0" encoding="UTF-8"?>
<svg width="139px" height="23px" viewBox="0 0 139 23" version="1.1" xmlns="http://www.w3.org/2000/svg" xmlns:xlink="http://www.w3.org/1999/xlink">
    <title>Group 6</title>
    <defs>
        <linearGradient x1="-9.14441364e-05%" y1="50.0001216%" x2="99.9992963%" y2="50.0001216%" id="linearGradient-1">
            <stop stop-color="#2370B6" offset="0%"></stop>
            <stop stop-color="#38B2A6" offset="100%"></stop>
        </linearGradient>
        <polygon id="path-2" points="0.182043429 0.235062857 18.5174949 0.235062857 18.5174949 22.7383954 0.182043429 22.7383954"></polygon>
        <polygon id="path-4" points="39.4049006 0.235062857 57.740352 0.235062857 57.740352 22.7383954 39.4049006 22.7383954"></polygon>
        <path d="M0.239451429,11.5337143 C0.239451429,17.38176 4.69659429,22.1891657 10.4003657,22.7495314 L10.4003657,22.7495314 L11.9133257,19.8212571 L10.4969143,17.0792229 C7.86788571,16.5981257 5.8752,14.2998857 5.8752,11.5337143 L5.8752,11.5337143 C5.8752,8.41947429 8.40137143,5.8944 11.5175314,5.8944 L11.5175314,5.8944 C14.6339657,5.8944 17.1598629,8.41947429 17.1598629,11.5337143 L17.1598629,11.5337143 C17.1598629,14.3031771 15.1619657,16.6049829 12.528,17.0808686 L12.528,17.0808686 L13.9435886,19.8212571 L12.4218514,22.7657143 C18.2279314,22.3051886 22.7956114,17.4544457 22.7956114,11.5337143 L22.7956114,11.5337143 C22.7956114,5.30852571 17.7462857,0.262217143 11.5175314,0.262217143 L11.5175314,0.262217143 C5.28850286,0.262217143 0.239451429,5.30852571 0.239451429,11.5337143" id="path-6"></path>
        <path d="M57.29088,11.5337143 C57.29088,17.38176 61.7480229,22.1891657 67.4517943,22.7495314 L67.4517943,22.7495314 L68.9647543,19.8212571 L67.5483429,17.0792229 C64.9193143,16.5981257 62.9266286,14.2998857 62.9266286,11.5337143 L62.9266286,11.5337143 C62.9266286,8.41947429 65.4528,5.8944 68.56896,5.8944 L68.56896,5.8944 C71.6853943,5.8944 74.2112914,8.41947429 74.2112914,11.5337143 L74.2112914,11.5337143 C74.2112914,14.3031771 72.2133943,16.6049829 69.5794286,17.0808686 L69.5794286,17.0808686 L70.9950171,19.8212571 L69.47328,22.7657143 C75.27936,22.3051886 79.84704,17.4544457 79.84704,11.5337143 L79.84704,11.5337143 C79.84704,5.30852571 74.7977143,0.262217143 68.56896,0.262217143 L68.56896,0.262217143 C62.3399314,0.262217143 57.29088,5.30852571 57.29088,11.5337143" id="path-8"></path>
    </defs>
    <g id="사업소-대시보드" stroke="none" stroke-width="1" fill="none" fill-rule="evenodd">
        <g id="사업소-대시보드-copy" transform="translate(-30.000000, -20.000000)">
            <g id="Group-6" transform="translate(30.000000, 20.000000)">
                <path d="M57.29088,11.5337143 C57.29088,17.38176 61.7480229,22.1891657 67.4517943,22.7495314 L67.4517943,22.7495314 L68.9647543,19.8212571 L67.5483429,17.0792229 C64.9193143,16.5981257 62.9266286,14.2998857 62.9266286,11.5337143 L62.9266286,11.5337143 C62.9266286,8.41947429 65.4528,5.8944 68.56896,5.8944 L68.56896,5.8944 C71.6853943,5.8944 74.2112914,8.41947429 74.2112914,11.5337143 L74.2112914,11.5337143 C74.2112914,14.3031771 72.2133943,16.6049829 69.5794286,17.0808686 L69.5794286,17.0808686 L70.9950171,19.8212571 L69.47328,22.7657143 C75.27936,22.3051886 79.84704,17.4544457 79.84704,11.5337143 L79.84704,11.5337143 C79.84704,5.30852571 74.7977143,0.262217143 68.56896,0.262217143 L68.56896,0.262217143 C62.3399314,0.262217143 57.29088,5.30852571 57.29088,11.5337143" id="Fill-13" fill="url(#linearGradient-1)"></path>
                <polygon id="Fill-1" fill="#4E6068" points="-1.15463195e-14 0.869238857 -1.15463195e-14 21.980736 15.1992686 21.980736 15.1992686 17.4029074 6.10093714 17.4029074 6.10093714 13.6292846 15.1992686 13.6292846 15.1992686 9.05118171 6.10093714 9.05118171 6.10093714 5.44706743 15.1992686 5.44706743 15.1992686 0.869238857"></polygon>
                <polygon id="Fill-2" fill="#4E6068" points="31.0645029 11.933568 23.5427657 0.869156571 17.4423771 0.869156571 17.4423771 21.9803794 23.5427657 21.9803794 23.5427657 10.9011566 31.0645029 21.9803794 37.1648914 21.9803794 37.1648914 0.869156571 31.0645029 0.869156571"></polygon>
                <g id="Group-12" transform="translate(39.222857, 0.000000)">
                    <g id="Group-5">
                        <mask id="mask-3" fill="white">
                            <use xlink:href="#path-2"></use>
                        </mask>
                        <g id="Clip-4"></g>
                        <path d="M11.4335177,17.4180754 C8.15799771,17.4180754 5.50236343,14.7627154 5.50236343,11.4866469 C5.50236343,8.21112686 8.15799771,5.55549257 11.4335177,5.55549257 C13.1878491,5.55549257 14.7636206,6.31745829 15.849792,7.52788114 C16.4033006,5.74557257 17.3235291,4.12509257 18.5174949,2.74708114 C16.583232,1.177344 14.1187749,0.234898286 11.4335177,0.234898286 C5.21930057,0.234898286 0.182043429,5.27297829 0.182043429,11.4866469 C0.182043429,17.700864 5.21930057,22.7383954 11.4335177,22.7383954 C14.1187749,22.7383954 16.583232,21.7964983 18.5174949,20.2264869 C17.3235291,18.8487497 16.4033006,17.2277211 15.849792,15.4454126 C14.7636206,16.656384 13.1878491,17.4180754 11.4335177,17.4180754" id="Fill-3" fill="#4E6068" mask="url(#mask-3)"></path>
                    </g>
                    <path d="M57.8553051,11.8351543 C59.0928823,10.7215543 59.7111223,9.23163429 59.7111223,7.36539429 C59.7111223,5.73613714 59.1729737,4.31780571 58.096128,3.11204571 C56.7669394,1.61746286 54.7163794,0.868937143 51.9441737,0.868937143 L42.4582766,0.868937143 L42.4582766,21.9809829 L48.5589394,21.9809829 L48.5589394,13.8763886 L54.3839451,21.9809829 L60.4909166,21.9809829 L54.5904823,13.3201371 C55.976448,13.0409143 57.065088,12.5458286 57.8553051,11.8351543 M52.7379566,9.57860571 C52.1737509,10.0621714 51.2483109,10.3040914 49.9613623,10.3040914 L48.5589394,10.3040914 L48.5589394,5.04521143 L49.9613623,5.04521143 C51.2367909,5.04521143 52.1622309,5.28685714 52.7379566,5.77042286 C53.3468709,6.28416 53.6510537,6.91666286 53.6510537,7.66656 C53.6510537,8.41728 53.3468709,9.05472 52.7379566,9.57860571" id="Fill-6" fill="#4E6068"></path>
                    <polygon id="Fill-8" fill="#4E6068" points="68.0464731 5.44701257 77.1450789 5.44701257 77.1450789 0.869458286 61.9458103 0.869458286 61.9458103 21.9809554 77.1450789 21.9809554 77.1450789 17.4031269 68.0464731 17.4031269 68.0464731 13.6289554 77.1450789 13.6289554 77.1450789 9.05112686 68.0464731 9.05112686"></polygon>
                    <path d="M97.6704,6.82368 C96.8031086,5.16918857 95.48928,3.40333714 93.9796114,2.52397714 C92.2639543,1.52475429 89.8543543,0.868937143 88.3902171,0.868937143 L79.3851429,0.868937143 L79.3851429,21.9809829 L88.3902171,21.9809829 C88.95168,21.9809829 90.6624,21.7275429 91.5738514,21.4082743 C93.5550171,20.7135086 95.3515886,19.2430629 96.6648686,17.5186286 C98.1076114,15.6244114 98.6885486,13.6133486 98.6885486,11.4176914 C98.6885486,9.83972571 98.45376,8.31826286 97.6704,6.82368 M92.0069486,15.2475429 C90.8129829,16.6839771 89.2802743,17.40288 86.8805486,17.40288 L85.48608,17.40288 L85.48608,5.44704 L86.8805486,5.44704 C89.2682057,5.44704 90.8009143,6.16621714 92.0069486,7.60347429 C92.9137371,8.688 93.3674057,9.95986286 93.3674057,11.4176914 C93.3674057,12.8749714 92.9137371,14.1520457 92.0069486,15.2475429" id="Fill-10" fill="#4E6068"></path>
                </g>
                <mask id="mask-5" fill="white">
                    <use xlink:href="#path-4"></use>
                </mask>
                <g id="Clip-4"></g>
                <path d="M50.6563749,17.4180754 C47.3808549,17.4180754 44.7252206,14.7627154 44.7252206,11.4866469 C44.7252206,8.21112686 47.3808549,5.55549257 50.6563749,5.55549257 C52.4107063,5.55549257 53.9864777,6.31745829 55.0726491,7.52788114 C55.6261577,5.74557257 56.5463863,4.12509257 57.740352,2.74708114 C55.8060891,1.177344 53.341632,0.234898286 50.6563749,0.234898286 C44.4421577,0.234898286 39.4049006,5.27297829 39.4049006,11.4866469 C39.4049006,17.700864 44.4421577,22.7383954 50.6563749,22.7383954 C53.341632,22.7383954 55.8060891,21.7964983 57.740352,20.2264869 C56.5463863,18.8487497 55.6261577,17.2277211 55.0726491,15.4454126 C53.9864777,16.656384 52.4107063,17.4180754 50.6563749,17.4180754" id="Fill-3" fill="#4E6068" mask="url(#mask-5)"></path>
                <path d="M97.0781623,11.8351543 C98.3157394,10.7215543 98.9339794,9.23163429 98.9339794,7.36539429 C98.9339794,5.73613714 98.3958309,4.31780571 97.3189851,3.11204571 C95.9897966,1.61746286 93.9392366,0.868937143 91.1670309,0.868937143 L81.6811337,0.868937143 L81.6811337,21.9809829 L87.7817966,21.9809829 L87.7817966,13.8763886 L93.6068023,21.9809829 L99.7137737,21.9809829 L93.8133394,13.3201371 C95.1993051,13.0409143 96.2879451,12.5458286 97.0781623,11.8351543 M91.9608137,9.57860571 C91.396608,10.0621714 90.471168,10.3040914 89.1842194,10.3040914 L87.7817966,10.3040914 L87.7817966,5.04521143 L89.1842194,5.04521143 C90.459648,5.04521143 91.385088,5.28685714 91.9608137,5.77042286 C92.569728,6.28416 92.8739109,6.91666286 92.8739109,7.66656 C92.8739109,8.41728 92.569728,9.05472 91.9608137,9.57860571" id="Fill-6" fill="#4E6068" mask="url(#mask-5)"></path>
                <polygon id="Fill-8" fill="#4E6068" mask="url(#mask-5)" points="107.26933 5.44701257 116.367936 5.44701257 116.367936 0.869458286 101.168667 0.869458286 101.168667 21.9809554 116.367936 21.9809554 116.367936 17.4031269 107.26933 17.4031269 107.26933 13.6289554 116.367936 13.6289554 116.367936 9.05112686 107.26933 9.05112686"></polygon>
                <path d="M136.893257,6.82368 C136.025966,5.16918857 134.712137,3.40333714 133.202469,2.52397714 C131.486811,1.52475429 129.077211,0.868937143 127.613074,0.868937143 L118.608,0.868937143 L118.608,21.9809829 L127.613074,21.9809829 C128.174537,21.9809829 129.885257,21.7275429 130.796709,21.4082743 C132.777874,20.7135086 134.574446,19.2430629 135.887726,17.5186286 C137.330469,15.6244114 137.911406,13.6133486 137.911406,11.4176914 C137.911406,9.83972571 137.676617,8.31826286 136.893257,6.82368 M131.229806,15.2475429 C130.03584,16.6839771 128.503131,17.40288 126.103406,17.40288 L124.708937,17.40288 L124.708937,5.44704 L126.103406,5.44704 C128.491063,5.44704 130.023771,6.16621714 131.229806,7.60347429 C132.136594,8.688 132.590263,9.95986286 132.590263,11.4176914 C132.590263,12.8749714 132.136594,14.1520457 131.229806,15.2475429" id="Fill-10" fill="#4E6068" mask="url(#mask-5)"></path>
                <g id="Group-15" mask="url(#mask-5)">
                    <g transform="translate(57.051429, 0.000000)">
                        <mask id="mask-7" fill="white">
                            <use xlink:href="#path-6"></use>
                        </mask>
                        <g id="Clip-14" stroke="none" fill="none"></g>
                    </g>
                </g>
                <mask id="mask-9" fill="white">
                    <use xlink:href="#path-8"></use>
                </mask>
                <g id="Clip-14"></g>
            </g>
        </g>
    </g>
</svg>