<svg xmlns="http://www.w3.org/2000/svg" width="23" height="23" viewBox="0 0 23 23">
    <defs>
        <linearGradient id="prefix__a" x1="0%" x2="99.999%" y1="50%" y2="50%">
            <stop offset="0%" stop-color="#2370B6"/>
            <stop offset="100%" stop-color="#38B2A6"/>
        </linearGradient>
    </defs>
    <path fill="url(#prefix__a)" fill-rule="evenodd" d="M0 11.52c0 5.977 4.545 10.89 10.36 11.463l1.544-2.992-1.445-2.803c-2.68-.492-4.712-2.84-4.712-5.668 0-3.183 2.576-5.764 5.753-5.764 3.178 0 5.753 2.581 5.753 5.764 0 2.83-2.037 5.183-4.723 5.67l1.444 2.8L12.422 23C18.342 22.53 23 17.572 23 11.52 23 5.158 17.851 0 11.5 0 5.148 0 0 5.158 0 11.52"/>
</svg>
