<?xml version="1.0" encoding="UTF-8"?>
<svg width="181px" height="47px" viewBox="0 0 181 47" version="1.1" xmlns="http://www.w3.org/2000/svg" xmlns:xlink="http://www.w3.org/1999/xlink">
    <title>Group 3</title>
    <defs>
        <polygon id="path-1" points="0 0.0192553191 9.18478723 0.0192553191 9.18478723 10.979383 0 10.979383"></polygon>
    </defs>
    <g id="Page-1" stroke="none" stroke-width="1" fill="none" fill-rule="evenodd">
        <g id="Group-3" transform="translate(0.000000, 0.001900)">
            <path d="M56.0018722,33.0320801 L58.7857656,29.549873 C59.590792,30.2463145 61.1671459,31.5661833 63.9529116,31.5661833 C66.5552061,31.5661833 67.6167176,30.3923425 67.6167176,28.8553038 C67.6167176,27.2059358 66.517763,26.5094944 63.8798976,24.4201702 C61.6445453,22.5892033 59.4466361,20.6833502 59.4466361,17.2030153 C59.4466361,12.7341829 62.9625419,10.4595154 67.6167176,10.4595154 C71.3909807,10.4595154 73.2219476,11.7438133 74.2141894,12.5113965 L71.795366,16.1021885 C70.9528966,15.4431902 69.5955847,14.5295789 67.4706896,14.5295789 C65.3813653,14.5295789 64.3928678,15.4431902 64.3928678,16.9821011 C64.3928678,18.5210119 65.5292655,19.3297826 67.7271747,21.0521646 C70.108555,22.8812593 72.6734064,24.7140984 72.6734064,28.4902337 C72.6734064,32.7025809 69.6704709,35.7429596 63.7694405,35.7429596 C59.444764,35.7429596 57.0633837,33.9868788 56,33.0339522 M92.8084262,22.6977882 C96.4366613,22.6977882 98.0860292,20.8312504 98.0860292,17.9743429 C98.0860292,15.9954757 96.9852025,14.8590781 94.2724509,14.8590781 L91.8573718,14.8590781 L90.464489,22.6996604 L92.8084262,22.6996604 L92.8084262,22.6977882 Z M87.4596813,10.903216 L95.1167925,10.903216 C99.8795531,10.903216 103.286874,13.2115822 103.286874,17.4258016 C103.286874,23.6151438 98.7805985,26.6199515 92.2224419,26.6199515 L89.7324766,26.6199515 L88.1935658,35.3030033 L83.1387491,35.3030033 L87.4596813,10.903216 Z M115.781632,24.4950564 C115.781632,22.040662 114.901719,20.6477792 113.106323,20.6477792 C110.103388,20.6477792 108.233106,24.8975695 108.233106,28.1963055 C108.233106,30.5402427 109.113018,32.0791535 110.9833,32.0791535 C114.094821,32.0791535 115.781632,27.754477 115.781632,24.4950564 M103.399203,28.3048904 C103.399203,22.1136761 107.722008,16.9839732 113.473266,16.9839732 C118.016984,16.9839732 120.581836,20.172252 120.581836,24.4220423 C120.581836,30.8697418 116.44063,35.7429596 110.541472,35.7429596 C105.889168,35.7429596 103.399203,32.3730818 103.399203,28.3048904 M122.633717,17.4595004 L127.579948,17.4595004 L128.019905,25.959081 C128.055476,27.5728781 128.019905,29.1117889 128.019905,29.549873 L128.094791,29.549873 L133.662578,17.4595004 L137.837482,17.4595004 L138.350452,25.7774821 C138.462782,27.5728781 138.462782,29.0743458 138.462782,29.4412881 L138.533923,29.4412881 L143.882668,17.4595004 L148.720315,17.4595004 L139.99982,35.3030033 L135.604002,35.3030033 L134.761532,23.0291595 L134.686646,23.0291595 L128.64146,35.3030033 L124.429113,35.3030033 L122.633717,17.4613726 L122.633717,17.4595004 Z M153.557962,25.594011 C157.184325,25.2270687 159.638719,24.017657 159.638719,22.149247 C159.638719,21.1607495 159.090178,20.6833502 157.95378,20.6833502 C155.718428,20.6833502 154.181389,22.9917164 153.557962,25.594011 M148.503145,28.5969465 C148.503145,21.9320771 153.044992,16.9839732 158.758807,16.9839732 C162.166127,16.9839732 164.219881,18.6689121 164.219881,21.5988336 C164.219881,25.9609532 159.236206,27.9753913 153.301477,28.6343896 C153.411934,30.6862707 154.143946,31.8956824 156.122813,31.8956824 C157.991223,31.8956824 159.530134,30.9783268 160.666532,30.0272724 L162.53307,33.1781081 C161.104616,34.3500767 158.869264,35.7429596 155.353358,35.7429596 C150.847082,35.7429596 148.501273,32.813038 148.501273,28.5969465 M169.314013,17.4595004 L173.893302,17.4595004 C173.747274,18.7793692 173.307318,20.9042644 173.01339,21.9302049 L173.086404,21.9302049 C174.295815,19.6218387 176.237239,16.9839732 178.948119,16.9839732 C179.790588,16.9839732 180.522601,17.1300013 181,17.3509155 L179.388075,21.9302049 C179.023005,21.7467338 178.508163,21.6007058 177.849164,21.6007058 C175.357327,21.6007058 172.794348,23.9820861 171.071966,33.8371065 L170.81548,35.3030033 L166.090163,35.3030033 L169.314013,17.4613726 L169.314013,17.4595004 Z M75.8017763,20.6477792 L82.0229451,20.6477792 L81.2909328,24.6785275 L75.1034627,24.6785275 L75.8017763,20.6477792 Z" id="Shape" fill="#FFFFFF" fill-rule="nonzero"></path>
            <g id="Group-2">
                <path d="M41.0677447,21.0518665 L40.9772447,19.2803771 C41.2660745,19.2900048 42.2538723,19.3419941 43.230117,18.6699835 C44.0831277,18.0846218 44.2814574,17.3124835 43.9079043,16.7637069 C43.3937872,16.0166005 42.3424468,16.4190367 41.0099787,16.6058133 C39.6178191,16.8118452 38.3989574,16.6943877 37.4554468,15.3214835 C36.4599468,13.8734835 37.0607128,12.1328026 38.5741809,11.0930154 C39.9605638,10.1437282 41.0022766,10.0840367 41.5414255,10.1052175 L41.6800638,11.8613026 C41.2564468,11.8690048 40.395734,11.9768345 39.6698085,12.4755473 C38.9862447,12.9453771 38.7494043,13.5557707 39.1422128,14.1276537 C39.5966383,14.7900367 40.4169149,14.541643 41.5876383,14.3394622 C43.0548936,14.0775899 44.5009681,13.9273984 45.5754149,15.4890048 C46.6306064,17.0294303 46.1453723,18.8009196 44.2660532,20.091026 C42.8912234,21.0345367 41.6473298,21.1038558 41.0677447,21.053792 M34.3360851,8.85939837 L33.0170957,7.67712177 C33.2250532,7.48071752 33.9586809,6.81640901 34.1704894,5.64953667 C34.3591915,4.63478135 33.9509787,3.94544092 33.3001489,3.82798347 C32.4047766,3.66238773 31.9484255,4.69062177 31.1435532,5.76699411 C30.3040213,6.89728135 29.3624362,7.68097284 27.725734,7.37866433 C25.9966064,7.06287709 25.1859574,5.40884518 25.5171489,3.60462177 C25.821383,1.95251539 26.5145745,1.17074943 26.9093085,0.804898368 L28.2552553,1.94481326 C27.9625745,2.25097284 27.4272766,2.9364622 27.269383,3.80102603 C27.1191915,4.61937709 27.3849149,5.21821752 28.0684787,5.34145156 C28.8560213,5.48779199 29.2623085,4.73298347 29.9439468,3.76058986 C30.7931064,2.53787709 31.7096596,1.40373879 33.5716489,1.74455794 C35.4066809,2.08345156 36.3213085,3.67586645 35.9092447,5.91911113 C35.6088617,7.55966433 34.7789574,8.48777071 34.3360851,8.85939837 M20.9459362,5.03336645 L19.1744468,5.13349411 C19.1821489,4.84851539 19.2283617,3.85879199 18.5505745,2.8825473 C17.9652128,2.0314622 17.1930745,1.83890901 16.6442979,2.21631326 C15.899117,2.73620688 16.3054043,3.78369624 16.4979574,5.11231326 C16.709766,6.50447284 16.6000106,7.72333454 15.2309574,8.6745473 C13.7868085,9.6758239 12.0422766,9.08083454 10.9986383,7.57314305 C10.0416489,6.19253667 9.97810638,5.1508239 9.99543617,4.60974943 L11.7515213,4.46533454 C11.7630745,4.88895156 11.8728298,5.74966433 12.3734681,6.47173879 C12.8471489,7.15530262 13.4594681,7.38829199 14.0294255,6.99163241 C14.6879574,6.53720688 14.4376383,5.71500475 14.2296809,4.54620688 C13.9601064,3.08472816 13.8022128,1.63480262 15.3618936,0.556504751 C16.8965426,-0.506388866 18.671883,-0.030782483 19.971617,1.84661113 C20.9170532,3.21373879 20.996,4.45763241 20.9459362,5.03529199 M8.78235106,11.8208665 L7.6077766,13.1494835 C7.40752128,12.9396005 6.74128723,12.2098239 5.57248936,11.9999409 C4.55580851,11.8208665 3.87224468,12.2310048 3.75478723,12.8818345 C3.59304255,13.7772069 4.62512766,14.2277813 5.70342553,15.0326537 C6.83948936,15.8606324 7.62703191,16.800292 7.33435106,18.4408452 C7.02434043,20.1699728 5.37415957,20.9883239 3.56801064,20.6648345 C1.91397872,20.3702282 1.1283617,19.6770367 0.760585106,19.2842282 L1.8947234,17.9363558 C2.20280851,18.2290367 2.8902234,18.7566324 3.75671277,18.9126005 C4.57506383,19.0589409 5.17197872,18.7893665 5.29521277,18.1058026 C5.4357766,17.3182601 4.67904255,16.9158239 3.70279787,16.2399622 C2.47623404,15.3927282 1.33631915,14.4858026 1.6713617,12.6180367 C1.99870213,10.7830048 3.59111702,9.86067496 5.83628723,10.2631111 C7.47684043,10.555792 8.40879787,11.3799196 8.78235106,11.822792" id="Shape" fill="#00A7CE" fill-rule="nonzero"></path>
                <g id="Group" transform="translate(-0.000000, 25.203313)">
                    <g id="Clipped">
                        <mask id="mask-2" fill="white">
                            <use xlink:href="#path-1"></use>
                        </mask>
                        <g id="prefix__a"></g>
                        <path d="M5.01601064,0.0288829787 L5.12576596,1.79652128 C4.83693617,1.79074468 3.85106383,1.75030851 2.87674468,2.42617021 C2.02951064,3.02115957 1.83888298,3.79329787 2.2201383,4.3382234 C2.74003191,5.08340426 3.78559574,4.67134043 5.11806383,4.47301064 C6.50637234,4.2535 7.72908511,4.35747872 8.6822234,5.72268085 C9.69120213,7.16297872 9.10584043,8.90943617 7.60392553,9.9607766 C6.22524468,10.9235426 5.18160638,10.9928617 4.64630851,10.9755319 L4.48841489,9.22329787 C4.91203191,9.20981915 5.77467021,9.09428723 6.49289362,8.5917234 C7.17645745,8.11226596 7.40559574,7.49994681 7.00893617,6.93191489 C6.54680851,6.27723404 5.73038298,6.52755319 4.56351064,6.7451383 C3.09625532,7.0166383 1.65210638,7.18223404 0.562255319,5.62832979 C-0.504489362,4.10138298 -0.0385106383,2.32411702 1.83310638,1.01668085 C3.19638298,0.0596914894 4.43835106,-0.0192553191 5.01601064,0.0288829787" id="Path" fill="#00A7CE" fill-rule="nonzero" mask="url(#mask-2)"></path>
                    </g>
                </g>
                <path d="M11.8612766,37.3611218 L13.1937447,38.5318452 C12.9857872,38.730175 12.2579362,39.4021856 12.0538298,40.572909 C11.8766809,41.5895899 12.2906702,42.2712282 12.9453511,42.3867601 C13.8407234,42.5427282 14.2874468,41.5087175 15.084617,40.4265686 C15.9087447,39.2866537 16.8464787,38.4952601 18.4870319,38.7821643 C20.2180851,39.0825473 21.0441383,40.7288771 20.7245,42.5369516 C20.4356702,44.192909 19.7521064,44.9823771 19.3592979,45.3482282 L18.0056489,44.221792 C18.2983298,43.9137069 18.8220745,43.2205154 18.9741915,42.3559516 C19.1166809,41.535675 18.8451809,40.9406856 18.161617,40.8213026 C17.3721489,40.6865154 16.9716383,41.4432494 16.3015532,42.4233452 C15.4620213,43.6556856 14.5589468,44.797526 12.6892553,44.4701856 C10.8542234,44.1505473 9.92419149,42.563909 10.317,40.3148877 C10.6019787,38.6743345 11.4203298,37.738526 11.8632021,37.3611218 M25.2899362,41.0658452 L27.0556489,40.9503133 C27.0517979,41.239143 27.0132872,42.2250154 27.6987766,43.1954835 C28.293766,44.040792 29.0697553,44.2275686 29.6127553,43.8463133 C30.3560106,43.320643 29.9343191,42.2750792 29.7340638,40.9464622 C29.5049255,39.5562282 29.6069787,38.3354409 30.9664043,37.3746005 C32.4028511,36.3617707 34.151234,36.9394303 35.2083511,38.4374941 C36.1807447,39.8084728 36.2539149,40.8501856 36.2404362,41.3893345 L34.4843511,41.5530048 C34.4689468,41.1293877 34.3514894,40.268675 33.8450745,39.5504516 C33.3636915,38.8726643 32.7494468,38.6454516 32.1833404,39.0459622 C31.5286596,39.5080899 31.7886064,40.3264409 32.008117,41.4913877 C32.2873191,42.954792 32.4586915,44.402792 30.9105638,45.4964941 C29.3874681,46.5709409 27.6063511,46.1126643 26.2912128,44.2487494 C25.3303723,42.8873984 25.2417979,41.6454303 25.2899362,41.0658452 M37.3861277,34.1647388 L38.5491489,32.8322707 C38.7513298,33.0383026 39.4233404,33.7603771 40.5959894,33.9606324 C41.6165213,34.1339303 42.2943085,33.7180154 42.4059894,33.0633345 C42.5561809,32.1660367 41.5221702,31.7250899 40.4361702,30.9298452 C39.2943298,30.1095686 38.4990851,29.1776111 38.7744362,27.5370579 C39.0690426,25.8040792 40.7134468,24.9722494 42.5195957,25.278409 C44.1755532,25.5614622 44.9707979,26.2431005 45.3385745,26.6339835 L44.2198404,27.9914835 C43.9079043,27.7026537 43.2185638,27.1808345 42.3482234,27.0325686 C41.5298723,26.8939303 40.934883,27.1673558 40.8193511,27.8509196 C40.6845638,28.6423133 41.4451489,29.0389728 42.4271702,29.7032813 C43.6633617,30.5389622 44.8071277,31.4362601 44.4913404,33.3059516 C44.1794043,35.1467601 42.596617,36.080643 40.3495213,35.6993877 C38.705117,35.4240367 37.7635319,34.6056856 37.3861277,34.1647388 M35.7109149,25.5191005 L35.9554574,24.0788026 C36.1865213,24.1404196 36.9702128,24.3599303 37.8771383,23.9979303 C38.6666064,23.682143 38.9669894,23.0987069 38.766734,22.592292 C38.4875319,21.8952494 37.5729043,22.0300367 36.4676489,21.9337601 C35.3123298,21.8490367 34.3553404,21.535175 33.8489255,20.2604728 C33.3136277,18.9164516 34.1088723,17.6282707 35.5125851,17.0679409 C36.7969149,16.5557494 37.648,16.6963133 38.0773936,16.8137707 L37.8675106,18.248292 C37.5266915,18.1789728 36.8161702,18.1077282 36.1441596,18.3773026 C35.5068085,18.6276218 35.2045,19.0781962 35.4163085,19.6077175 C35.6608511,20.2200367 36.3675213,20.1738239 37.3418404,20.2181111 C38.5664787,20.2758771 39.7603085,20.4183665 40.3379681,21.8702175 C40.906,23.2951111 40.1954787,24.6314303 38.4509468,25.3284728 C37.1762447,25.8348877 36.1634149,25.6654409 35.7109149,25.5191005 M33.7199149,15.8105686 L32.8746064,14.6205899 C33.0767872,14.5012069 33.7873085,14.0987707 34.1704894,13.2014728 C34.5055319,12.4197069 34.3052766,11.7958345 33.8007872,11.580175 C33.1133723,11.2855686 32.5607447,12.0288239 31.7135106,12.7470473 C30.8393191,13.5037813 29.9381702,13.9601324 28.6788723,13.4209835 C27.3483298,12.8529516 26.997883,11.3779941 27.5928723,9.9896856 C28.1358723,8.71690901 28.8329149,8.21434518 29.2180213,7.99290901 L30.0883617,9.15207922 C29.7995319,9.34463241 29.2469043,9.79905794 28.9619255,10.4614409 C28.6942766,11.0949409 28.7982553,11.6244622 29.322,11.8478239 C29.9304681,12.1077707 30.3945213,11.5724728 31.1165957,10.9158665 C32.0235213,10.0878877 32.9631809,9.34463241 34.3977021,9.95695156 C35.809117,10.5615686 36.2539149,12.007643 35.5145106,13.7329196 C34.9792128,14.9960686 34.1435319,15.5910579 33.7199149,15.8105686 M25.4362766,10.3709409 L23.9959787,10.132175 C24.0537447,9.90303667 24.2694043,9.11741964 23.9054787,8.21241964 C23.5858404,7.42295156 23.0004787,7.12449411 22.4940638,7.32667496 C21.8008723,7.61165369 21.9356596,8.52628135 21.8490106,9.63153667 C21.7700638,10.7868558 21.4581277,11.7457707 20.1853511,12.2598877 C18.8432553,12.8028877 17.5512234,12.0095686 16.9889681,10.6077813 C16.4690745,9.32537709 16.6038617,8.47621752 16.7193936,8.0468239 L18.1558404,8.24707922 C18.0884468,8.5898239 18.0210532,9.30034518 18.2906277,9.97235581 C18.5486489,10.6077813 18.9953723,10.9043133 19.5268191,10.6925048 C20.1391383,10.4441111 20.0852234,9.73936645 20.1314362,8.76312177 C20.1815,7.53848347 20.3162872,6.34850475 21.7681383,5.76314305 C23.1911064,5.18548347 24.5293511,5.89215369 25.2321702,7.63476007 C25.7443617,8.90561113 25.578766,9.91844092 25.4343511,10.3709409 M15.7373723,12.4081537 L14.5512447,13.2573133 C14.4299362,13.0551324 14.0255745,12.3484622 13.1263511,11.9672069 C12.3426596,11.6360154 11.7207128,11.8420473 11.5089043,12.3446111 C11.2142979,13.0358771 11.9594787,13.5846537 12.6796277,14.4241856 C13.4440638,15.3003026 13.904266,16.195675 13.3689681,17.4588239 C12.8067128,18.7932175 11.3356064,19.1475154 9.94344681,18.5621537 C8.67067021,18.0230048 8.16232979,17.3298133 7.93704255,16.9447069 L9.09428723,16.0666643 C9.29069149,16.3554941 9.74511702,16.9061962 10.4132766,17.1873239 C11.0448511,17.4549728 11.5724468,17.347143 11.793883,16.8214728 C12.0499787,16.2130048 11.5146809,15.7528026 10.8542234,15.0307282 C10.0243191,14.1315048 9.27528723,13.1937707 9.87990426,11.7573239 C10.4768191,10.3401324 11.9209681,9.88955794 13.6520213,10.6193345 C14.9170957,11.1527069 15.5178617,11.9845367 15.7373723,12.4081537 M10.3381809,20.7168239 L10.103266,22.1590473 C9.87412766,22.1012813 9.08658511,21.8875473 8.18351064,22.2553239 C7.39596809,22.5788133 7.09943617,23.1661005 7.30739362,23.6705899 C7.59237234,24.3637813 8.507,24.2232175 9.61032979,24.3060154 C10.7656489,24.3830367 11.7284149,24.6872707 12.2483085,25.9561962 C12.7951596,27.2963665 12.007617,28.594175 10.6116064,29.1641324 C9.33112766,29.6878771 8.48004255,29.5569409 8.05064894,29.4433345 L8.24512766,28.0049622 C8.58787234,28.0723558 9.29839362,28.1358984 9.96847872,27.8624728 C10.6039043,27.602526 10.8985106,27.1519516 10.6809255,26.6262813 C10.4344574,26.0139622 9.72778723,26.0678771 8.75154255,26.0293665 C7.52690426,25.9812282 6.335,25.850292 5.7438617,24.4080686 C5.16042553,22.9851005 5.86324468,21.6430048 7.60007447,20.9324835 C8.869,20.4125899 9.88182979,20.5743345 10.3381809,20.7168239 M12.4158298,30.404175 L13.270766,31.5883771 C13.0705106,31.7096856 12.365766,32.1159728 11.9883617,33.0190473 C11.6610213,33.8046643 11.8689787,34.4285367 12.3734681,34.6364941 C13.0628085,34.9253239 13.607734,34.1743665 14.4491915,33.4503665 C15.3176064,32.6878558 16.2129787,32.2218771 17.4761277,32.7475473 C18.8143723,33.3059516 19.1782979,34.7770579 18.5948617,36.171143 C18.0653404,37.4477707 17.3702234,37.9561111 16.9870426,38.1833239 L16.1070745,37.0299303 C16.3939787,36.8354516 16.9408298,36.3752494 17.2200319,35.7070899 C17.4838298,35.0735899 17.3740745,34.5479196 16.8464787,34.3303345 C16.2380106,34.0742388 15.779734,34.6133877 15.0634362,35.2757707 C14.1642128,36.1133771 13.2341809,36.8662601 11.7900319,36.2635686 C10.3728404,35.6743558 9.91456383,34.2321324 10.6366383,32.4991537 C11.164234,31.2321537 11.9941383,30.6275367 12.4158298,30.404175 M20.7495319,35.7687069 L22.1917553,35.9939941 C22.1339894,36.2250579 21.9241064,37.0126005 22.2995851,37.9137494 C22.6230745,38.6993665 23.2122872,38.9939728 23.7167766,38.7821643 C24.4099681,38.4952601 24.2655532,37.5806324 24.3406489,36.4792282 C24.4118936,35.3219835 24.7161277,34.3592175 25.9812021,33.8335473 C27.3175213,33.2789941 28.6191809,34.0588345 29.1929894,35.4548452 C29.7244362,36.7353239 29.5973511,37.5825579 29.4856702,38.0158026 L28.0472979,37.8271005 C28.1108404,37.4843558 28.1724574,36.771909 27.8951809,36.1037494 C27.6333085,35.4683239 27.1846596,35.175643 26.6551383,35.3932282 C26.0466702,35.6493239 26.1044362,36.352143 26.0659255,37.3283877 C26.0274149,38.5549516 25.9041809,39.7468558 24.4600319,40.3437707 C23.0409149,40.9329835 21.6968936,40.239792 20.9786702,38.5048877 C20.453,37.2378877 20.6089681,36.2231324 20.7495319,35.7687069 M30.4311064,33.6448452 L31.6056809,32.7841324 C31.7289149,32.9863133 32.1409787,33.6891324 33.0440532,34.0607601 C33.8296702,34.3842494 34.451617,34.1743665 34.6615,33.6698771 C34.9445532,32.9747601 34.1935957,32.4317601 33.4657447,31.5999303 C32.6955319,30.7334409 32.2276277,29.8419196 32.7494468,28.5729941 C33.2982234,27.2347494 34.7674043,26.8631218 36.167266,27.4369303 C37.4458191,27.964526 37.9580106,28.655792 38.1852234,29.0370473 L37.0356809,29.9247175 C36.8392766,29.6397388 36.3790745,29.0909622 35.7089894,28.8175367 C35.0754894,28.5556643 34.5498191,28.6692707 34.3303085,29.1968665 C34.0799894,29.8072601 34.6191383,30.2636111 35.2872979,30.9760579 C36.1268298,31.8695048 36.8854894,32.7995367 36.2905,34.2417601 C35.7051383,35.6628026 34.266766,36.1287813 32.5299362,35.414409 C31.2590851,34.8945154 30.6525426,34.0665367 30.4311064,33.6448452 M30.827766,26.7437388 L31.2629362,25.9042069 C31.3919468,25.9850792 31.8348191,26.2777601 32.4683191,26.2315473 C33.0190213,26.1930367 33.3194043,25.8926537 33.2943723,25.5383558 C33.2616383,25.0550473 32.6666489,24.9549196 32.004266,24.6795686 C31.3072234,24.3984409 30.7777021,24.0133345 30.7180106,23.1275899 C30.650617,22.1917813 31.3977234,21.5525048 32.3739681,21.4831856 C33.2731915,21.4215686 33.7680532,21.6757388 34.0106702,21.8336324 L33.5986064,22.6770154 C33.4022021,22.5653345 32.974734,22.3843345 32.5068298,22.415143 C32.0639574,22.4459516 31.7905319,22.6635367 31.8136383,23.0313133 C31.8463723,23.4607069 32.2930957,23.5704622 32.884234,23.7918984 C33.6294149,24.0711005 34.3399362,24.3926643 34.4054043,25.401643 C34.4785745,26.397143 33.7738298,27.0807069 32.5568936,27.1673558 C31.6711489,27.2289728 31.0800106,26.9247388 30.8296915,26.7437388 M31.1435532,20.1353133 L30.8547234,19.2341643 C31.0068404,19.1975792 31.5248085,19.091675 31.9387979,18.6122175 C32.2988723,18.1943771 32.2988723,17.7688345 32.0292979,17.5358452 C31.6634468,17.2181324 31.1762872,17.5685792 30.5100532,17.8439303 C29.8187872,18.1404622 29.173734,18.2444409 28.5017234,17.6629303 C27.7912021,17.0467601 27.8662979,16.0685899 28.5075,15.3272601 C29.0947872,14.6494728 29.6243085,14.476175 29.9073617,14.4145579 L30.2154468,15.3041537 C29.9997872,15.3657707 29.5684681,15.5352175 29.260383,15.8914409 C28.9677021,16.2264835 28.9291915,16.5750048 29.2103191,16.8176218 C29.5338085,17.0987494 29.926617,16.8599835 30.5004255,16.5961856 C31.2263511,16.2630686 31.9522766,15.989643 32.7205638,16.652026 C33.4715213,17.3028558 33.4618936,18.2848771 32.6666489,19.2052813 C32.0832128,19.8792175 31.4497128,20.0833239 31.1435532,20.1353133 M26.6820957,15.2483133 L25.8387128,14.8150686 C25.9215106,14.6860579 26.2103404,14.2431856 26.1622021,13.6096856 C26.121766,13.060909 25.8194574,12.7624516 25.4670851,12.7874835 C24.9837766,12.8240686 24.8855745,13.4171324 24.6140745,14.0795154 C24.3348723,14.7784835 23.953617,15.3118558 23.0659468,15.3792494 C22.1301383,15.4485686 21.4889362,14.7033877 21.4138404,13.723292 C21.3464468,12.8298452 21.6025426,12.3311324 21.7546596,12.0904409 L22.6057447,12.4967282 C22.4940638,12.6969835 22.3111383,13.1206005 22.3457979,13.5904303 C22.3804574,14.0333026 22.5980426,14.3067282 22.9677447,14.2797707 C23.3932872,14.2470367 23.5030426,13.8022388 23.7225532,13.2072494 C23.9959787,12.460143 24.315617,11.7496218 25.3245957,11.6764516 C26.3181702,11.5994303 27.0075106,12.3022494 27.0980106,13.5153345 C27.1634787,14.4049303 26.8611702,14.9960686 26.6820957,15.2483133 M20.0717447,14.9633345 L19.1705957,15.2540899 C19.1359362,15.1058239 19.0261809,14.5878558 18.5447979,14.175792 C18.1250319,13.8157175 17.7033404,13.8195686 17.4684255,14.089143 C17.1545638,14.4569196 17.5069362,14.9460048 17.7842128,15.6064622 C18.0826702,16.2958026 18.1905,16.9427813 17.6109149,17.614792 C17.0024468,18.3310899 16.0204255,18.2579196 15.2771702,17.6224941 C14.5955319,17.0371324 14.4203085,16.5076111 14.356766,16.228409 L15.2463617,15.9126218 C15.3079787,16.1302069 15.4832021,16.5596005 15.8375,16.8657601 C16.1763936,17.1545899 16.5229894,17.1931005 16.7636809,16.9119728 C17.042883,16.5846324 16.8021915,16.195675 16.5364681,15.6199409 C16.2014255,14.8978665 15.9222234,14.1719409 16.5826809,13.4036537 C17.227734,12.6488452 18.2116809,12.6526962 19.1378617,13.4460154 C19.8137234,14.023675 20.0197553,14.6591005 20.0717447,14.9633345 M15.204,19.4459728 L14.7765319,20.2893558 C14.6475213,20.2084835 14.2027234,19.9235048 13.5711489,19.9735686 C13.0185213,20.0159303 12.7239149,20.3201643 12.7508723,20.6725367 C12.789383,21.1577707 13.3824468,21.2521218 14.0486809,21.5197707 C14.7476489,21.7970473 15.2810213,22.1744516 15.352266,23.0621218 C15.4235106,23.9979303 14.6821809,24.6429835 13.7078617,24.7200048 C12.8105638,24.7912494 12.3137766,24.5428558 12.0711596,24.3907388 L12.4755213,23.5377282 C12.6719255,23.6455579 13.0993936,23.8265579 13.5692234,23.7899728 C14.0101702,23.7553133 14.2816702,23.5358026 14.2527872,23.1661005 C14.2200532,22.7405579 13.7714043,22.6327282 13.1764149,22.415143 C12.431234,22.1455686 11.7187872,21.8297813 11.6359894,20.8188771 C11.5589681,19.8272282 12.2598617,19.1340367 13.4710213,19.0396856 C14.356766,18.9684409 14.9536809,19.2707494 15.204,19.4459728 M14.9517553,26.0582494 L15.2463617,26.9574728 C15.0980957,26.9921324 14.5820532,27.1038133 14.1680638,27.5890473 C13.813766,28.0088133 13.817617,28.4362813 14.0871915,28.6634941 C14.4588191,28.9792813 14.9440532,28.6249835 15.6045106,28.3438558 C16.2919255,28.0415473 16.9389043,27.9298665 17.614766,28.5056005 C18.3310638,29.1140686 18.2655957,30.0960899 17.6320957,30.8412707 C17.0486596,31.5248345 16.5191383,31.7019835 16.2399362,31.765526 L15.9202979,30.8797813 C16.1398085,30.8181643 16.5692021,30.6429409 16.8734362,30.2828665 C17.1603404,29.9439728 17.1969255,29.5973771 16.9157979,29.3586111 C16.5884574,29.079409 16.1975745,29.322026 15.6256915,29.589675 C14.9055426,29.9304941 14.1776915,30.2116218 13.4074787,29.5569409 C12.6468936,28.9118877 12.6468936,27.9260154 13.4382872,26.997909 C14.0120957,26.3239728 14.6455957,26.1121643 14.9517553,26.0582494 M19.4555745,30.9028877 L20.3028085,31.3284303 C20.2219362,31.4593665 19.9369574,31.9060899 19.9889468,32.5357388 C20.0351596,33.0864409 20.3413191,33.3829728 20.6936915,33.3540899 C21.1789255,33.3155792 21.2713511,32.7186643 21.5370745,32.0505048 C21.8066489,31.3515367 22.1859787,30.8162388 23.0717234,30.7430686 C24.0075319,30.6621962 24.6564362,31.4016005 24.735383,32.3797707 C24.8124043,33.2732175 24.5659362,33.7738558 24.4138191,34.0164728 L23.558883,33.6178877 C23.6667128,33.4195579 23.8477128,32.9920899 23.8092021,32.5241856 C23.7706915,32.0793877 23.5511809,31.8098133 23.1814787,31.8386962 C22.7520851,31.8752813 22.6481064,32.3239303 22.4343723,32.9208452 C22.1686489,33.6679516 21.8528617,34.3803984 20.843883,34.4651218 C19.8541596,34.5479196 19.157117,33.8528026 19.0550638,32.641643 C18.9818936,31.7539728 19.2803511,31.1589835 19.4555745,30.9048133 M26.0717021,31.1301005 L26.969,30.8297175 C27.0036596,30.9779835 27.1191915,31.494026 27.6044255,31.9022388 C28.026117,32.2584622 28.4516596,32.2507601 28.6788723,31.9792601 C28.992734,31.6095579 28.6345851,31.1243239 28.3515319,30.4638665 C28.0472979,29.7783771 27.9298404,29.1333239 28.5055745,28.4536111 C29.1101915,27.7334622 30.0902872,27.7950792 30.8393191,28.4285792 C31.5248085,29.0062388 31.7058085,29.5338345 31.7732021,29.8149622 L30.8855319,30.136526 C30.8239149,29.9189409 30.646766,29.4895473 30.284766,29.1891643 C29.9439468,28.9003345 29.5992766,28.8676005 29.3605106,29.1506537 C29.083234,29.4779941 29.3277766,29.8669516 29.5992766,30.4407601 C29.9420213,31.1570579 30.2250745,31.8829835 29.5723191,32.6551218 C28.931117,33.4176324 27.9490957,33.4195579 27.0171383,32.6358665 C26.3355,32.0620579 26.125617,31.4343345 26.0697766,31.1301005 M27.4619362,26.8823771 L27.8990319,26.4125473 C27.9683511,26.4895686 28.207117,26.759143 28.626883,26.8477175 C28.992734,26.9228133 29.2430532,26.7803239 29.2950426,26.5415579 C29.3585851,26.2199941 28.988883,26.0466962 28.6057021,25.7463133 C28.2013404,25.4382282 27.9240638,25.0916324 28.0472979,24.4985686 C28.1724574,23.8727707 28.7770745,23.5935686 29.4279043,23.7225792 C30.0248191,23.8477388 30.3040213,24.101909 30.4349574,24.2482494 L30.0113404,24.7296324 C29.9015851,24.6179516 29.6570426,24.4215473 29.3451064,24.3599303 C29.0505,24.2983133 28.8309894,24.3907388 28.779,24.6372069 C28.721234,24.9221856 28.9946596,25.0723771 29.3412553,25.3284728 C29.7764255,25.6442601 30.1846383,25.9831537 30.0479255,26.6570899 C29.9131383,27.3194728 29.3258511,27.6391111 28.5171277,27.4754409 C27.9240638,27.3541324 27.5928723,27.0441218 27.4619362,26.8823771 M28.8675745,22.6192494 L28.8444681,21.9761218 C28.9484468,21.9818984 29.3065957,22.0050048 29.6647447,21.7662388 C29.9766809,21.5621324 30.0498511,21.2810048 29.9189149,21.0788239 C29.7359894,20.8053984 29.3528085,20.9478877 28.8714255,21.0075792 C28.3650106,21.0749728 27.9221383,21.0268345 27.5890213,20.5223452 C27.2366489,19.9928239 27.4638617,19.3651005 28.0145638,18.9973239 C28.5229043,18.6603558 28.9003085,18.643026 29.0986383,18.6545792 L29.1390745,19.2919303 C28.9850319,19.2919303 28.6711702,19.3265899 28.4073723,19.5037388 C28.1570532,19.6693345 28.0684787,19.8888452 28.2051915,20.1006537 C28.3650106,20.3413452 28.6673191,20.2566218 29.0909362,20.1892282 C29.6243085,20.1025792 30.1499787,20.0563665 30.531234,20.6282494 C30.9047872,21.1924303 30.7199362,21.8317069 30.0305957,22.2899835 C29.5280319,22.6231005 29.0755319,22.6404303 28.8675745,22.6192494 M26.8380638,18.6122175 L26.364383,18.1789728 C26.4433298,18.1096537 26.7109787,17.8708877 26.7957021,17.4491962 C26.8707979,17.0794941 26.726383,16.833026 26.487617,16.7848877 C26.1660532,16.7213452 25.9946809,17.0891218 25.6962234,17.4761537 C25.3881383,17.8805154 25.0415426,18.161643 24.4504043,18.0422601 C23.8246064,17.919026 23.5396277,17.314409 23.6686383,16.6616537 C23.7880213,16.0647388 24.044117,15.7855367 24.1885319,15.6546005 L24.6699149,16.0743665 C24.5620851,16.1841218 24.3656809,16.4305899 24.3040638,16.7444516 C24.2462979,17.0390579 24.3387234,17.256643 24.5851915,17.3067069 C24.8701702,17.3644728 25.0203617,17.0910473 25.2726064,16.742526 C25.5864681,16.3035048 25.9272872,15.8972175 26.6012234,16.0320048 C27.2616809,16.1629409 27.5832447,16.7463771 27.4253511,17.557026 C27.3059681,18.1481643 26.997883,18.4812813 26.8380638,18.6122175 M22.567234,17.2277601 L21.9241064,17.256643 C21.929883,17.1526643 21.9510638,16.7945154 21.7122979,16.4363665 C21.5024149,16.1244303 21.2232128,16.0512601 21.0268085,16.1841218 C20.7495319,16.3670473 20.8920213,16.7521537 20.9555638,17.2316111 C21.024883,17.738026 20.9786702,18.1808984 20.4761064,18.5159409 C19.9465851,18.8721643 19.3207872,18.6468771 18.9491596,18.096175 C18.610266,17.5897601 18.5910106,17.2123558 18.6025638,17.0178771 L19.2379894,16.9716643 C19.2399149,17.1257069 19.2765,17.4395686 19.4517234,17.7033665 C19.6211702,17.9536856 19.8426064,18.0422601 20.0524894,17.9016962 C20.2931809,17.7399516 20.2065319,17.4395686 20.1352872,17.0159516 C20.0486383,16.4845048 19.9985745,15.956909 20.5666064,15.5756537 C21.1288617,15.200175 21.7719894,15.3831005 22.2321915,16.0685899 C22.5691596,16.5673026 22.5884149,17.0198026 22.567234,17.2277601 M18.5717553,19.276526 L18.1365851,19.7502069 C18.067266,19.6731856 17.8285,19.4074622 17.404883,19.3265899 C17.0390319,19.2514941 16.7887128,19.395909 16.7425,19.634675 C16.680883,19.9543133 17.0505851,20.1256856 17.4356915,20.4222175 C17.8458298,20.7283771 18.1250319,21.0749728 18.0095,21.6661111 C17.890117,22.291909 17.2855,22.5768877 16.6346702,22.4555792 C16.0377553,22.3381218 15.7527766,22.082026 15.623766,21.9376111 L16.0416064,21.4543026 C16.1513617,21.5621324 16.3997553,21.7604622 16.7116915,21.8201537 C17.0082234,21.8779196 17.2258085,21.781643 17.2739468,21.535175 C17.3278617,21.2501962 17.0563617,21.1000048 16.7059149,20.8496856 C16.2649681,20.5358239 15.8586809,20.2007813 15.9915426,19.5268452 C16.1186277,18.8644622 16.7001383,18.5371218 17.5127128,18.6969409 C18.1057766,18.8124728 18.4388936,19.1147813 18.5717553,19.2746005 M17.2046277,23.5531324 L17.2354362,24.1943345 C17.1314574,24.1904835 16.7733085,24.1712282 16.4170851,24.4138452 C16.1051489,24.6218026 16.0319787,24.9010048 16.166766,25.1012601 C16.351617,25.3746856 16.7347979,25.2283452 17.2181064,25.1648026 C17.7225957,25.0916324 18.1635426,25.1397707 18.5024362,25.6365579 C18.8586596,26.1641537 18.6372234,26.7938026 18.0884468,27.1692813 C17.5839574,27.508175 17.2046277,27.5293558 17.0101489,27.5216537 L16.9639362,26.8823771 C17.1179787,26.878526 17.4318404,26.8438665 17.6917872,26.664792 C17.9459574,26.4953452 18.0306809,26.2758345 17.890117,26.0678771 C17.7264468,25.8252601 17.4279894,25.9138345 17.0043723,25.9850792 C16.4729255,26.0775048 15.9453298,26.1275686 15.5602234,25.5576111 C15.1808936,24.9992069 15.3599681,24.3580048 16.0435319,23.8939516 C16.5441702,23.5550579 16.9947447,23.5338771 17.2046277,23.5531324 M19.2707234,27.5389835 L19.7482553,27.9703026 C19.671234,28.0415473 19.4016596,28.2803133 19.3246383,28.7020048 C19.2533936,29.0717069 19.4016596,29.322026 19.6365745,29.3663133 C19.9600638,29.4279303 20.1256596,29.0543771 20.4221915,28.6692707 C20.7264255,28.2610579 21.0730213,27.9760792 21.6641596,28.0896856 C22.2899574,28.207143 22.5807128,28.807909 22.4574787,29.4625899 C22.3419468,30.0595048 22.0897021,30.3425579 21.9472128,30.4754196 L21.4581277,30.0575792 C21.5698085,29.9478239 21.7623617,29.7032813 21.8220532,29.3874941 C21.8759681,29.0909622 21.781617,28.8753026 21.5370745,28.8290899 C21.2520957,28.7713239 21.1019043,29.046675 20.8515851,29.3951962 C20.5435,29.8399941 20.2084574,30.2462813 19.5325957,30.1211218 C18.8702128,29.9940367 18.5409468,29.4144516 18.6969149,28.5999516 C18.8047447,28.0088133 19.1109043,27.6756962 19.2707234,27.5389835 M23.5531064,28.8868558 L24.1943085,28.8541218 C24.1904574,28.9581005 24.1731277,29.3162494 24.4157447,29.6705473 C24.6275532,29.9805579 24.9067553,30.0537282 25.1070106,29.9170154 C25.3765851,29.7302388 25.2340957,29.3489835 25.1647766,28.8676005 C25.0935319,28.3611856 25.1339681,27.9202388 25.6326809,27.5794196 C26.1583511,27.2212707 26.788,27.4388558 27.1634787,27.9837813 C27.5062234,28.4901962 27.5293298,28.865675 27.5216277,29.0620792 L26.8842766,29.1102175 C26.8804255,28.9581005 26.8419149,28.6461643 26.6628404,28.384292 C26.4933936,28.1339728 26.2719574,28.0492494 26.0659255,28.1917388 C25.825234,28.3534835 25.9138085,28.6538665 25.9889043,29.0774835 C26.0813298,29.6089303 26.1352447,30.1346005 25.5672128,30.5216324 C25.0088085,30.9028877 24.3656809,30.7257388 23.8997021,30.046026 C23.5608085,29.5473133 23.5338511,29.0967388 23.5531064,28.8868558 M25.0742766,26.3605579 L25.4459043,26.150675 C25.4747872,26.212292 25.5691383,26.4318026 25.8175319,26.5723665 C26.035117,26.6917494 26.2218936,26.6493877 26.302766,26.5107494 C26.4067447,26.3181962 26.2064894,26.1352707 26.0254894,25.8695473 C25.8310106,25.5922707 25.7251064,25.3188452 25.9176596,24.9664728 C26.1236915,24.6006218 26.5627128,24.5409303 26.9478191,24.7546643 C27.302117,24.9510686 27.4253511,25.1686537 27.479266,25.2861111 L27.117266,25.5056218 C27.0691277,25.4151218 26.9516702,25.2418239 26.7687447,25.1378452 C26.5935213,25.0415686 26.4375532,25.0569728 26.3586064,25.2033133 C26.2623298,25.3708345 26.4048191,25.5229516 26.574266,25.7520899 C26.7860745,26.0370686 26.9747766,26.3336005 26.755266,26.7321856 C26.5376809,27.1269196 26.1025106,27.211643 25.6249787,26.9459196 C25.2745319,26.7533665 25.1243404,26.4914941 25.0742766,26.3605579 M26.8130319,23.9420899 L26.9285638,23.5319516 C26.9901809,23.5550579 27.211617,23.6417069 27.4869681,23.5627601 C27.725734,23.4934409 27.8297128,23.3316962 27.7835,23.1776537 C27.725734,22.9696962 27.454234,22.9812494 27.1365213,22.9234835 C26.8014787,22.8657175 26.5299787,22.7463345 26.4240745,22.3612282 C26.3046915,21.9568665 26.574266,21.6044941 26.9959574,21.4812601 C27.3810638,21.3695792 27.6256064,21.4350473 27.7469149,21.4793345 L27.6467872,21.8913984 C27.5505106,21.8625154 27.3464043,21.8220792 27.1422979,21.8779196 C26.9497447,21.9337601 26.8515426,22.0569941 26.8977553,22.2168133 C26.9516702,22.4035899 27.1577021,22.4093665 27.4369043,22.4478771 C27.7931277,22.501792 28.1339468,22.5768877 28.2610319,23.015909 C28.3861915,23.4453026 28.1397234,23.8130792 27.6140532,23.9651962 C27.2289468,24.0768771 26.940117,23.9998558 26.8130319,23.9420899 M26.3258723,21.0037282 L26.1140638,20.634026 C26.1756809,20.605143 26.393266,20.5088665 26.5319043,20.2585473 C26.6532128,20.0409622 26.6089255,19.8541856 26.4722128,19.7771643 C26.2796596,19.6712601 26.096734,19.8715154 25.8310106,20.0563665 C25.553734,20.2508452 25.278383,20.358675 24.9279362,20.1661218 C24.558234,19.9639409 24.4985426,19.5249196 24.7103511,19.1398133 C24.9067553,18.7855154 25.1224149,18.6584303 25.2398723,18.6045154 L25.4613085,18.9665154 C25.3708085,19.0127282 25.1975106,19.1301856 25.0954574,19.3131111 C24.9991809,19.4921856 25.0165106,19.6462282 25.1609255,19.7271005 C25.3303723,19.8214516 25.4805638,19.6789622 25.7077766,19.5095154 C25.9966064,19.2919303 26.2912128,19.1051537 26.6897979,19.3208133 C27.0826064,19.5383984 27.1711809,19.9697175 26.907383,20.453026 C26.7148298,20.8034728 26.4568085,20.9536643 26.3258723,21.0037282 M23.8997021,19.276526 L23.4876383,19.1648452 C23.5107447,19.0993771 23.5973936,18.8779409 23.5145957,18.6064409 C23.4472021,18.3638239 23.2835319,18.2636962 23.1333404,18.3079835 C22.9215319,18.3696005 22.9369362,18.6411005 22.8791702,18.9588133 C22.8233298,19.2919303 22.7039468,19.5634303 22.320766,19.6751111 C21.9164043,19.7944941 21.5621064,19.5268452 21.4388723,19.1051537 C21.3233404,18.7161962 21.386883,18.4735792 21.4311702,18.3541962 L21.8451596,18.4504728 C21.8143511,18.548675 21.7758404,18.7547069 21.8355319,18.9568877 C21.8894468,19.1494409 22.0126809,19.247643 22.1744255,19.2033558 C22.3573511,19.1455899 22.3631277,18.9414835 22.4035638,18.6565048 C22.4536277,18.3022069 22.5267979,17.9613877 22.9619681,17.8323771 C23.3932872,17.705292 23.7649149,17.947909 23.9189574,18.4755048 C24.0306383,18.8586856 23.9574681,19.1475154 23.8997021,19.276526 M20.963266,19.7771643 L20.5974149,19.9908984 C20.5646809,19.9254303 20.4684043,19.7116962 20.2180851,19.5749835 C19.9985745,19.4556005 19.8117979,19.4979622 19.7367021,19.6366005 C19.6307979,19.8291537 19.8329787,20.0120792 20.0178298,20.2758771 C20.214234,20.5531537 20.3259149,20.8246537 20.1333617,21.1751005 C19.9292553,21.5486537 19.4921596,21.6102707 19.1051277,21.4003877 C18.7508298,21.2078345 18.6237447,20.992175 18.5698298,20.8747175 L18.9299043,20.6513558 C18.9780426,20.7399303 19.0935745,20.9151537 19.2803511,21.0152813 C19.4555745,21.1115579 19.6134681,21.0961537 19.6924149,20.9478877 C19.7829149,20.7784409 19.6385,20.630175 19.4690532,20.4010367 C19.2553191,20.1160579 19.062766,19.8233771 19.2803511,19.4190154 C19.4940851,19.0262069 19.9273298,18.9376324 20.4106383,19.1975792 C20.7610851,19.3882069 20.9112766,19.6481537 20.963266,19.7771643 M19.247617,22.2110367 L19.1378617,22.6231005 C19.0723936,22.5999941 18.8490319,22.5152707 18.5756064,22.5980686 C18.3368404,22.6693133 18.2367128,22.8310579 18.281,22.983175 C18.3445426,23.1930579 18.6160426,23.1795792 18.9337553,23.2334941 C19.2668723,23.2893345 19.5383723,23.4029409 19.6519787,23.7880473 C19.7732872,24.1943345 19.5094894,24.5486324 19.0877979,24.673792 C18.7026915,24.7893239 18.4562234,24.7257813 18.3349149,24.6834196 L18.4311915,24.2694303 C18.5274681,24.2983133 18.7335,24.3387494 18.9356809,24.2771324 C19.128234,24.221292 19.2283617,24.0980579 19.1802234,23.9382388 C19.1224574,23.7533877 18.9183511,23.7495367 18.6352979,23.711026 C18.2790745,23.6628877 17.9363298,23.587792 17.8073191,23.1526218 C17.6783085,22.7232282 17.919,22.353526 18.4446702,22.1956324 C18.8278511,22.0801005 19.1186064,22.1571218 19.247617,22.2110367 M19.7598085,25.1455473 L19.9754681,25.5113984 C19.9119255,25.5422069 19.6981915,25.640409 19.5595532,25.8926537 C19.4440213,26.1121643 19.486383,26.2970154 19.6288723,26.3740367 C19.8214255,26.4760899 20.0024255,26.2758345 20.2642979,26.0871324 C20.5396489,25.8907282 20.8130745,25.7828984 21.1654468,25.9716005 C21.5370745,26.1699303 21.600617,26.607026 21.3945851,26.997909 C21.2020319,27.3522069 20.9863723,27.479292 20.8669894,27.5351324 L20.6436277,27.1750579 C20.7322021,27.1269196 20.9055,27.0094622 21.0075532,26.8246111 C21.1038298,26.6474622 21.0845745,26.4914941 20.9363085,26.4125473 C20.7668617,26.3201218 20.6185957,26.4645367 20.391383,26.6339835 C20.1064043,26.8534941 19.8137234,27.0441218 19.4093617,26.8303877 C19.0165532,26.6185792 18.9260532,26.1853345 19.1840745,25.702026 C19.3727766,25.3496537 19.6327234,25.1994622 19.761734,25.1455473 M22.201383,26.849643 L22.6153723,26.9574728 C22.592266,27.0248665 22.5075426,27.2443771 22.592266,27.5197282 C22.6654362,27.7565686 22.8252553,27.8566962 22.9773723,27.812409 C23.1872553,27.7469409 23.1737766,27.4773665 23.2276915,27.1577282 C23.2796809,26.8246111 23.3932872,26.5550367 23.7783936,26.4375792 C24.1827553,26.3124196 24.5370532,26.578143 24.6641383,26.9998345 C24.7815957,27.388792 24.7219043,27.6294835 24.6795426,27.7527175 L24.2655532,27.6564409 C24.2944362,27.5601643 24.3329468,27.3541324 24.2694043,27.1519516 C24.2116383,26.9593984 24.0884043,26.8631218 23.9285851,26.9112601 C23.7456596,26.9671005 23.7418085,27.1731324 23.7032979,27.4542601 C23.6590106,27.8104835 23.587766,28.1532282 23.1506702,28.2880154 C22.7193511,28.417026 22.3515745,28.1763345 22.1917553,27.6545154 C22.0742979,27.269409 22.1474681,26.9805792 22.201383,26.849643" id="Shape" fill="#00A7CE" fill-rule="nonzero"></path>
            </g>
        </g>
    </g>
</svg>