<?xml version="1.0" encoding="UTF-8"?>
<svg width="181px" height="49px" viewBox="0 0 181 49" version="1.1" xmlns="http://www.w3.org/2000/svg" xmlns:xlink="http://www.w3.org/1999/xlink">
    <title>logo_spower copy</title>
    <defs>
        <polygon id="path-1" points="0 0.0196904676 9.39235305 0.0196904676 9.39235305 11.2275046 0 11.2275046"></polygon>
    </defs>
    <g id="Page-1" stroke="none" stroke-width="1" fill="none" fill-rule="evenodd">
        <g id="logo_spower-copy">
            <path d="M52.5203297,33.7805102 L55.367136,30.2196092 C56.190355,30.9317894 57.8023328,32.2814858 60.6510536,32.2814858 C63.312157,32.2814858 64.3976575,31.0811175 64.3976575,29.5093435 C64.3976575,27.8227017 63.2738678,27.1105215 60.5763895,24.9739809 C58.2905208,23.1016362 56.0429414,21.1527129 56.0429414,17.5937264 C56.0429414,13.0239035 59.6383027,10.697831 64.3976575,10.697831 C68.2572147,10.697831 70.1295594,12.0111526 71.1442247,12.7960824 L68.6707387,16.4680222 C67.8092304,15.7941313 66.4212448,14.8598734 64.2483294,14.8598734 C62.1117888,14.8598734 61.1009524,15.7941313 61.1009524,17.3678198 C61.1009524,18.9415083 62.2630313,19.7685563 64.5106108,21.5298621 C66.9458076,23.4002924 69.5686218,25.2745516 69.5686218,29.1360232 C69.5686218,33.4435647 66.4978233,36.5526525 60.4634362,36.5526525 C56.0410269,36.5526525 53.6058301,34.7568863 52.5184152,33.7824247 M90.1586702,23.212675 C93.8688993,23.212675 95.5555411,21.3039555 95.5555411,18.3824851 C95.5555411,16.3588978 94.429837,15.1968189 91.6557802,15.1968189 L89.1861231,15.1968189 L87.7617627,23.2145895 L90.1586702,23.2145895 L90.1586702,23.212675 Z M84.6890497,11.1515588 L92.519203,11.1515588 C97.3895966,11.1515588 100.873919,13.5120915 100.873919,17.8215475 C100.873919,24.1507618 96.2658069,27.2234748 89.5594433,27.2234748 L87.0132077,27.2234748 L85.4395192,36.1027537 L80.2704694,36.1027537 L84.6890497,11.1515588 Z M113.651044,25.0505594 C113.651044,22.5406985 112.751247,21.1163381 110.915277,21.1163381 C107.844478,21.1163381 105.93193,25.4621689 105.93193,28.8354525 C105.93193,31.2323601 106.831728,32.8060486 108.744276,32.8060486 C111.926113,32.8060486 113.651044,28.3836393 113.651044,25.0505594 M100.988787,28.9464914 C100.988787,22.6153626 105.409282,17.3697342 111.290512,17.3697342 C115.936913,17.3697342 118.559727,20.6300646 118.559727,24.9758953 C118.559727,31.5693056 114.324935,36.5526525 108.292463,36.5526525 C103.535022,36.5526525 100.988787,33.1066193 100.988787,28.9464914 M120.657979,17.8560078 L125.71599,17.8560078 L126.165888,26.5476694 C126.202263,28.1979364 126.165888,29.7716249 126.165888,30.2196092 L126.242467,30.2196092 L131.93608,17.8560078 L136.205332,17.8560078 L136.729895,26.3619665 C136.844762,28.1979364 136.844762,29.7333356 136.844762,30.1085704 L136.917512,30.1085704 L142.387133,17.8560078 L147.334105,17.8560078 L138.416536,36.1027537 L133.921378,36.1027537 L133.059869,23.5515349 L132.983291,23.5515349 L126.80149,36.1027537 L122.493949,36.1027537 L120.657979,17.8579223 L120.657979,17.8560078 Z M152.281077,26.1743491 C155.989391,25.7991144 158.499252,24.5623714 158.499252,22.6517374 C158.499252,21.640901 157.938315,21.1527129 156.776236,21.1527129 C154.490367,21.1527129 152.918593,23.5132457 152.281077,26.1743491 M147.112027,29.2451476 C147.112027,22.4296597 151.756514,17.3697342 157.599455,17.3697342 C161.083777,17.3697342 163.183943,19.0927509 163.183943,22.0888853 C163.183943,26.5495838 158.087643,28.6095459 152.018795,29.2834369 C152.131749,31.3816882 152.880304,32.6184312 154.903891,32.6184312 C156.814525,32.6184312 158.388213,31.6803444 159.550292,30.7077973 L161.459012,33.9298383 C159.998277,35.1282921 157.712408,36.5526525 154.117047,36.5526525 C149.508935,36.5526525 147.110113,33.556518 147.110113,29.2451476 M168.393197,17.8560078 L173.075973,17.8560078 C172.926645,19.2057042 172.476746,21.3786196 172.176175,22.4277452 L172.250839,22.4277452 C173.487582,20.0672125 175.47288,17.3697342 178.245023,17.3697342 C179.106531,17.3697342 179.855086,17.5190624 180.343274,17.744969 L178.694921,22.4277452 C178.321601,22.2401279 177.795124,22.0907998 177.121233,22.0907998 C174.573083,22.0907998 171.952183,24.5259966 170.190877,34.6037293 L169.928596,36.1027537 L165.096491,36.1027537 L168.393197,17.8579223 L168.393197,17.8560078 Z M72.7676893,21.1163381 L79.1294495,21.1163381 L78.3808945,25.2381768 L72.0535946,25.2381768 L72.7676893,21.1163381 Z" id="Shape" fill="#FFFFFF" fill-rule="nonzero"></path>
            <path d="M41.9958293,21.5295573 L41.9032841,19.7180343 C42.1986411,19.7278795 43.2087621,19.7810438 44.2070688,19.0938464 C45.0793565,18.4952562 45.2821683,17.7056685 44.9001733,17.1444901 C44.3744378,16.3805 43.2993383,16.7920308 41.9367579,16.9830283 C40.5131371,17.1937163 39.2667305,17.0736045 38.3018976,15.6696741 C37.2839004,14.188951 37.898243,12.4089327 39.4459138,11.3456474 C40.8636274,10.3749074 41.9288817,10.3138669 42.4802148,10.3355264 L42.6219862,12.1312971 C42.1887959,12.1391733 41.308632,12.2494399 40.5663014,12.759423 C39.8672898,13.2398704 39.625097,13.8640582 40.0267825,14.4488651 C40.4914776,15.1262172 41.3302915,14.8722102 42.5274719,14.6654603 C44.0278856,14.3976699 45.5066397,14.2440843 46.6053678,15.8409812 C47.6844054,17.4162186 47.1882056,19.2277416 45.266416,20.5470029 C43.8605166,21.5118359 42.5885124,21.5827215 41.9958293,21.5315263 M35.1120418,9.06155319 L33.7632448,7.85255848 C33.9759019,7.65171571 34.7261087,6.97239458 34.9427038,5.77915224 C35.1356704,4.7414646 34.7182325,4.03654586 34.0526947,3.91643401 C33.1370879,3.74709599 32.6704238,4.79856696 31.8473623,5.89926409 C30.9888579,7.05509454 30.025994,7.85649657 28.3523043,7.54735623 C26.5841003,7.22443256 25.7551316,5.5330214 26.0938077,3.68802458 C26.4049171,1.99858246 27.1137739,1.19914948 27.5174285,0.825030593 L28.8937922,1.99070627 C28.5944971,2.30378471 28.0471021,3.00476536 27.8856402,3.88886735 C27.7320546,4.72571223 28.003783,5.33808577 28.7027946,5.46410476 C29.5081348,5.61375231 29.9236036,4.84188598 30.6206462,3.84751737 C31.4889958,2.59717268 32.4262621,1.43740414 34.3303303,1.78592541 C36.2068318,2.13247764 37.142129,3.76087931 36.720753,6.05481879 C36.4135817,7.73244663 35.5649226,8.68152717 35.1120418,9.06155319 M21.4192907,5.14905728 L19.6077676,5.25144771 C19.6156438,4.96002879 19.6629009,3.94793875 18.9697965,2.94963205 C18.3712063,2.07931338 17.5816185,1.8824087 17.0204402,2.26834187 C16.2584191,2.79998449 16.673888,3.87114593 16.8707926,5.2297882 C17.0873878,6.653409 16.9751521,7.8998156 15.5751599,8.8725247 C14.0983748,9.89642902 12.3144184,9.28799357 11.2471951,7.74622996 C10.2685789,6.33442343 10.2036003,5.26916913 10.2213217,4.71586699 L12.0170924,4.56818848 C12.0289067,5.00137877 12.1411423,5.88154267 12.6530945,6.61993521 C13.13748,7.31894681 13.7636369,7.55720147 14.3464747,7.15157783 C15.0198887,6.6868828 14.7639126,5.84609983 14.5512556,4.65088845 C14.275589,3.15638196 14.1141272,1.67368975 15.7090551,0.571023561 C17.2783853,-0.515890251 19.0938464,-0.0295357014 20.422953,1.89028489 C21.389755,3.28830809 21.4704859,4.5603123 21.4192907,5.15102633 M8.98082227,12.0899471 L7.77970375,13.4485894 C7.57492289,13.2339633 6.89363271,12.4876946 5.69842132,12.2730685 C4.65876464,12.0899471 3.95975304,12.5093541 3.83964118,13.1748919 C3.67424125,14.0904986 4.72965032,14.5512556 5.8323165,15.3743171 C6.99405409,16.2210072 7.79939422,17.181902 7.50009911,18.8595299 C7.18308258,20.6277339 5.49560951,21.4645787 3.64864365,21.1337789 C1.95723248,20.8325147 1.1538614,20.1236579 0.77777347,19.7219724 L1.93754201,18.3436396 C2.25258949,18.6429347 2.95553919,19.1824535 3.84161023,19.3419463 C4.6784551,19.4915939 5.2888596,19.2159273 5.41487859,18.5169157 C5.558619,17.7115756 4.78478363,17.3000448 3.78647692,16.6089094 C2.53219413,15.7425288 1.36651845,14.8151078 1.70913259,12.9051325 C2.04387054,11.0286309 3.67227221,10.0854575 5.96818073,10.4969883 C7.64580857,10.7962834 8.5988272,11.6390354 8.98082227,12.0919162" id="Shape" fill="#00A7CE" fill-rule="nonzero"></path>
            <g id="Group" transform="translate(0.000000, 25.774822)">
                <g id="Clipped">
                    <mask id="mask-2" fill="white">
                        <use xlink:href="#path-1"></use>
                    </mask>
                    <g id="prefix__a"></g>
                    <path d="M5.12936681,0.0295357014 L5.24160248,1.83712063 C4.94624546,1.83121349 3.93809352,1.78986351 2.94175586,2.48099892 C2.07537529,3.08943437 1.88043966,3.87902212 2.27031091,4.43626235 C2.80195354,5.19828345 3.87114593,4.77690744 5.23372629,4.57409562 C6.653409,4.34962429 7.9037537,4.45595282 8.87843184,5.85200697 C9.91021235,7.32485395 9.31162213,9.11077936 7.77576566,10.1858789 C6.36592818,11.1704023 5.29870483,11.241288 4.75130983,11.2235665 L4.589848,9.43173398 C5.02303829,9.41795066 5.90517123,9.29980785 6.63962568,8.78588665 C7.33863728,8.295594 7.57295384,7.66943713 7.16733021,7.08856834 C6.69475899,6.41909244 5.85988316,6.67506852 4.66664082,6.8975708 C3.16622719,7.17520639 1.68944212,7.34454442 0.574961654,5.75552368 C-0.515890251,4.1940696 -0.0393809352,2.37663944 1.87453252,1.03965669 C3.26861762,0.0610404496 4.53865278,-0.0196904676 5.12936681,0.0295357014" id="Path" fill="#00A7CE" fill-rule="nonzero" mask="url(#mask-2)"></path>
                </g>
            </g>
            <path d="M12.129328,38.2073833 L13.4919084,39.4045638 C13.2792514,39.6073756 12.5349517,40.2945729 12.3262327,41.4917533 C12.1450804,42.53141 12.5684255,43.2284526 13.2379014,43.3465954 C14.1535081,43.5060882 14.610327,42.4487101 15.4255123,41.3421058 C16.2682643,40.1764301 17.2271901,39.3671519 18.9048179,39.6605398 C20.674991,39.9677111 21.519712,41.6512461 21.1928503,43.500181 C20.8974933,45.1935612 20.1984817,46.0008704 19.7967961,46.3749893 L18.4125563,45.2230969 C18.7118514,44.9080495 19.2474321,44.1991926 19.4029868,43.3150906 C19.5486962,42.4762767 19.2710606,41.8678413 18.572049,41.7457604 C17.7647399,41.6079271 17.3551781,42.3817625 16.6699499,43.3840073 C15.8114455,44.6441972 14.8879626,45.8118419 12.9760182,45.477104 C11.0995166,45.1502422 10.148467,43.5277477 10.5501525,41.2279011 C10.8415715,39.5502732 11.6784163,38.5933165 12.1312971,38.2073833 M25.8614602,41.9958293 L27.667076,41.8776865 C27.6631379,42.1730435 27.623757,43.1811955 28.3247376,44.173595 C28.9331731,45.0380066 29.7266989,45.2290041 30.2819701,44.8391328 C31.0420222,44.3015831 30.6108009,43.2323907 30.4060201,41.8737484 C30.1717035,40.4520966 30.276063,39.203721 31.66621,38.2211667 C33.1351189,37.1854481 34.9230133,37.7761621 36.00402,39.3080805 C36.9983886,40.7100418 37.0732124,41.7752961 37.0594291,42.3266292 L35.2636584,42.4939981 C35.2479061,42.0608078 35.1277942,41.1806439 34.6099349,40.4461895 C34.1176732,39.753085 33.4895473,39.5207375 32.9106476,39.9302993 C32.2411717,40.4028705 32.506993,41.2397154 32.7314643,42.4309886 C33.0169761,43.9274642 33.1922212,45.4081873 31.6091076,46.5266059 C30.0515917,47.625334 28.2302234,47.1567009 26.8853645,45.2506636 C25.9028101,43.8585475 25.812234,42.5885124 25.8614602,41.9958293 M38.2310119,34.9387657 L39.4203161,33.5761854 C39.6270661,33.7868734 40.3142634,34.5252659 41.5134129,34.7300468 C42.5570076,34.907261 43.2501121,34.4819469 43.3643168,33.812471 C43.5179025,32.8948952 42.4605243,32.4439835 41.349982,31.6307672 C40.1823372,30.7919532 39.3691209,29.8389346 39.6506946,28.1613068 C39.9519588,26.3891647 41.6335247,25.5385365 43.4804906,25.8516149 C45.1738708,26.1410648 45.9870871,26.8381073 46.363175,27.2378238 L45.2191589,28.6260018 C44.9001733,28.3306448 44.1952545,27.7970331 43.3052454,27.6454165 C42.4684005,27.5036451 41.8599651,27.7832498 41.7418223,28.4822614 C41.603989,29.2915396 42.3817625,29.6971632 43.3859763,30.3764844 C44.6501043,31.2310507 45.8197181,32.1486265 45.4967944,34.0605709 C45.1778089,35.9429796 43.5592524,36.8979672 41.2613749,36.508096 C39.5798089,36.2265223 38.6169451,35.3896774 38.2310119,34.9387657 M36.5179412,26.0977458 L36.7680102,24.6248988 C37.0042958,24.6879083 37.8056978,24.9123796 38.7331188,24.5421988 C39.540428,24.2192752 39.8475993,23.622654 39.6428184,23.1047947 C39.3573066,22.3919998 38.4220094,22.529833 37.2917766,22.4313807 C36.1103485,22.3447426 35.1317323,22.023788 34.613873,20.7202791 C34.066478,19.3458844 34.8796943,18.0285921 36.3151294,17.4555995 C37.6284836,16.9318331 38.4988023,17.0755735 38.9378997,17.1956854 L38.7232736,18.6626252 C38.3747523,18.5917395 37.6481741,18.5188848 36.9609767,18.7945513 C36.3092223,19.0505274 36.0000819,19.5112843 36.2166771,20.0527722 C36.466746,20.6789291 37.1893862,20.631672 38.1857238,20.67696 C39.4380376,20.7360314 40.6588466,20.8817409 41.2495606,22.3664022 C41.8304294,23.8234968 41.1038511,25.1900152 39.3198948,25.9028101 C38.0163858,26.4206694 36.9806672,26.2473933 36.5179412,26.0977458 M34.4819469,16.169812 L33.6175353,14.9529411 C33.8242853,14.8308602 34.5508635,14.4193294 34.9427038,13.5017536 C35.2853179,12.7023207 35.0805371,12.0643495 34.5646468,11.8438163 C33.8616971,11.5425521 33.2965807,12.3026042 32.4302001,13.0370586 C31.5362529,13.810894 30.614739,14.2775581 29.3269824,13.726225 C27.9663711,13.1453562 27.6080046,11.6370664 28.2164401,10.2173836 C28.7717113,8.91584373 29.4845062,8.40192253 29.8783155,8.17548215 L30.7683247,9.3608483 C30.4729677,9.55775298 29.9078512,10.022448 29.6164323,10.6998001 C29.3427348,11.3476165 29.4490633,11.8891043 29.9846441,12.1175138 C30.6068628,12.3833351 31.0814031,11.8359401 31.8197956,11.1644951 C32.7472167,10.317805 33.7081115,9.55775298 35.1750513,10.1839098 C36.6183626,10.8021905 37.0732124,12.2809446 36.3170984,14.0452105 C35.7697034,15.3369052 34.9151372,15.9453407 34.4819469,16.169812 M26.0111077,10.6072549 L24.5382607,10.3630931 C24.5973321,10.1287765 24.8178654,9.32540546 24.4457155,8.39995348 C24.1188538,7.59264431 23.5202636,7.28744206 23.0024043,7.49419197 C22.2935474,7.78561089 22.4313807,8.7209081 22.3427736,9.85114094 C22.2620427,11.032569 21.9430571,12.0131543 20.6415172,12.5388898 C19.2690916,13.094161 17.9478612,12.2829137 17.3728996,10.8494476 C16.8412569,9.53806251 16.9790902,8.66971289 17.097233,8.23061546 L18.5661419,8.43539632 C18.4972253,8.78588665 18.4283086,9.5124649 18.7039752,10.1996622 C18.9678274,10.8494476 19.4246463,11.1526809 19.9681032,10.9360857 C20.5942601,10.6820787 20.5391268,9.96140756 20.5863839,8.96310085 C20.6375791,7.71078711 20.7754124,6.49391622 22.2600736,5.895326 C23.7151992,5.30461197 25.0836867,6.02725213 25.8023887,7.80923945 C26.3261552,9.10881031 26.1568172,10.1445289 26.0091387,10.6072549 M16.0930192,12.6905064 L14.8800864,13.558856 C14.7560364,13.3521061 14.3425366,12.6294659 13.4229918,12.2395947 C12.6215897,11.9009186 11.9855876,12.1116066 11.7689925,12.6255278 C11.4677283,13.3324156 12.2297494,13.8935939 12.9661729,14.7520983 C13.7478845,15.6480146 14.2184867,16.5636213 13.6710917,17.855316 C13.09613,19.2198654 11.5917783,19.58217 10.1681575,18.9835798 C8.86661756,18.4322467 8.34678922,17.7233899 8.11641075,17.3295805 L9.29980785,16.4316952 C9.50065062,16.7270522 9.96534565,17.2901996 10.6486049,17.5776804 C11.2944522,17.8513779 11.833971,17.7411113 12.0604114,17.2035615 C12.3222946,16.5813428 11.7748996,16.1107406 11.0995166,15.3723481 C10.2508574,14.4528032 9.48489824,13.4938774 10.1031789,12.0249686 C10.7135834,10.5757502 12.1903685,10.1149932 13.9605415,10.8612619 C15.2542053,11.4066879 15.8685478,12.2573161 16.0930192,12.6905064 M10.5718121,21.1869431 L10.3315884,22.6617592 C10.0972718,22.6026878 9.29193166,22.3841236 8.36844873,22.7602115 C7.56310861,23.0910114 7.25987541,23.6915706 7.47253246,24.2074609 C7.76395138,24.9163177 8.69924859,24.7725773 9.82751238,24.8572463 C11.0089404,24.9360082 11.9934638,25.2471176 12.5251064,26.5447194 C13.0843157,27.9151759 12.2789756,29.2423134 10.8514167,29.8251513 C9.5420006,30.360732 8.67168193,30.2268368 8.23258451,30.1106631 L8.43145823,28.6397851 C8.78194855,28.7087018 9.50852681,28.7736803 10.1937551,28.4940757 C10.8435405,28.2282544 11.1448047,27.7674974 10.9223024,27.2299476 C10.6702644,26.6037908 9.94762423,26.6589241 8.94931753,26.6195432 C7.69700379,26.570317 6.47816384,26.4364218 5.87366649,24.9616058 C5.27704532,23.5064802 5.99574739,22.1340546 7.77182756,21.4074764 C9.06942938,20.8758338 10.105148,21.0412337 10.5718121,21.1869431 M12.6964135,31.0932174 L13.5706703,32.3041812 C13.3658894,32.4282311 12.6452183,32.8437 12.2592851,33.7671829 C11.9245472,34.570554 12.1372042,35.2085251 12.6530945,35.4211822 C13.3580132,35.7165392 13.9152535,34.948611 14.7757269,34.2082494 C15.663767,33.4285069 16.5793737,32.9519975 17.8710684,33.4895473 C19.2395559,34.0605709 19.6117057,35.5649226 19.0150846,36.9905124 C18.4735967,38.2959904 17.7627708,38.8158188 17.3709305,39.0481663 L16.4710762,37.8687073 C16.7644641,37.6698336 17.3236734,37.1992314 17.6091852,36.5159722 C17.8789446,35.8681558 17.7667089,35.330606 17.2271901,35.1081037 C16.6049713,34.8462205 16.1363382,35.3975536 15.4038528,36.0749057 C14.484308,36.931441 13.5332584,37.7013383 12.0564733,37.0850267 C10.6072549,36.4824984 10.1386218,35.0076824 10.8770143,33.2355403 C11.4165331,31.9399075 12.2651923,31.3216268 12.6964135,31.0932174 M21.2184479,36.5789817 L22.6932639,36.8093601 C22.6341925,37.0456458 22.4195664,37.8509859 22.8035305,38.7724998 C23.1343304,39.5758708 23.7368587,39.877135 24.2527489,39.6605398 C24.9616058,39.3671519 24.8139273,38.4318547 24.8907201,37.3055599 C24.9635748,36.1221628 25.2746842,35.1376394 26.5683479,34.6000897 C27.9348664,34.0330042 29.265942,34.8304681 29.8527179,36.258027 C30.3961748,37.5674431 30.2662178,38.4338237 30.152013,38.8768592 L28.6811351,38.6838927 C28.7461137,38.3334023 28.8091232,37.604855 28.5255804,36.9215958 C28.2577901,36.2718104 27.7990022,35.9725153 27.2575143,36.1950176 C26.6352955,36.4569008 26.6943669,37.1756028 26.654986,38.1739095 C26.6156051,39.4281923 26.4895861,40.6470323 25.012801,41.2574368 C23.5616135,41.8599651 22.1872189,41.1511082 21.4527645,39.3769971 C20.9152147,38.0813643 21.0747075,37.0436767 21.2184479,36.5789817 M31.118815,34.4071231 L32.3199335,33.5269592 C32.4459525,33.7337091 32.8673285,34.4524112 33.7908115,34.8324372 C34.5941825,35.163237 35.2301846,34.948611 35.4448107,34.4327207 C35.7342606,33.7218948 34.9663324,33.1666236 34.2220327,32.3159954 C33.434414,31.4299244 32.9559356,30.5182557 33.4895473,29.2206539 C34.0507256,27.8521664 35.5531083,27.4721404 36.9846053,28.0589163 C38.2920524,28.5984351 38.8158188,29.3053229 39.0481663,29.6951942 L37.8726454,30.6029248 C37.6718026,30.3115058 37.2012004,29.7503275 36.5159722,29.4707229 C35.8681558,29.2029325 35.330606,29.3191063 35.1061347,29.8586251 C34.8501586,30.4828129 35.4014917,30.949477 36.0847509,31.6780243 C36.9432553,32.591662 37.7190597,33.5427116 37.1106243,35.0175276 C36.5120341,36.4706841 35.0411561,36.9471934 33.265076,36.2166771 C31.9655051,35.6850344 31.3452554,34.8383443 31.118815,34.4071231 M31.5244386,27.3500595 L31.9694432,26.4915551 C32.1013693,26.5742551 32.5542501,26.8735502 33.2020665,26.8262931 C33.7652138,26.7869121 34.0723851,26.4797408 34.0467875,26.1174362 C34.0133137,25.6232055 33.4048783,25.5208151 32.7275262,25.2392414 C32.0147313,24.9517605 31.4732434,24.5579512 31.412203,23.6521897 C31.3432863,22.695233 32.1072765,22.0415094 33.1055832,21.9706238 C34.025128,21.9076143 34.531173,22.1675284 34.7792729,22.3289903 L34.3578969,23.1914327 C34.1570542,23.077228 33.7199258,22.8921376 33.2414474,22.9236424 C32.7885667,22.9551471 32.508962,23.1776494 32.5325906,23.5537373 C32.5660644,23.9928348 33.0228832,24.1050704 33.6273806,24.3315108 C34.3894017,24.6170226 35.1159799,24.9458534 35.1829275,25.9776339 C35.2577513,26.9956311 34.5370802,27.6946427 33.2926426,27.7832498 C32.3868811,27.8462593 31.7823838,27.5351499 31.5264077,27.3500595 M31.8473623,20.592291 L31.5520053,19.6707771 C31.70756,19.6333652 32.2372336,19.5250677 32.6605786,19.034775 C33.0287904,18.6074919 33.0287904,18.1723326 32.7531238,17.9340779 C32.3790049,17.6091852 31.8808361,17.9675517 31.1995459,18.2491254 C30.4926581,18.5523586 29.8330275,18.6586871 29.1458301,18.064035 C28.4192519,17.43394 28.4960447,16.4336643 29.1517373,15.6755813 C29.7522966,14.9824768 30.2937844,14.8052626 30.5832343,14.7422531 L30.8982818,15.6519527 C30.6777485,15.7149622 30.2366821,15.8882383 29.9216346,16.252512 C29.6223395,16.5951261 29.5829585,16.9515236 29.8704394,17.1996235 C30.2012392,17.4871043 30.6029248,17.2429425 31.1897007,16.9731831 C31.9320313,16.632538 32.6743619,16.3529333 33.4600116,17.0302854 C34.2279398,17.6958232 34.2180946,18.7000371 33.4048783,19.6412414 C32.8082571,20.3304078 32.1604407,20.5391268 31.8473623,20.592291 M27.285081,15.5948503 L26.4226385,15.1518148 C26.5073075,15.0198887 26.8026645,14.5670079 26.7534383,13.9191915 C26.7120884,13.3580132 26.402948,13.052811 26.0426125,13.0784086 C25.5483817,13.1158205 25.4479603,13.7222869 25.1703247,14.399639 C24.884813,15.1144029 24.4949417,15.6598289 23.5872111,15.7287455 C22.6302544,15.7996312 21.9745618,15.0376101 21.897769,14.0353653 C21.8288524,13.1217276 22.0907356,12.6117445 22.2462903,12.3656137 L23.116609,12.7810825 C23.0024043,12.9858634 22.8153448,13.4190537 22.8507877,13.8995011 C22.8862305,14.3523818 23.1087328,14.6319865 23.4867898,14.6044198 C23.9219491,14.570946 24.0341848,14.1160962 24.2586561,13.5076608 C24.5382607,12.7436706 24.8651225,12.0170924 25.896903,11.9422686 C26.9129311,11.8635067 27.6178499,12.5822088 27.7103951,13.8227083 C27.7773426,14.7324079 27.4682023,15.3369052 27.285081,15.5948503 M20.5253434,15.3034314 L19.6038295,15.6007575 C19.5683867,15.4491409 19.456151,14.9194673 18.9638893,14.4980913 C18.5346372,14.1298796 18.1034159,14.1338176 17.8631922,14.4094842 C17.5422376,14.7855721 17.9025731,15.28571 18.1861159,15.961093 C18.4913181,16.6660118 18.6015847,17.3276115 18.0089017,18.0148088 C17.3866829,18.7472942 16.382469,18.6724704 15.622417,18.022685 C14.9253744,17.4240948 14.7461912,16.8826069 14.6812126,16.5970951 L15.5909122,16.2741715 C15.6539217,16.4966738 15.833105,16.9357712 16.1954096,17.2488496 C16.5419618,17.5442066 16.8963903,17.5835876 17.1425211,17.2961067 C17.4280329,16.9613688 17.181902,16.5636213 16.9101736,15.9748764 C16.5675594,15.2364838 16.2820477,14.4941532 16.9574307,13.7085035 C17.6170614,12.9366372 18.6232443,12.9405753 19.5703558,13.7518226 C20.2614912,14.3425366 20.4721792,14.992322 20.5253434,15.3034314 M15.5475932,19.8873723 L15.1104648,20.7498148 C14.9785387,20.6671148 14.5236889,20.3756959 13.8778416,20.4268911 C13.3127251,20.4702101 13.011461,20.7813195 13.0390276,21.1416551 C13.0784086,21.6378549 13.684875,21.7343381 14.3661652,22.0080356 C15.0809291,22.2915784 15.6263551,22.6775115 15.6992098,23.5852421 C15.7720646,24.5421988 15.0139815,25.2018295 14.0176439,25.2805914 C13.1000681,25.3534461 12.592054,25.0994391 12.3439541,24.9438844 L12.757454,24.0715966 C12.9582967,24.1818633 13.3954251,24.3669537 13.8758725,24.3295418 C14.3267842,24.2940989 14.6044198,24.0696276 14.5748841,23.6915706 C14.5414103,23.2564113 14.0826224,23.1461447 13.474187,22.9236424 C12.7121659,22.6479758 11.9836186,22.3250522 11.8989496,21.2913026 C11.8201877,20.2772435 12.5369207,19.5683867 13.7754511,19.4719034 C14.6812126,19.3990487 15.2916171,19.708189 15.5475932,19.8873723 M15.2896481,26.6490789 L15.5909122,27.5686237 C15.4392956,27.6040665 14.9115911,27.7182712 14.4882461,28.214471 C14.1259415,28.6437232 14.1298796,29.0808516 14.4055461,29.3131991 C14.7855721,29.6361228 15.2817719,29.2738182 15.9571549,28.9863374 C16.6601046,28.677197 17.3217044,28.5629923 18.0128398,29.1517373 C18.7453252,29.7739561 18.6783776,30.7781699 18.0305612,31.540191 C17.43394,32.2392026 16.8924522,32.4203549 16.6069404,32.4853335 L16.2800786,31.5795719 C16.5045499,31.5165624 16.9436474,31.3373792 17.2547568,30.9691674 C17.5481447,30.6226152 17.5855566,30.2681868 17.2980758,30.024025 C16.9633378,29.7385132 16.5636213,29.9866131 15.9788145,30.2603106 C15.242391,30.6088319 14.4980913,30.8963127 13.7104726,30.2268368 C12.9326991,29.5672062 12.9326991,28.5590542 13.7419773,27.6099737 C14.3287533,26.9208073 14.9765697,26.7042122 15.2896481,26.6490789 M19.8952485,31.6032005 L20.761629,32.0383598 C20.6789291,32.172255 20.3875102,32.6290739 20.4406744,33.2729522 C20.4879315,33.8360995 20.80101,34.1393327 21.1613455,34.109797 C21.6575453,34.0704161 21.7520596,33.4600116 22.023788,32.7767524 C22.2994546,32.0619884 22.6873568,31.5145934 23.5931183,31.4397696 C24.550075,31.3570697 25.2136438,32.1131836 25.2943747,33.1134594 C25.3731366,34.0270971 25.1210986,34.5390492 24.9655439,34.7871491 L24.0912871,34.3795564 C24.2015537,34.1767446 24.3866441,33.7396162 24.3472632,33.2611379 C24.3078823,32.8062881 24.0834109,32.5306215 23.7053539,32.5601572 C23.2662565,32.5975691 23.159928,33.056357 22.9413638,33.6667615 C22.6696354,34.4307517 22.3467117,35.159299 21.3149312,35.245937 C20.3028411,35.330606 19.5900462,34.6197801 19.4856867,33.3812497 C19.410863,32.4735192 19.7160652,31.8650837 19.8952485,31.6051696 M26.6608931,31.835548 L27.5784689,31.5283767 C27.6139118,31.6799933 27.7320546,32.2076979 28.2282544,32.6251358 C28.6594756,32.9894094 29.0946349,32.9815332 29.3269824,32.7038976 C29.6479371,32.3258407 29.2816944,31.8296409 28.9922445,31.1542578 C28.6811351,30.4532772 28.5610233,29.7936465 29.1497682,29.098573 C29.7680489,28.3621495 30.7702937,28.425159 31.5362529,29.0729754 C32.2372336,29.6636894 32.422324,30.2032083 32.4912406,30.4906891 L31.58351,30.8195199 C31.5205005,30.5970176 31.3393482,30.1579202 30.9691674,29.8507489 C30.6206462,29.5553919 30.2681868,29.5219181 30.024025,29.811368 C29.7404823,30.1461059 29.9905512,30.5438533 30.2681868,31.1306293 C30.6186771,31.8631147 30.908127,32.6054453 30.2406201,33.3950331 C29.5849276,34.1747756 28.5807137,34.1767446 27.6276951,33.3753426 C26.9306525,32.7885667 26.7160264,32.1466574 26.6589241,31.835548 M28.0825449,27.4918309 L28.5295185,27.0113835 C28.6004042,27.0901453 28.844566,27.3658119 29.2738182,27.456388 C29.6479371,27.5331809 29.9039132,27.3874714 29.9570774,27.1433096 C30.022056,26.8144788 29.643999,26.6372646 29.2521587,26.3300933 C28.8386589,26.0150458 28.5551161,25.6606174 28.6811351,25.054151 C28.8091232,24.4142108 29.4274038,24.128699 30.0929416,24.2606251 C30.7033461,24.3886132 30.9888579,24.6485273 31.1227531,24.7981749 L30.6895628,25.2904366 C30.5773271,25.1762319 30.3272582,24.9753891 30.0082726,24.9123796 C29.7070085,24.8493701 29.4825371,24.9438844 29.4293729,25.1959223 C29.3703015,25.4873413 29.6499061,25.6409269 30.0043345,25.9028101 C30.4493391,26.2257338 30.866777,26.572286 30.7269747,27.2614524 C30.5891414,27.9388045 29.9885822,28.2656662 29.1615825,28.0982973 C28.5551161,27.9742473 28.2164401,27.6572308 28.0825449,27.4918309 M29.519949,23.1323613 L29.4963205,22.4746997 C29.602649,22.4806069 29.9688917,22.5042354 30.3351344,22.2600736 C30.65412,22.0513547 30.7289437,21.7638738 30.5950486,21.5571239 C30.4079891,21.2775193 30.0161488,21.4232288 29.5238871,21.4842692 C29.0060278,21.5531858 28.5531471,21.5039597 28.212502,20.9880694 C27.8521664,20.4465816 28.0845139,19.8046723 28.6476613,19.4285844 C29.1674897,19.0840012 29.5534228,19.0662798 29.7562346,19.0780941 L29.7975846,19.7298485 C29.6400609,19.7298485 29.3191063,19.7652914 29.0493469,19.9464437 C28.7933708,20.1157817 28.7027946,20.340253 28.8425969,20.5568482 C29.0060278,20.802979 29.3151682,20.716341 29.7483585,20.6474243 C30.2937844,20.5588172 30.8313342,20.5115601 31.2212054,21.096367 C31.6032005,21.6732977 31.414172,22.3270212 30.7092533,22.7956543 C30.1953321,23.1362994 29.7326061,23.1540209 29.519949,23.1323613 M27.4445737,19.034775 L26.9601882,18.5917395 C27.0409192,18.5208538 27.3146167,18.276692 27.4012547,17.8454708 C27.4780475,17.4674138 27.330369,17.2153758 27.0862072,17.1661497 C26.7573764,17.1011711 26.5821313,17.477259 26.276929,17.8730374 C25.9618815,18.2865373 25.6074531,18.5740181 25.0029558,18.4519372 C24.3630156,18.3259182 24.0715966,17.7076375 24.2035228,17.0401307 C24.3256037,16.4297262 24.5874869,16.1442144 24.7351654,16.0103192 L25.2274271,16.4395714 C25.1171605,16.5518071 24.9163177,16.8038451 24.8533082,17.1247997 C24.7942368,17.4260638 24.8887511,17.6485661 25.140789,17.6997613 C25.432208,17.7588327 25.5857936,17.4792281 25.8437387,17.1228306 C26.1646934,16.673888 26.5132146,16.2584191 27.202381,16.3962524 C27.877764,16.5301476 28.2065948,17.1267687 28.045133,17.9557374 C27.9230521,18.5602348 27.6080046,18.9008799 27.4445737,19.034775 M23.077228,17.6190304 L22.4195664,17.6485661 C22.4254736,17.5422376 22.4471331,17.1759949 22.2029713,16.8097522 C21.9883452,16.4907666 21.7028334,16.4159428 21.5019906,16.5518071 C21.2184479,16.7388665 21.3641574,17.1326759 21.4291359,17.6229685 C21.5000216,18.1408278 21.4527645,18.5937086 20.9388433,18.9363227 C20.3973554,19.3005963 19.7574152,19.0702179 19.3773892,18.5070705 C19.0308369,17.9892112 19.0111465,17.603278 19.0229608,17.4044043 L19.6727462,17.3571472 C19.6747152,17.5146709 19.7121271,17.8356256 19.8913104,18.105385 C20.0645865,18.361361 20.2910269,18.4519372 20.505653,18.3081968 C20.7517838,18.1427969 20.6631767,17.8356256 20.590322,17.4024353 C20.5017149,16.8589784 20.4505197,16.3194596 21.0313884,15.9295883 C21.6063501,15.5456242 22.2640117,15.7326836 22.7346139,16.4336643 C23.0791971,16.9436474 23.0988875,17.4063734 23.077228,17.6190304 M18.991456,19.7140962 L18.5464514,20.1984817 C18.4755658,20.1197198 18.231404,19.8479913 17.7982137,19.7652914 C17.4240948,19.6884986 17.1681187,19.8361771 17.1208616,20.0803389 C17.0578521,20.4072006 17.4359091,20.5824458 17.8297184,20.885679 C18.2491254,21.1987574 18.5346372,21.5531858 18.4164944,22.1576832 C18.2944135,22.7976234 17.6761328,23.0890423 17.010595,22.9649924 C16.4001905,22.8448805 16.1087715,22.5829973 15.9768454,22.4353188 L16.4041286,21.9410881 C16.5163642,22.0513547 16.7703713,22.2541665 17.0893568,22.3152069 C17.39259,22.3742783 17.6150923,22.275826 17.6643185,22.023788 C17.7194518,21.7323691 17.4418162,21.5787834 17.0834497,21.3228074 C16.632538,21.0018527 16.2170691,20.6592386 16.3529333,19.9700722 C16.4828904,19.2927202 17.0775426,18.9579822 17.9084803,19.1214131 C18.5149467,19.2395559 18.8555918,19.5486962 18.991456,19.7121271 M17.5934328,24.087349 L17.6249376,24.7430416 C17.518609,24.7391035 17.1523663,24.719413 16.7880927,24.9675129 C16.4691071,25.18017 16.3942833,25.4656818 16.5321166,25.6704626 C16.7211451,25.9500673 17.1129854,25.8004197 17.6072161,25.7354412 C18.1231064,25.6606174 18.5740181,25.7098436 18.9205703,26.2178576 C19.284844,26.7573764 19.0584036,27.4012547 18.4972253,27.7852188 C17.981335,28.1317711 17.5934328,28.1534306 17.3945591,28.1455544 L17.347302,27.4918309 C17.5048257,27.4878928 17.8257803,27.4524499 18.0916016,27.2693286 C18.3515158,27.0960525 18.4381539,26.8715811 18.2944135,26.6589241 C18.1270445,26.4108242 17.8218422,26.5014003 17.3886519,26.5742551 C16.845195,26.6687693 16.3056762,26.7199645 15.9118669,26.1371267 C15.5239647,25.5661031 15.707086,24.9104106 16.4060976,24.4358703 C16.9180498,24.0893181 17.3788067,24.0676586 17.5934328,24.087349 M19.70622,28.1632758 L20.1945436,28.6043423 C20.1157817,28.677197 19.8401152,28.9213588 19.7613533,29.3525801 C19.6884986,29.730637 19.8401152,29.9866131 20.0803389,30.0319012 C20.4111387,30.0949107 20.5804767,29.7129156 20.8837099,29.3191063 C21.1948193,28.9016683 21.5492477,28.6102494 22.1537451,28.7264232 C22.7936853,28.846535 23.0910114,29.4608776 22.9649924,30.1303535 C22.8468496,30.740758 22.5889044,31.0302079 22.443195,31.1660721 L21.9430571,30.738789 C22.0572618,30.6265533 22.2541665,30.3764844 22.3152069,30.0535607 C22.3703402,29.7503275 22.273857,29.5297943 22.023788,29.4825371 C21.7323691,29.4234657 21.5787834,29.7050394 21.3228074,30.0614369 C21.0077599,30.5162867 20.6651458,30.9317556 19.9740103,30.8037675 C19.2966583,30.6738104 18.9599513,30.0811274 19.119444,29.2482206 C19.2297107,28.6437232 19.5427891,28.3030781 19.70622,28.1632758 M24.08538,29.5416085 L24.7410725,29.5081348 C24.7371345,29.6144633 24.719413,29.980706 24.9675129,30.3430106 C25.1841081,30.6600271 25.4696198,30.7348509 25.6744007,30.5950486 C25.9500673,30.404051 25.8043578,30.0141798 25.7334721,29.5219181 C25.6606174,29.0040588 25.7019674,28.5531471 26.2119505,28.2046258 C26.7495002,27.8383831 27.3933785,28.0608854 27.7773426,28.6181256 C28.127833,29.1359849 28.1514615,29.519949 28.1435853,29.7207918 L27.4918309,29.770018 C27.4878928,29.6144633 27.4485118,29.2954777 27.2653905,29.0276873 C27.0921144,28.7717113 26.865674,28.6850732 26.654986,28.8307827 C26.4088552,28.9961826 26.4994313,29.3033539 26.5762241,29.7365442 C26.6707384,30.2800011 26.7258717,30.8175508 26.1450029,31.2133292 C25.5739793,31.6032005 24.9163177,31.4220482 24.4398084,30.7269747 C24.0932562,30.2169916 24.0656895,29.7562346 24.08538,29.5416085 M25.6409269,26.9582192 L26.0209529,26.7435931 C26.0504886,26.8066026 26.1469719,27.0310739 26.400979,27.1748143 C26.6234812,27.2968952 26.8144788,27.2535762 26.8971787,27.1118048 C27.0035073,26.9149002 26.7987264,26.7278407 26.613636,26.4561123 C26.4147623,26.1725695 26.3064647,25.8929649 26.5033694,25.5326293 C26.7140574,25.1585105 27.1630001,25.09747 27.5568094,25.3160342 C27.919114,25.516877 28.045133,25.7393793 28.1002663,25.8594911 L27.7300855,26.0839624 C27.6808594,25.9914172 27.5607475,25.814203 27.3736881,25.7078745 C27.1945048,25.6094222 27.035012,25.6251745 26.9542811,25.7748221 C26.8558288,25.9461292 27.0015382,26.1016839 27.1748143,26.3360004 C27.3914095,26.6274193 27.5843761,26.9306525 27.3599047,27.3382452 C27.1374025,27.7418998 26.6923979,27.8285379 26.2040743,27.5568094 C25.8457078,27.3599047 25.6921221,27.0921144 25.6409269,26.9582192 M27.4189761,24.4850965 L27.5371189,24.0656895 C27.6001284,24.0893181 27.8265688,24.1779252 28.1081425,24.0971943 C28.3523043,24.0263086 28.4586328,23.8609086 28.4113757,23.7033849 C28.3523043,23.4907279 28.0746687,23.5025421 27.749776,23.4434707 C27.4071619,23.3843993 27.1295263,23.2623184 27.0212287,22.8685091 C26.8991478,22.4550093 27.1748143,22.0946737 27.6060356,21.9686547 C27.9998449,21.85445 28.2499139,21.9213976 28.3739638,21.9666857 L28.2715734,22.3880617 C28.173121,22.358526 27.9644021,22.317176 27.7556831,22.3742783 C27.5587785,22.4313807 27.4583571,22.5573997 27.5056142,22.7208306 C27.5607475,22.9118281 27.7714355,22.9177352 28.0569473,22.9571162 C28.4212209,23.0122495 28.7697422,23.0890423 28.8996993,23.537985 C29.0276873,23.9770824 28.7756494,24.3531703 28.2380996,24.508725 C27.8442902,24.6229297 27.5489332,24.5441679 27.4189761,24.4850965 M26.9208073,21.4803311 L26.7042122,21.1022741 C26.7672217,21.0727384 26.9897239,20.9742861 27.1314953,20.71831 C27.2555453,20.4958077 27.2102572,20.3048102 27.0704549,20.2260483 C26.8735502,20.1177508 26.6864907,20.3225316 26.4147623,20.5115601 C26.1312196,20.7104338 25.8496459,20.8207004 25.4912794,20.6237958 C25.1132224,20.4170459 25.0521819,19.9681032 25.2687771,19.5742938 C25.4696198,19.2119892 25.6901531,19.0820322 25.8102649,19.0268988 L26.0367053,19.3970796 C25.9441601,19.4443368 25.7669459,19.5644486 25.6625864,19.7515081 C25.5641341,19.9346294 25.5818555,20.0921531 25.729534,20.1748531 C25.9028101,20.2713364 26.0563958,20.1256269 26.2887433,19.9523508 C26.5841003,19.7298485 26.8853645,19.538851 27.2929571,19.7593842 C27.6946427,19.9818865 27.7852188,20.422953 27.5154594,20.9171837 C27.3185548,21.2755502 27.0547025,21.4291359 26.9208073,21.4803311 M24.4398084,19.7140962 L24.0184324,19.5998915 C24.0420609,19.5329439 24.130668,19.3065035 24.045999,19.0288679 C23.9770824,18.780768 23.8097134,18.6783776 23.6561278,18.7236656 C23.4395326,18.7866751 23.455285,19.0643107 23.3962136,19.3892034 C23.3391113,19.7298485 23.2170304,20.0074841 22.82519,20.1216888 C22.4116902,20.2437697 22.0493856,19.9700722 21.9233666,19.538851 C21.8052238,19.1411036 21.8702024,18.8930037 21.9154904,18.7709228 L22.3388355,18.8693751 C22.3073307,18.9697965 22.2679498,19.1804845 22.3289903,19.3872344 C22.3841236,19.5841391 22.5101426,19.6845605 22.6755425,19.6392724 C22.8626019,19.580201 22.8685091,19.371482 22.9098591,19.0800631 C22.9610543,18.7177585 23.0358781,18.3692372 23.4808826,18.2373111 C23.9219491,18.107354 24.3019751,18.3554539 24.4594989,18.8949727 C24.5737036,19.286813 24.4988798,19.58217 24.4398084,19.7140962 M21.4370121,20.2260483 L21.0628932,20.4446125 C21.0294194,20.3776649 20.9309671,20.1591007 20.674991,20.0192984 C20.4505197,19.8972175 20.2595221,19.9405365 20.1827293,20.0823079 C20.0744317,20.2792126 20.2811816,20.466272 20.4702101,20.7360314 C20.6710529,21.0195742 20.7852576,21.2972098 20.5883529,21.6555763 C20.379634,22.0375713 19.9326604,22.1005808 19.536882,21.8859547 C19.1745774,21.6890501 19.0446203,21.4685168 18.989487,21.348405 L19.3576987,21.1199956 C19.4069249,21.2105717 19.5250677,21.389755 19.7160652,21.4921454 C19.8952485,21.5905977 20.0567103,21.5748454 20.1374412,21.4232288 C20.2299864,21.2499526 20.0823079,21.098336 19.9090318,20.8640195 C19.6904676,20.5726006 19.4935629,20.2733054 19.7160652,19.8598056 C19.9346294,19.4581201 20.3776649,19.3675439 20.8718957,19.6333652 C21.2302622,19.8283009 21.3838478,20.0941222 21.4370121,20.2260483 M19.6825914,22.7149234 L19.5703558,23.1362994 C19.5034082,23.1126709 19.2749987,23.0260328 18.9953941,23.1107018 C18.7512323,23.1835566 18.6488419,23.3489565 18.6941299,23.5045112 C18.7591085,23.7191373 19.0367441,23.7053539 19.3616368,23.7604873 C19.7022819,23.8175896 19.9799175,23.9337634 20.0960912,24.3275727 C20.2201412,24.7430416 19.9503818,25.1053462 19.5191605,25.2333342 C19.1253512,25.351477 18.8733132,25.2864985 18.7492633,25.2431795 L18.8477156,24.8198344 C18.9461679,24.8493701 19.1568559,24.8907201 19.3636058,24.8277106 C19.5605105,24.7706082 19.6629009,24.6445893 19.6136748,24.4811584 C19.5546034,24.2921299 19.3458844,24.2881918 19.0564345,24.2488109 C18.6921609,24.1995847 18.3416706,24.1227919 18.2097444,23.6777873 C18.0778183,23.2386899 18.3239492,22.8606329 18.8614989,22.6991711 C19.2533392,22.5810282 19.5506653,22.6597901 19.6825914,22.7149234 M20.2063579,25.7157507 L20.4268911,26.0898696 C20.3619125,26.1213743 20.1433484,26.2217957 20.001577,26.4797408 C19.8834342,26.7042122 19.9267532,26.8932407 20.0724627,26.9720025 C20.2693674,27.076362 20.4544577,26.8715811 20.7222481,26.6786146 C21.0038218,26.4777718 21.2834264,26.3675052 21.643762,26.5604718 C22.023788,26.7632836 22.0887666,27.2102572 21.8780786,27.6099737 C21.6811739,27.9722783 21.4606406,28.1022354 21.3385597,28.1593377 L21.1101503,27.791126 C21.2007265,27.7418998 21.3779407,27.621788 21.4823002,27.4327595 C21.5807525,27.2516072 21.561062,27.0921144 21.4094454,27.0113835 C21.2361693,26.9168692 21.0845527,27.0645477 20.8522052,27.2378238 C20.5607863,27.4622952 20.2614912,27.6572308 19.8479913,27.4386666 C19.4463058,27.2220715 19.3537606,26.7790359 19.6176129,26.2848052 C19.8105795,25.9244696 20.0764008,25.770884 20.2083269,25.7157507 M22.7031091,27.4583571 L23.1264542,27.5686237 C23.1028256,27.6375403 23.0161876,27.8620117 23.1028256,28.1435853 C23.1776494,28.3857781 23.3410803,28.4881685 23.496635,28.4428805 C23.7112611,28.3759329 23.6974778,28.1002663 23.7526111,27.7734046 C23.8057753,27.4327595 23.9219491,27.1570929 24.3157584,27.0369811 C24.7292583,26.908993 25.0915629,27.1807215 25.22152,27.6119427 C25.3416318,28.0096902 25.2805914,28.255821 25.2372723,28.38184 L24.8139273,28.2833877 C24.843463,28.1849353 24.8828439,27.9742473 24.8178654,27.7674974 C24.758794,27.5705927 24.632775,27.4721404 24.4693441,27.5213666 C24.2822846,27.5784689 24.2783466,27.7891569 24.2389656,28.0766378 C24.1936775,28.4409114 24.1208228,28.7914017 23.6738492,28.929235 C23.2327827,29.0611611 22.8566948,28.8150303 22.6932639,28.2814186 C22.5731521,27.8876093 22.6479758,27.5922523 22.7031091,27.4583571" id="Shape" fill="#00A7CE" fill-rule="nonzero"></path>
        </g>
    </g>
</svg>