<?xml version="1.0" encoding="UTF-8"?>
<svg width="20px" height="20px" viewBox="0 0 20 20" version="1.1" xmlns="http://www.w3.org/2000/svg" xmlns:xlink="http://www.w3.org/1999/xlink">
    <title>icon/dashboard/active</title>
    <g id="통합-대시보드_아이콘_로고" stroke="none" stroke-width="1" fill="none" fill-rule="evenodd" opacity="0.4">
        <g transform="translate(-439.000000, -800.000000)" id="공지사항-비활성화">
            <g transform="translate(437.000000, 798.000000)">
                <g id="공지사항">
                    <polygon id="Path" points="0 0 24 0 24 24 0 24"></polygon>
                    <g id="notifications_active-24px">
                        <polygon id="Path" points="0 0 24 0 24 24 0 24"></polygon>
                        <path d="M12,22 C13.1,22 14,21.1 14,20 L10,20 C10,21.1 10.9,22 12,22 Z M18,16 L18,11 C18,7.93 16.37,5.36 13.5,4.68 L13.5,4 C13.5,3.17 12.83,2.5 12,2.5 C11.17,2.5 10.5,3.17 10.5,4 L10.5,4.68 C7.64,5.36 6,7.92 6,11 L6,16 L4.29289322,17.7071068 C4.10535684,17.8946432 4,18.1489971 4,18.4142136 L4,18.5 C4,18.7761424 4.22385763,19 4.5,19 L19.5,19 C19.7761424,19 20,18.7761424 20,18.5 L20,18.4142136 C20,18.1489971 19.8946432,17.8946432 19.7071068,17.7071068 L18,16 Z M16,17 L8,17 L8,11 C8,8.52 9.51,6.5 12,6.5 C14.49,6.5 16,8.52 16,11 L16,17 Z" id="Shape" fill="#666666" fill-rule="nonzero"></path>
                        <path d="M5.4452998,3.16794971 C5.90482849,2.86159725 6.52569784,2.98577112 6.83205029,3.4452998 C7.13840275,3.90482849 7.01422888,4.52569784 6.5547002,4.83205029 C4.81914754,5.9890854 4,7.35433129 4,9 C4,9.55228475 3.55228475,10 3,10 C2.44771525,10 2,9.55228475 2,9 C2,6.64566871 3.18085246,4.67758127 5.4452998,3.16794971 Z" id="Path-2" fill="#666666" fill-rule="nonzero"></path>
                        <path d="M18.5548065,3.16794971 C18.0952778,2.86159725 17.4744084,2.98577112 17.168056,3.4452998 C16.8617035,3.90482849 16.9858774,4.52569784 17.4454061,4.83205029 C19.1809587,5.9890854 20.0001063,7.35433129 20.0001063,9 C20.0001063,9.55228475 20.4478215,10 21.0001063,10 C21.552391,10 22.0001063,9.55228475 22.0001063,9 C22.0001063,6.64566871 20.8192538,4.67758127 18.5548065,3.16794971 Z" id="Path" fill="#666666" fill-rule="nonzero"></path>
                    </g>
                </g>
            </g>
        </g>
    </g>
</svg>