<svg xmlns="http://www.w3.org/2000/svg" width="24" height="24" viewBox="0 0 24 24">
    <g fill="none" fill-rule="evenodd">
        <path d="M0 0L24 0 24 24 0 24z"/>
        <path d="M0 0L24 0 24 24 0 24z"/>
        <path fill="#666" fill-rule="nonzero" d="M12 22c1.1 0 2-.9 2-2h-4c0 1.1.9 2 2 2zm6-6v-5c0-3.07-1.63-5.64-4.5-6.32V4c0-.83-.67-1.5-1.5-1.5s-1.5.67-1.5 1.5v.68C7.64 5.36 6 7.92 6 11v5l-1.707 1.707c-.188.188-.293.442-.293.707v.086c0 .276.224.5.5.5h15c.276 0 .5-.224.5-.5v-.086c0-.265-.105-.52-.293-.707L18 16zm-2 1H8v-6c0-2.48 1.51-4.5 4-4.5s4 2.02 4 4.5v6zM5.445 3.168c.46-.306 1.08-.182 1.387.277.306.46.182 1.08-.277 1.387C4.819 5.99 4 7.354 4 9c0 .552-.448 1-1 1s-1-.448-1-1c0-2.354 1.18-4.322 3.445-5.832zM18.555 3.168c-.46-.306-1.08-.182-1.387.277-.306.46-.182 1.08.277 1.387C19.181 5.99 20 7.354 20 9c0 .552.448 1 1 1s1-.448 1-1c0-2.354-1.18-4.322-3.445-5.832z"/>
        <circle cx="18" cy="17" r="4" fill="#E97373"/>
    </g>
</svg>
