<svg xmlns="http://www.w3.org/2000/svg" width="24" height="24" viewBox="0 0 24 24">
    <g fill="none" fill-rule="evenodd">
        <path d="M0 0L24 0 24 24 0 24z"/>
        <path d="M0 0L24 0 24 24 0 24z"/>
        <g fill="#FFF" fill-opacity=".87" fill-rule="nonzero">
            <path d="M10 19.5c1.1 0 2-.9 2-2H8c0 1.1.9 2 2 2zm6-6v-5c0-3.07-1.63-5.64-4.5-6.32V1.5C11.5.67 10.83 0 10 0S8.5.67 8.5 1.5v.68C5.64 2.86 4 5.42 4 8.5v5l-1.707 1.707c-.188.188-.293.442-.293.707V16c0 .276.224.5.5.5h15c.276 0 .5-.224.5-.5v-.086c0-.265-.105-.52-.293-.707L16 13.5zm-2 1H6v-6C6 6.02 7.51 4 10 4s4 2.02 4 4.5v6zM3.445.668c.46-.306 1.08-.182 1.387.277.306.46.182 1.08-.277 1.387C2.819 3.49 2 4.854 2 6.5c0 .552-.448 1-1 1s-1-.448-1-1C0 4.146 1.18 2.178 3.445.668zM16.555.668c-.46-.306-1.08-.182-1.387.277-.306.46-.182 1.08.277 1.387C17.181 3.49 18 4.854 18 6.5c0 .552.448 1 1 1s1-.448 1-1c0-2.354-1.18-4.322-3.445-5.832z" transform="translate(2 2.5)"/>
        </g>
    </g>
</svg>
