<?xml version="1.0" encoding="UTF-8"?>
<svg width="20px" height="18px" viewBox="0 0 20 18" version="1.1" xmlns="http://www.w3.org/2000/svg" xmlns:xlink="http://www.w3.org/1999/xlink">
    <title>설비이력 copy 3</title>
    <g id="통합-대시보드_메뉴" stroke="none" stroke-width="1" fill="none" fill-rule="evenodd">
        <g id="예측진단-활성화" transform="translate(-2.000000, -3.000000)">
            <g>
                <polygon id="Path" points="0 0 24 0 24 24 0 24"></polygon>
                <path d="M20.1818182,3 L3.81818182,3 C2.80909091,3 2,3.89 2,5 L2,17 C2,18.1 2.80909091,19 3.81818182,19 L9,19 L9,21 L15,21 L15,19 L20.1818182,19 C21.1818182,19 22,18.1 22,17 L22,5 C22,3.89 21.1818182,3 20.1818182,3 Z M20,17 L4,17 L4,5 L20,5 L20,17 Z M8,9 C8.55228475,9 9,9.44771525 9,10 L9,14 C9,14.5522847 8.55228475,15 8,15 C7.44771525,15 7,14.5522847 7,14 L7,10 C7,9.44771525 7.44771525,9 8,9 Z M12,7 C12.5522847,7 13,7.44771525 13,8 L13,14 C13,14.5522847 12.5522847,15 12,15 C11.4477153,15 11,14.5522847 11,14 L11,8 C11,7.44771525 11.4477153,7 12,7 Z M16,11 C16.5522847,11 17,11.4477153 17,12 L17,14 C17,14.5522847 16.5522847,15 16,15 C15.4477153,15 15,14.5522847 15,14 L15,12 C15,11.4477153 15.4477153,11 16,11 Z" id="Shape" fill-opacity="0.87" fill="#FFFFFF" fill-rule="nonzero"></path>
            </g>
        </g>
    </g>
</svg>