<?xml version="1.0" encoding="UTF-8"?>
<svg width="20px" height="16px" viewBox="0 0 20 16" version="1.1" xmlns="http://www.w3.org/2000/svg" xmlns:xlink="http://www.w3.org/1999/xlink">
    <title>설비이력</title>
    <g id="통합-대시보드_메뉴" stroke="none" stroke-width="1" fill="none" fill-rule="evenodd" fill-opacity="0.87">
        <g id="설비현황-활성화" transform="translate(-2.000000, -4.000000)" fill="#FFFFFF">
            <g id="Combined-Shape">
                <path d="M20.1818182,4 C21.1818182,4 22,4.89 22,6 L22,6 L22,18 C22,19.1 21.1818182,20 20.1818182,20 L20.1818182,20 L3.81818182,20 C2.80909091,20 2,19.1 2,18 L2,18 L2,6 C2,4.89 2.80909091,4 3.81818182,4 L3.81818182,4 Z M20,6 L4,6 L4,18 L20,18 L20,6 Z M17.6349487,9.22747303 C18.028798,9.55116863 18.1115886,10.1130065 17.8461818,10.5331132 L17.7725545,10.6349673 L14.4850264,14.6349424 C14.1351989,15.0605818 13.5146629,15.1180861 13.0940756,14.7860373 L13.0007806,14.7024857 L10.3560001,12.0230101 L7.71169152,14.7024857 C7.35356006,15.0653046 6.78652137,15.0967231 6.39225435,14.7942583 L6.29750788,14.7116848 C5.93468668,14.3535555 5.90326802,13.7865204 6.20573469,13.3922558 L6.28830874,13.2975099 L9.64454469,9.89734515 C10.0059751,9.53118404 10.5793445,9.5030178 10.9733809,9.81284643 L11.0679275,9.89734515 L13.6440001,12.5070071 L16.2274457,9.365078 C16.5781181,8.93841063 17.2082787,8.87680279 17.6349487,9.22747303 Z" fill-rule="nonzero"></path>
            </g>
        </g>
    </g>
</svg>