<?xml version="1.0" encoding="UTF-8"?>
<svg width="19px" height="19px" viewBox="0 0 19 19" version="1.1" xmlns="http://www.w3.org/2000/svg" xmlns:xlink="http://www.w3.org/1999/xlink">
    <title>설비이력 copy 2</title>
    <g id="통합-대시보드_메뉴" stroke="none" stroke-width="1" fill="none" fill-rule="evenodd">
        <g id="자원분석/활성화" transform="translate(-3.000000, -2.000000)">
            <g>
                <polygon id="Path" points="0 0 24 0 24 24 0 24"></polygon>
                <path d="M12,3 L12,5 L5,5 L5,19 L19,19 L19,12 L21,12 L21,19 C21,20.05 20.1799587,20.9177686 19.1486946,20.9944872 L19,21 L5,21 C3.95,21 3.0822314,20.1799587 3.00551277,19.1486946 L3,19 L3,5 C3,3.95 3.82004132,3.0822314 4.85130541,3.00551277 L5,3 L12,3 Z M17.6349487,10.227473 C18.028798,10.5511686 18.1115886,11.1130065 17.8461818,11.5331132 L17.7725545,11.6349673 L14.4850264,15.6349424 C14.1351989,16.0605818 13.5146629,16.1180861 13.0940756,15.7860373 L13.0007806,15.7024857 L10.3560001,13.0230101 L7.71169152,15.7024857 C7.35356006,16.0653046 6.78652137,16.0967231 6.39225435,15.7942583 L6.29750788,15.7116848 C5.93468668,15.3535555 5.90326802,14.7865204 6.20573469,14.3922558 L6.28830874,14.2975099 L9.64454469,10.8973451 C10.0059751,10.531184 10.5793445,10.5030178 10.9733809,10.8128464 L11.0679275,10.8973451 L13.6440001,13.5070071 L16.2274457,10.365078 C16.5781181,9.93841063 17.2082787,9.87680279 17.6349487,10.227473 Z M16.5,2 C18.4329966,2 20,3.56700338 20,5.5 C20,6.10926096 19.8443266,6.68216245 19.5705863,7.18109792 L19.6128994,7.20970461 L19.6128994,7.20970461 L19.7071068,7.29289322 L21.1213203,8.70710678 C21.5118446,9.09763107 21.5118446,9.73079605 21.1213203,10.1213203 C20.7608364,10.4818043 20.1936053,10.5095338 19.8013141,10.204509 L19.7071068,10.1213203 L18.2928932,8.70710678 C18.2500634,8.664277 18.2119309,8.61852873 18.1784956,8.57050212 C17.6821624,8.84432659 17.109261,9 16.5,9 C14.5670034,9 13,7.43299662 13,5.5 C13,3.56700338 14.5670034,2 16.5,2 Z M16.5,4 C15.6715729,4 15,4.67157288 15,5.5 C15,6.32842712 15.6715729,7 16.5,7 C17.3284271,7 18,6.32842712 18,5.5 C18,4.67157288 17.3284271,4 16.5,4 Z" id="Shape" fill-opacity="0.87" fill="#FFFFFF" fill-rule="nonzero"></path>
            </g>
        </g>
    </g>
</svg>