<?xml version="1.0" encoding="UTF-8"?>
<svg width="20px" height="20px" viewBox="0 0 20 20" version="1.1" xmlns="http://www.w3.org/2000/svg" xmlns:xlink="http://www.w3.org/1999/xlink">
    <title>설비이력 copy 6</title>
    <g id="통합-대시보드_메뉴" stroke="none" stroke-width="1" fill="none" fill-rule="evenodd">
        <g id="icon/spc/active-" transform="translate(-2.000000, -2.000000)">
            <g id="icon/dashboard/active" stroke-width="1" fill-rule="evenodd">
                <rect id="Rectangle" x="0" y="0" width="24" height="24"></rect>
            </g>
            <path d="M12,2 C17.5228475,2 22,6.4771525 22,12 C22,17.5228475 17.5228475,22 12,22 C6.4771525,22 2,17.5228475 2,12 C2,6.4771525 6.4771525,2 12,2 Z M12,4 C7.581722,4 4,7.581722 4,12 C4,16.418278 7.581722,20 12,20 C16.418278,20 20,16.418278 20,12 C20,7.581722 16.418278,4 12,4 Z M16.0705762,8.00342224 L16.1712222,8.01999027 C16.5408909,8.10667342 16.7819846,8.45301438 16.7467618,8.82076026 L16.7301938,8.92140629 L16.418,10.25 L17.5,10.250184 C17.7761424,10.250184 18,10.4740417 18,10.750184 L18,11.250184 C18,11.5263264 17.7761424,11.750184 17.5,11.750184 L16.067,11.75 L14.8973773,16.737629 C14.7294521,17.4537622 13.7618766,17.5107005 13.4841032,16.8785425 L13.44445,16.7667972 L12.053,11.75 L12.026,11.75 L10.7858306,16.7472551 C10.6084813,17.4610418 9.64036026,17.5052825 9.37087034,16.8696112 L9.33267954,16.7573688 L8.014,11.75 L6.5,11.750184 C6.22385763,11.750184 6,11.5263264 6,11.250184 L6,10.750184 C6,10.4740417 6.22385763,10.250184 6.5,10.250184 L7.619,10.25 L7.27471832,8.94114605 C7.16925292,8.54058404 7.40847598,8.13036777 7.80903799,8.02490237 C8.17621984,7.92822575 8.55151394,8.12118319 8.6927483,8.46254887 L8.72528168,8.55922204 L9.17,10.25 L10.854,10.25 L11.2721306,8.56933574 C11.4482909,7.86033422 12.4076775,7.81021867 12.6833672,8.43875107 L12.7227335,8.54979363 L13.193,10.25 L14.877,10.25 L15.2698062,8.5789618 C15.3564894,8.20929316 15.7028303,7.96819946 16.0705762,8.00342224 Z M10.481,11.75 L9.565,11.75 L10.037,13.541184 L10.481,11.75 Z M14.525,11.75 L13.609,11.75 L14.106,13.539184 L14.525,11.75 Z" id="Shape" fill-opacity="0.87" fill="#FFFFFF" fill-rule="nonzero"></path>
        </g>
    </g>
</svg>