<svg xmlns="http://www.w3.org/2000/svg" xmlns:xlink="http://www.w3.org/1999/xlink" width="16" height="16" viewBox="0 0 16 16">
    <defs>
        <path id="6qb8zr6v0a" d="M0 0.001L15.996 0.001 15.996 8.039 0 8.039z"/>
    </defs>
    <g fill="none" fill-rule="evenodd">
        <g>
            <path fill="#F3C11E" d="M13.964 6.813l1.424-1.874-2.332-.319.599-2.276-2.277.598L11.06.609 9.186 2.033 8 0 6.813 2.033 4.939.608 4.62 2.94l-2.276-.598.598 2.276-2.333.318 1.424 1.875L.064 7.959H2.71c.012-2.9 2.366-5.248 5.269-5.248s5.257 2.348 5.269 5.248h2.679l-1.963-1.146z"/>
            <path fill="#FEFEFE" d="M7.979 2.711c-2.903 0-5.257 2.348-5.269 5.248h10.538c-.012-2.9-2.366-5.248-5.269-5.248"/>
            <g transform="translate(0 7.958)">
                <mask id="veuux0ws8b" fill="#fff">
                    <use xlink:href="#6qb8zr6v0a"/>
                </mask>
                <path fill="#79797A" d="M13.651 2.37l-.559.559H11.75l-.56-.56V1.05l.56-.559h1.342l.56.56V2.37zm0 2.927l-.559.56H11.75l-.56-.56v-1.32l.56-.558h1.342l.56.559v1.32zm-2.95-2.927l-.56.559H8.8l-.56-.56V1.05L8.8.491h1.342l.56.56V2.37zm0 2.927l-.56.56H8.8l-.56-.56v-1.32l.56-.558h1.342l.56.559v1.32zM7.75 2.37l-.56.559H5.849l-.56-.56V1.05l.56-.559h1.343l.559.56V2.37zm0 2.927l-.56.56H5.849l-.56-.56v-1.32l.56-.558h1.343l.559.559v1.32zM4.8 2.37l-.56.559H2.897l-.559-.56V1.05l.56-.559H4.24l.56.56V2.37zm0 2.927l-.56.56H2.897l-.559-.56v-1.32l.56-.558H4.24l.56.559v1.32zM14.7.491h1.284c.008-.15.012-.3.012-.45V0H0v.04c0 .15.005.3.013.45h1.276l.56.56V2.37l-.56.559H.538c.064.166.134.33.209.49h.542l.56.559v1.176l.065.078c.322.376.678.723 1.063 1.034l.1.08H4.24l.56.56v.467c.16.07.323.135.489.195v-.663l.56-.559H7.19l.559.56v1.128c.082.003.165.005.248.005.081 0 .161-.002.242-.004v-1.13l.559-.559h1.342l.56.56v.664c.166-.06.329-.124.49-.194v-.47l.559-.56h1.169l.096-.077c.386-.311.742-.657 1.064-1.034l.062-.073V3.978l.56-.56h.548c.075-.16.145-.323.21-.49H14.7l-.559-.558V1.05l.56-.559z" mask="url(#veuux0ws8b)"/>
            </g>
        </g>
    </g>
</svg>
