<?xml version="1.0" encoding="UTF-8"?>
<svg width="22px" height="19px" viewBox="0 0 22 19" version="1.1" xmlns="http://www.w3.org/2000/svg" xmlns:xlink="http://www.w3.org/1999/xlink">
    <title>Shape</title>
    <g id="Page-1" stroke="none" stroke-width="1" fill="none" fill-rule="evenodd" fill-opacity="0.87">
        <path d="M3,8.292 L1.21,8.292 C0.76,8.292 0.54,8.832 0.86,9.142 L3.65,11.942 C3.85,12.142 4.16,12.142 4.36,11.942 L7.15,9.152 C7.46,8.832 7.24,8.292 6.79,8.292 L5,8.292 C5,4.982 7.69,2.292 11,2.292 C11.79,2.292 12.56,2.442 13.25,2.732 C13.61,2.882 14.02,2.772 14.29,2.502 C14.8,1.992 14.62,1.132 13.95,0.862 C13.04,0.492 12.04,0.292 11,0.292 C6.58,0.292 3,3.872 3,8.292 L3,8.292 Z M17,10.292 C17,13.602 14.31,16.292 11,16.292 C10.21,16.292 9.44,16.142 8.75,15.852 C8.39,15.702 7.98,15.812 7.71,16.082 C7.2,16.592 7.38,17.452 8.05,17.722 C8.96,18.092 9.96,18.292 11,18.292 C15.42,18.292 19,14.712 19,10.292 L20.79,10.292 C21.24,10.292 21.46,9.752 21.14,9.442 L18.35,6.652 C18.15,6.452 17.84,6.452 17.64,6.652 L14.85,9.442 C14.54,9.752 14.76,10.292 15.21,10.292 L17,10.292 Z" id="Shape" fill="#FFFFFF" fill-rule="nonzero"></path>
    </g>
</svg>