<?xml version="1.0" encoding="UTF-8"?>
<svg width="18px" height="18px" viewBox="0 0 18 18" version="1.1" xmlns="http://www.w3.org/2000/svg" xmlns:xlink="http://www.w3.org/1999/xlink">
    <title>Combined Shape</title>
    <g id="Page-1" stroke="none" stroke-width="1" fill="none" fill-rule="evenodd" fill-opacity="0.87">
        <path d="M3.86,2.86 C4.24,3.24 4.24,3.85 3.87,4.24 C2.71,5.49 2,7.16 2,9 C2,12.53 4.606,15.446 8,15.923 L8,17.939 C3.45,17.425 -0.133,13.381 2.51354493e-13,8.74 C0.07,6.47 0.98,4.42 2.43,2.88 C2.81,2.47 3.46,2.46 3.86,2.86 Z M12.553,14.995 L13.869,16.564 C12.729,17.298 11.414,17.783 10,17.939 L10,15.919 C10.803,15.8 11.565,15.539 12.26,15.163 L12.553,14.995 Z M15.534,11.457 L17.594,11.673 C17.164,13.054 16.409,14.293 15.42,15.3 L14.103,13.733 C14.715,13.074 15.205,12.302 15.534,11.457 Z M9,0 C9.51,0 9.935,0.388 9.993,0.884 L10,1 L10,9 C10,9.55 9.55,10 9,10 C8.49,10 8.065,9.612 8.007,9.116 L8,9 L8,1 C8,0.45 8.45,0 9,0 Z M17.7,6.685 C17.896,7.419 18,8.192 18,8.99 C18,9.23 17.99,9.467 17.972,9.702 L15.982,9.492 C15.999,9.271 16.005,9.046 16,8.82 C15.992,8.449 15.954,8.085 15.89,7.73 L17.7,6.685 Z M15.58,2.88 C16.12,3.456 16.585,4.102 16.959,4.804 L15.231,5.802 C14.937,5.234 14.565,4.712 14.13,4.25 C13.788,3.89 13.754,3.343 14.057,2.954 L14.14,2.86 C14.54,2.46 15.2,2.47 15.58,2.88 Z" id="Combined-Shape" fill="#FFFFFF" fill-rule="nonzero"></path>
    </g>
</svg>