<svg xmlns="http://www.w3.org/2000/svg" xmlns:xlink="http://www.w3.org/1999/xlink" width="24" height="24" viewBox="0 0 24 24">
    <defs>
        <filter id="l6u2c3y47a" width="130%" height="130%" x="-17.5%" y="-12.5%" filterUnits="objectBoundingBox">
            <feMorphology in="SourceAlpha" operator="dilate" radius=".5" result="shadowSpreadOuter1"/>
            <feOffset dx="-1" in="shadowSpreadOuter1" result="shadowOffsetOuter1"/>
            <feGaussianBlur in="shadowOffsetOuter1" result="shadowBlurOuter1" stdDeviation=".5"/>
            <feComposite in="shadowBlurOuter1" in2="SourceAlpha" operator="out" result="shadowBlurOuter1"/>
            <feColorMatrix in="shadowBlurOuter1" result="shadowMatrixOuter1" values="0 0 0 0 0 0 0 0 0 0 0 0 0 0 0 0 0 0 0.16 0"/>
            <feMorphology in="SourceAlpha" operator="dilate" radius=".5" result="shadowSpreadOuter2"/>
            <feOffset dy="1" in="shadowSpreadOuter2" result="shadowOffsetOuter2"/>
            <feGaussianBlur in="shadowOffsetOuter2" result="shadowBlurOuter2" stdDeviation=".5"/>
            <feComposite in="shadowBlurOuter2" in2="SourceAlpha" operator="out" result="shadowBlurOuter2"/>
            <feColorMatrix in="shadowBlurOuter2" result="shadowMatrixOuter2" values="0 0 0 0 0 0 0 0 0 0 0 0 0 0 0 0 0 0 0.2 0"/>
            <feMerge>
                <feMergeNode in="shadowMatrixOuter1"/>
                <feMergeNode in="shadowMatrixOuter2"/>
            </feMerge>
        </filter>
        <circle id="l87z4irq8b" cx="12" cy="12" r="10"/>
    </defs>
    <g fill="none" fill-rule="evenodd">
        <g>
            <g>
                <g>
                    <path d="M0 0L24 0 24 24 0 24z" transform="translate(-2053 -301) translate(2053 301)"/>
                    <g transform="translate(-2053 -301) translate(2053 301)">
                        <use fill="#000" filter="url(#l6u2c3y47a)" xlink:href="#l87z4irq8b"/>
                        <use fill="#90CAF3" stroke="#000" xlink:href="#l87z4irq8b"/>
                    </g>
                    <path fill="#000" fill-rule="nonzero" d="M5.781 11.222H4.39c-.35 0-.521.42-.272.661l2.169 2.178c.155.156.396.156.551 0l2.17-2.17c.24-.249.07-.669-.28-.669H7.335c0-2.574 2.091-4.666 4.664-4.666.614 0 1.213.116 1.749.342.28.116.599.03.808-.18.397-.396.257-1.065-.264-1.275C13.586 5.156 12.808 5 12 5c-3.436 0-6.219 2.784-6.219 6.222zm10.883 1.556c0 2.574-2.091 4.666-4.664 4.666-.614 0-1.213-.116-1.749-.342-.28-.116-.599-.03-.808.18-.397.396-.257 1.065.264 1.275.707.287 1.485.443 2.293.443 3.436 0 6.219-2.784 6.219-6.222h1.391c.35 0 .521-.42.272-.661l-2.169-2.17c-.155-.156-.396-.156-.551 0l-2.17 2.17c-.24.24-.07.66.28.66h1.392z" transform="translate(-2053 -301) translate(2053 301)"/>
                </g>
            </g>
        </g>
    </g>
</svg>
