<svg xmlns="http://www.w3.org/2000/svg" width="18" height="18" viewBox="0 0 18 18">
    <g fill="none" fill-rule="evenodd">
        <g>
            <g>
                <g>
                    <g>
                        <g>
                            <path d="M0 0H18V18H0z" transform="translate(-1122 -845) translate(696 380) translate(418 456) translate(8 9)"/>
                            <path fill="#FFF" fill-opacity=".87" fill-rule="nonzero" d="M7.6 12.4l4.8-2.987L7.6 6v6.4zM9 1.5C4.86 1.5 1.5 4.86 1.5 9c0 4.14 3.36 7.5 7.5 7.5 4.14 0 7.5-3.36 7.5-7.5 0-4.14-3.36-7.5-7.5-7.5zM9 15c-3.308 0-6-2.693-6-6 0-3.308 2.692-6 6-6 3.307 0 6 2.692 6 6 0 3.307-2.693 6-6 6z" transform="translate(-1122 -845) translate(696 380) translate(418 456) translate(8 9)"/>
                        </g>
                    </g>
                </g>
            </g>
        </g>
    </g>
</svg>
