<svg xmlns="http://www.w3.org/2000/svg" width="44" height="44" viewBox="0 0 44 44">
    <g fill="none" fill-opacity=".87" fill-rule="evenodd">
        <g fill="#FFF">
            <g>
                <g>
                    <g>
                        <path d="M4.9 32.8c-.497 0-.9-.403-.9-.9v-27c0-.497.403-.9.9-.9h34.2c.497 0 .9.403.9.9v27c0 .497-.403.9-.9.9H23.8v3.6h8.1c.497 0 .9.403.9.9v1.8c0 .497-.403.9-.9.9H12.1c-.497 0-.9-.403-.9-.9v-1.8c0-.497.403-.9.9-.9h8.1v-3.6H4.9zm14.76-12.6H8.14c-.256 0-.47.178-.526.416l-.014.124v7.92c0 .256.178.47.416.526l.124.014h11.52c.256 0 .47-.178.526-.416l.014-.124v-7.92c0-.298-.242-.54-.54-.54zm16.2 0H24.34c-.256 0-.47.178-.526.416l-.014.124v7.92c0 .256.178.47.416.526l.124.014h11.52c.256 0 .47-.178.526-.416l.014-.124v-7.92c0-.298-.242-.54-.54-.54zM19.66 7.6H8.14c-.256 0-.47.178-.526.416L7.6 8.14v7.92c0 .256.178.47.416.526l.124.014h11.52c.256 0 .47-.178.526-.416l.014-.124V8.14c0-.298-.242-.54-.54-.54zm16.2 0H24.34c-.256 0-.47.178-.526.416l-.014.124v7.92c0 .256.178.47.416.526l.124.014h11.52c.256 0 .47-.178.526-.416l.014-.124V8.14c0-.298-.242-.54-.54-.54z" transform="translate(-761 -248) translate(696 124) translate(30 104) translate(35 20)"/>
                    </g>
                </g>
            </g>
        </g>
    </g>
</svg>
