<svg xmlns="http://www.w3.org/2000/svg" width="44" height="44" viewBox="0 0 44 44">
    <g fill="none" fill-rule="evenodd">
        <g>
            <g>
                <g>
                    <g>
                        <g>
                            <path d="M0 0L44 0 44 44 0 44z" transform="translate(-887 -248) translate(696 124) translate(156 104) translate(35 16) translate(0 4)"/>
                            <path fill="#FFF" fill-opacity=".87" fill-rule="nonzero" d="M23.765 1.833c.506 0 .917.411.917.917v11.953c1.88-1.767 4.53-2.836 7.429-2.786 5.384.095 9.786 4.024 9.918 8.961l.004.381-.017.917c-.007.45-.339.818-.768.887l-.165.013-13.994-.245c2.42 1.814 4.01 4.87 4.01 8.336 0 5.43-3.903 9.858-8.79 10.074l-.377.009h-.916c-.451 0-.825-.325-.902-.752l-.015-.165V28.175c-1.76 1.33-4.02 2.117-6.514 2.075-5.68-.1-10.006-4.464-9.918-9.605l.013-.654c.009-.506.427-.91.933-.899l11.993.21c-1.8-1.843-2.924-4.468-2.924-7.385 0-5.57 4.103-10.084 9.167-10.084h.916zm0 23.627v11.412l.354-.152c1.746-.834 3.022-2.636 3.27-4.79l.032-.408.011-.355c0-2.501-1.38-4.646-3.346-5.568l-.32-.14zM7.867 22.29l.027.123c.682 2.695 3.055 4.646 5.746 4.694l.323-.004c2.56-.1 4.84-1.923 5.582-4.486l.033-.121-11.711-.206zm24.18-6.708c-2.585-.044-4.8 1.223-5.854 3.051l-.158.293-.099.217 12.091.21-.092-.22c-.817-1.818-2.735-3.204-5.098-3.496l-.422-.038-.368-.017zm-11.031 2.039V6.21l-.022.009c-2.127.837-3.645 3.072-3.645 5.698l.009.355c.123 2.332 1.448 4.31 3.302 5.198l.355.152z" transform="translate(-887 -248) translate(696 124) translate(156 104) translate(35 16) translate(0 4)"/>
                        </g>
                    </g>
                </g>
            </g>
        </g>
    </g>
</svg>
