<?xml version="1.0" encoding="UTF-8"?>
<svg width="21px" height="20px" viewBox="0 0 21 20" version="1.1" xmlns="http://www.w3.org/2000/svg" xmlns:xlink="http://www.w3.org/1999/xlink">
    <title>Shape</title>
    <g id="Page-1" stroke="none" stroke-width="1" fill="none" fill-rule="evenodd" fill-opacity="0.87">
        <path d="M19.5,0 C20.328,0 21,0.672 21,1.5 L21,18.5 C21,19.328 20.328,20 19.5,20 L13.623,20 C12.795,20 12.123,19.328 12.123,18.5 C12.123,18.39 12.135,18.281 12.159,18.175 L15.937,1.175 C16.089,0.488 16.698,0 17.4,0 L19.5,0 Z M5,16.691 C6.541,15.601 8.215,15.801 9.707,17.293 C10.097,17.683 10.097,18.317 9.707,18.707 C9.317,19.097 8.683,19.097 8.293,18.707 C7.35,17.764 6.65,17.764 5.707,18.707 C5.557,18.857 5.371,18.95 5.177,18.985 L5.059,18.998 C4.784,19.015 4.503,18.918 4.293,18.708 C3.35,17.764 2.65,17.764 1.707,18.708 C1.317,19.098 0.683,19.098 0.293,18.708 C-0.097,18.317 -0.097,17.684 0.293,17.293 C1.785,15.801 3.459,15.6 5,16.691 Z M19,2 L17.802,2 L14.246,18 L19,18 L19,2 Z M6,11.691 C7.541,10.601 9.215,10.801 10.707,12.293 C11.097,12.683 11.097,13.317 10.707,13.707 C10.317,14.097 9.683,14.097 9.293,13.707 C8.35,12.764 7.65,12.764 6.707,13.707 C6.557,13.857 6.371,13.95 6.177,13.985 L6.059,13.998 C5.784,14.015 5.503,13.918 5.293,13.708 C4.35,12.764 3.65,12.764 2.707,13.708 C2.317,14.098 1.683,14.098 1.293,13.708 C0.903,13.317 0.903,12.684 1.293,12.293 C2.785,10.801 4.459,10.6 6,11.691 Z M7,6.691 C8.541,5.601 10.215,5.801 11.707,7.293 C12.097,7.683 12.097,8.317 11.707,8.707 C11.317,9.097 10.683,9.097 10.293,8.707 C9.35,7.764 8.65,7.764 7.707,8.707 C7.557,8.857 7.371,8.95 7.177,8.985 L7.059,8.998 C6.784,9.015 6.503,8.918 6.293,8.708 C5.35,7.764 4.65,7.764 3.707,8.708 C3.317,9.098 2.683,9.098 2.293,8.708 C1.903,8.317 1.903,7.684 2.293,7.293 C3.785,5.801 5.459,5.6 7,6.691 Z M8,1.691 C9.541,0.601 11.215,0.801 12.707,2.293 C13.097,2.683 13.097,3.317 12.707,3.707 C12.317,4.097 11.683,4.097 11.293,3.707 C10.35,2.764 9.65,2.764 8.707,3.707 C8.557,3.857 8.371,3.95 8.177,3.985 L8.059,3.998 C7.784,4.015 7.503,3.918 7.293,3.708 C6.35,2.764 5.65,2.764 4.707,3.708 C4.317,4.098 3.683,4.098 3.293,3.708 C2.903,3.317 2.903,2.684 3.293,2.293 C4.785,0.801 6.459,0.6 8,1.691 L8,1.691 Z" id="Shape" fill="#FFFFFF" fill-rule="nonzero"></path>
    </g>
</svg>