<?xml version="1.0" encoding="UTF-8"?>
<svg width="21px" height="22px" viewBox="0 0 21 22" version="1.1" xmlns="http://www.w3.org/2000/svg" xmlns:xlink="http://www.w3.org/1999/xlink">
    <title>Shape</title>
    <g id="Page-1" stroke="none" stroke-width="1" fill="none" fill-rule="evenodd" fill-opacity="0.87">
        <path d="M10.9637193,0 C11.2397193,0 11.4637193,0.224 11.4637193,0.5 L11.4637193,7.02 C12.4887193,6.056 13.9347193,5.473 15.5157193,5.5 C18.4527193,5.552 20.8537193,7.695 20.9257193,10.388 L20.9277193,10.596 L20.9187193,11.096 C20.9147193,11.341 20.7337193,11.542 20.4997193,11.58 L20.4097193,11.587 L12.7767193,11.453 C14.0967193,12.443 14.9637193,14.11 14.9637193,16 C14.9637193,18.962 12.8347193,21.377 10.1697193,21.495 L9.96371927,21.5 L9.46371927,21.5 C9.21771927,21.5 9.01371927,21.323 8.97171927,21.09 L8.96371927,21 L8.96371927,14.368 C8.00371927,15.094 6.77071927,15.523 5.41071927,15.5 C2.31271927,15.445 -0.04728073,13.065 0.000719270015,10.261 L0.00771927002,9.904 C0.01271927,9.628 0.24071927,9.408 0.51671927,9.414 L7.05871927,9.528 C6.07671927,8.523 5.46371927,7.09 5.46371927,5.5 C5.46371927,2.462 7.70171927,0 10.4637193,0 L10.9637193,0 Z M10.9637193,12.887 L10.9637193,19.112 L11.1567193,19.029 C12.1087193,18.574 12.8047193,17.591 12.9397193,16.416 L12.9577193,16.194 L12.9637193,16 C12.9637193,14.636 12.2107193,13.466 11.1387193,12.963 L10.9637193,12.887 L10.9637193,12.887 Z M2.29071927,11.159 L2.30571927,11.226 C2.67771927,12.696 3.97171927,13.76 5.43971927,13.786 L5.61571927,13.784 C7.01271927,13.729 8.25571927,12.735 8.66071927,11.337 L8.67871927,11.271 L2.29071927,11.159 L2.29071927,11.159 Z M15.4807193,7.5 C14.0707193,7.476 12.8627193,8.167 12.2877193,9.164 L12.2017193,9.324 L12.1477193,9.442 L18.7427193,9.557 L18.6927193,9.437 C18.2467193,8.445 17.2007193,7.689 15.9117193,7.53 L15.6817193,7.509 L15.4807193,7.5 Z M9.46371927,8.612 L9.46371927,2.387 L9.45171927,2.392 C8.29071927,2.85 7.46371927,4.068 7.46371927,5.5 L7.46871927,5.694 C7.53571927,6.966 8.25871927,8.045 9.26971927,8.529 L9.46371927,8.612 Z" id="Shape" fill="#FFFFFF" fill-rule="nonzero"></path>
    </g>
</svg>