<?xml version="1.0" encoding="UTF-8"?>
<svg width="24px" height="24px" viewBox="0 0 24 24" version="1.1" xmlns="http://www.w3.org/2000/svg" xmlns:xlink="http://www.w3.org/1999/xlink">
    <title>ico1_sun</title>
    <g id="Page-1" stroke="none" stroke-width="1" fill="none" fill-rule="evenodd">
        <g id="ico1_sun">
            <path d="M6.05052999,4.60083894 L5.66697001,4.21766817 C5.27721185,3.8283055 4.64560962,3.82862611 4.25624695,4.21838428 C4.25583093,4.21880071 4.25541528,4.21921753 4.255,4.2196347 C3.86512079,4.61129419 3.86512079,5.24441357 4.255,5.63607306 L4.63250697,6.01530381 C5.02284536,6.40742456 5.65715383,6.40886946 6.04927459,6.01853107 C6.04951652,6.01829024 6.04975832,6.01804929 6.05,6.01780822 C6.44143136,5.62735865 6.44222725,4.99351892 6.05177768,4.60208757 C6.05136215,4.60167099 6.05094625,4.60125479 6.05052999,4.60083894 Z M2.00456621,10.9954338 L2.99543379,10.9954338 C3.55024039,10.9954338 4,11.4451934 4,12 C4,12.5548066 3.55024039,13.0045662 2.99543379,13.0045662 L2.00456621,13.0045662 C1.44975961,13.0045662 1,12.5548066 1,12 C1,11.4451934 1.44975961,10.9954338 2.00456621,10.9954338 Z M12,1 C12.5522848,1 13,1.44771525 13,2 L13,2.96347032 C13,3.51575507 12.5522848,3.96347032 12,3.96347032 C11.4477152,3.96347032 11,3.51575507 11,2.96347032 L11,2 C11,1.44771525 11.4477152,1 12,1 Z M19.744,4.21310502 C20.1332859,4.60389074 20.1333982,5.23585573 19.7442511,5.62677973 L19.3617512,6.01102621 C18.9749842,6.39955921 18.3464795,6.40099088 17.9579464,6.01422394 C17.9567948,6.01307753 17.955646,6.01192831 17.9545,6.01077625 C17.56541,5.61963185 17.5655223,4.98760314 17.9547512,4.59659698 L18.3362511,4.21335507 C18.7232917,3.82454718 19.3522411,3.82311449 19.741049,4.21015507 C19.7420347,4.21113632 19.7430184,4.21211964 19.744,4.21310502 Z M17.9380386,19.3955544 L18.3269755,19.78845 C18.7124052,20.1778027 19.3404906,20.180983 19.7298434,19.7955533 C19.7315685,19.7938455 19.7332874,19.7921314 19.735,19.790411 C20.1245625,19.3990697 20.1236811,18.7661938 19.73303,18.3759392 L19.341956,17.985262 C18.9549622,17.5986608 18.3278393,17.5989791 17.9412381,17.985973 C17.9408251,17.9863866 17.9404124,17.9868004 17.94,17.9872146 C17.5525722,18.3764115 17.5516963,19.0052798 17.9380386,19.3955544 Z M21.0045662,10.9954338 L21.9954338,10.9954338 C22.5502404,10.9954338 23,11.4451934 23,12 C23,12.5548066 22.5502404,13.0045662 21.9954338,13.0045662 L21.0045662,13.0045662 C20.4497596,13.0045662 20,12.5548066 20,12 C20,11.4451934 20.4497596,10.9954338 21.0045662,10.9954338 Z M12,5.97260274 C8.68999997,5.97260274 6,8.67488583 6,12 C6,15.3251142 8.68999997,18.0273973 12,18.0273973 C15.31,18.0273973 18,15.3251142 18,12 C18,8.67488583 15.31,5.97260274 12,5.97260274 Z M12,16.0182649 C9.78999997,16.0182649 8,14.2200914 8,12 C8,9.77990865 9.78999997,7.98173516 12,7.98173516 C14.21,7.98173516 16,9.77990865 16,12 C16,14.2200914 14.21,16.0182649 12,16.0182649 Z M12,20.0365297 C12.5522848,20.0365297 13,20.4842449 13,21.0365297 L13,22 C13,22.5522847 12.5522848,23 12,23 C11.4477152,23 11,22.5522847 11,22 L11,21.0365297 C11,20.4842449 11.4477152,20.0365297 12,20.0365297 Z M4.255,19.7803653 C4.6415128,20.168643 5.26960459,20.1700737 5.65788228,19.7835609 C5.65960268,19.7818484 5.66131678,19.7801295 5.66302456,19.7784043 L6.04697544,19.3905454 C6.43607724,18.9974832 6.43519515,18.364123 6.045,17.9721461 C5.6584872,17.5838684 5.03039541,17.5824377 4.64211771,17.9689505 C4.64039732,17.9706631 4.63868322,17.9723819 4.63697544,17.9741071 L4.25302457,18.3619659 C3.86392275,18.7550281 3.86480485,19.3883884 4.255,19.7803653 Z" id="Shape" fill="#FFFFFF" fill-rule="nonzero"></path>
            <rect id="Rectangle" x="0" y="0" width="24" height="24"></rect>
        </g>
    </g>
</svg>