<?xml version="1.0" encoding="UTF-8"?>
<svg width="24px" height="24px" viewBox="0 0 24 24" version="1.1" xmlns="http://www.w3.org/2000/svg" xmlns:xlink="http://www.w3.org/1999/xlink">
    <title>ico10_cloud_snow</title>
    <g id="Page-1" stroke="none" stroke-width="1" fill="none" fill-rule="evenodd">
        <g id="ico10_cloud_snow">
            <path d="M15.6666667,16.562963 C16.040521,16.562963 16.3490348,16.8427188 16.3942863,17.2043085 L16.4,17.2962963 L16.3998154,18.4696296 L17.416951,17.8834332 L17.4994716,17.8423875 C17.8352433,17.7007816 18.2317758,17.8280845 18.418703,18.1518519 C18.6056301,18.4756192 18.5176114,18.8826778 18.2270912,19.1026617 L18.1502843,19.1536038 L17.1331488,19.7407407 L18.1502843,20.3278776 C18.5010323,20.5303821 18.6212073,20.9788817 18.418703,21.3296296 C18.2317758,21.6533969 17.8352433,21.7806999 17.4994716,21.6390939 L17.416951,21.5980483 L16.3998154,21.011037 L16.4,22.1851852 C16.4,22.590194 16.0716755,22.9185185 15.6666667,22.9185185 C15.2928124,22.9185185 14.9842985,22.6387627 14.9390471,22.277173 L14.9333333,22.1851852 L14.9331488,21.011037 L13.9163824,21.5980483 L13.8338617,21.6390939 C13.4980901,21.7806999 13.1015575,21.6533969 12.9146304,21.3296296 C12.7277032,21.0058623 12.8157219,20.5988036 13.1062421,20.3788198 L13.183049,20.3278776 L14.1998154,19.7407407 L13.183049,19.1536038 C12.8323011,18.9510994 12.712126,18.5025998 12.9146304,18.1518519 C13.1015575,17.8280845 13.4980901,17.7007816 13.8338617,17.8423875 L13.9163824,17.8834332 L14.9331488,18.4696296 L14.9333333,17.2962963 C14.9333333,16.8912875 15.2616578,16.562963 15.6666667,16.562963 Z M7.51851852,16.562963 C7.89237281,16.562963 8.20088664,16.8427188 8.24613814,17.2043085 L8.25185185,17.2962963 L8.2516673,18.4696296 L9.26880283,17.8834332 L9.35132344,17.8423875 C9.6870951,17.7007816 10.0836277,17.8280845 10.2705548,18.1518519 C10.457482,18.4756192 10.3694632,18.8826778 10.0789431,19.1026617 L10.0021362,19.1536038 L8.98500064,19.7407407 L10.0021362,20.3278776 C10.3528841,20.5303821 10.4730592,20.9788817 10.2705548,21.3296296 C10.0836277,21.6533969 9.6870951,21.7806999 9.35132344,21.6390939 L9.26880283,21.5980483 L8.2516673,21.011037 L8.25185185,22.1851852 C8.25185185,22.590194 7.92352733,22.9185185 7.51851852,22.9185185 C7.14466422,22.9185185 6.8361504,22.6387627 6.79089889,22.277173 L6.78518519,22.1851852 L6.78500064,21.011037 L5.7682342,21.5980483 L5.68571359,21.6390939 C5.34994193,21.7806999 4.95340938,21.6533969 4.76648224,21.3296296 C4.57955509,21.0058623 4.66757381,20.5988036 4.95809397,20.3788198 L5.03490087,20.3278776 L6.0516673,19.7407407 L5.03490087,19.1536038 C4.68415294,18.9510994 4.56397783,18.5025998 4.76648224,18.1518519 C4.95340938,17.8280845 5.34994193,17.7007816 5.68571359,17.8423875 L5.7682342,17.8834332 L6.78500064,18.4696296 L6.78518519,17.2962963 C6.78518519,16.8912875 7.11350971,16.562963 7.51851852,16.562963 Z M11.5925926,1 C14.805679,1 17.4803086,3.24226852 18.0805556,6.22907407 C20.3756173,6.38490741 22.1851852,8.23759259 22.1851852,10.5231481 C22.1851852,12.9125926 20.2079012,14.8518519 17.7716049,14.8518519 L17.7716049,14.8518519 L6.2962963,14.8518519 C3.37450618,14.8518519 1,12.5230093 1,9.65740741 C1,6.98226852 3.06555556,4.77462963 5.72253086,4.49759259 C6.82592593,2.41981481 9.04154321,1 11.5925926,1 Z M11.5925926,2.73148148 C9.7741975,2.73148148 8.13234568,3.71842593 7.29376543,5.30273148 L7.29376543,5.30273148 L6.85240741,6.12518519 L5.90790123,6.22041667 C4.11598766,6.40222222 2.7654321,7.88263889 2.7654321,9.65740741 C2.7654321,11.5706944 4.34549382,13.1203704 6.2962963,13.1203704 L6.2962963,13.1203704 L17.7716049,13.1203704 C19.2280864,13.1203704 20.4197531,11.9516204 20.4197531,10.5231481 C20.4197531,9.18125 19.3428395,8.04712963 17.9658025,7.96055556 L17.9658025,7.96055556 L16.6152469,7.86532407 L16.3504321,6.56671296 C15.9002469,4.34175926 13.9053086,2.73148148 11.5925926,2.73148148 Z" id="Combined-Shape" fill="#FFFFFF" fill-rule="nonzero"></path>
            <rect id="Rectangle" x="0" y="0" width="24" height="24"></rect>
        </g>
    </g>
</svg>