<?xml version="1.0" encoding="UTF-8"?>
<svg width="24px" height="24px" viewBox="0 0 24 24" version="1.1" xmlns="http://www.w3.org/2000/svg" xmlns:xlink="http://www.w3.org/1999/xlink">
    <title>ico2_wind</title>
    <g id="Page-1" stroke="none" stroke-width="1" fill="none" fill-rule="evenodd">
        <g id="ico2_wind">
            <path d="M19.2541471,15.1402715 C21.3229245,15.1402715 23,16.7447533 23,18.7239819 C23,20.7032105 21.3229245,22.3076923 19.2541471,22.3076923 C17.1853697,22.3076923 15.5082942,20.7032105 15.5082942,18.7239819 L15.5137892,18.6263607 C15.5646319,18.1774748 15.9620427,17.8280543 16.4447574,17.8280543 C16.9274722,17.8280543 17.3248829,18.1774748 17.3757256,18.6263607 L17.3812206,18.7239819 C17.3812206,19.7135962 18.2197584,20.5158371 19.2541471,20.5158371 C20.2885358,20.5158371 21.1270736,19.7135962 21.1270736,18.7239819 C21.1270736,17.7343676 20.2885358,16.9321267 19.2541471,16.9321267 L3.15868545,16.9321267 L3.05664746,16.9268695 C2.58745199,16.8782276 2.22222222,16.4980191 2.22222222,16.0361991 C2.22222222,15.5743791 2.58745199,15.1941706 3.05664746,15.1455287 L3.15868545,15.1402715 L19.2541471,15.1402715 Z M19.2035274,5.58371041 C21.3002614,5.58371041 23,7.18819221 23,9.16742082 C23,11.0884368 21.3987756,12.6564257 19.38747,12.7469986 L19.2035274,12.7511313 L5.6157848,12.7511313 C5.09160133,12.7511313 4.66666666,12.3500108 4.66666666,11.8552036 C4.66666666,11.4047398 5.01885095,11.0319232 5.47756455,10.9681314 L5.57740134,10.959276 L19.2035274,10.959276 C20.2518945,10.959276 21.1017638,10.1570351 21.1017638,9.16742082 C21.1017638,8.17780651 20.2518945,7.37556561 19.2035274,7.37556561 C18.2007417,7.37556561 17.3795681,8.10956296 17.3100573,9.03945383 L17.2997219,9.26504199 C17.2481921,9.71392794 16.845411,10.0633484 16.356173,10.0633484 C15.9018807,10.0633484 15.5221353,9.76206239 15.4289461,9.35961832 L15.4126243,9.26504199 L15.407055,9.16742082 C15.407055,7.18819221 17.1067936,5.58371041 19.2035274,5.58371041 Z M10.6642259,2 C12.7519829,2 14.4444445,3.60448181 14.4444445,5.58371041 C14.4444445,7.5047264 12.8500754,9.07271535 10.8473809,9.16328822 L10.6642259,9.16742082 L1.94505463,9.16742082 L1.94505463,9.16742082 C1.45791132,9.16742082 1.0568546,8.81800034 1.00554545,8.36911439 L1,8.27149322 L1.00554545,8.17387203 C1.05318966,7.75704937 1.40240193,7.4259903 1.84208052,7.38082279 L1.94505463,7.37556561 L2.02976923,7.3803439 L2.03017904,7.37556561 L10.6642259,7.37556561 C11.7081044,7.37556561 12.5543352,6.57332471 12.5543352,5.58371041 C12.5543352,4.5940961 11.7081044,3.7918552 10.6642259,3.7918552 C9.66573341,3.7918552 8.84807558,4.52585255 8.77886241,5.45574342 L8.76857122,5.68133159 C8.71726207,6.13021753 8.31620535,6.47963801 7.82906204,6.47963801 C7.37671468,6.47963801 6.99859505,6.17835198 6.90580488,5.77590791 L6.88955286,5.68133159 L6.88400741,5.58371041 C6.88400741,3.60448181 8.57646889,2 10.6642259,2 Z" id="Shape" fill="#FFFFFF" fill-rule="nonzero"></path>
            <rect id="Rectangle" x="0" y="0" width="24" height="24"></rect>
        </g>
    </g>
</svg>