<?xml version="1.0" encoding="UTF-8"?>
<svg width="24px" height="24px" viewBox="0 0 24 24" version="1.1" xmlns="http://www.w3.org/2000/svg" xmlns:xlink="http://www.w3.org/1999/xlink">
    <title>ico3_fog</title>
    <g id="Page-1" stroke="none" stroke-width="1" fill="none" fill-rule="evenodd">
        <g id="ico3_fog">
            <path d="M12.8461538,20.4615385 C13.3134717,20.4615385 13.6923077,20.8403745 13.6923077,21.3076923 C13.6923077,21.736067 13.3739802,22.0900924 12.9609719,22.1461218 L12.8461538,22.1538462 L4.38461538,22.1538462 C3.91729752,22.1538462 3.53846154,21.7750101 3.53846154,21.3076923 C3.53846154,20.8793176 3.856789,20.5252923 4.26979732,20.4692628 L4.38461538,20.4615385 L12.8461538,20.4615385 Z M19.6538461,20.4615385 C20.0999223,20.4615385 20.4615385,20.8403745 20.4615385,21.3076923 C20.4615385,21.736067 20.1576805,22.0900924 19.7634452,22.1461218 L19.6538461,22.1538462 L16.1923077,22.1538462 C15.7462316,22.1538462 15.3846154,21.7750101 15.3846154,21.3076923 C15.3846154,20.8793176 15.6884734,20.5252923 16.0827086,20.4692628 L16.1923077,20.4615385 L19.6538461,20.4615385 Z M19.6153846,17.0769231 C20.0827024,17.0769231 20.4615385,17.4557591 20.4615385,17.9230769 C20.4615385,18.3514516 20.143211,18.705477 19.7302027,18.7615064 L19.6153846,18.7692308 L11.1538462,18.7692308 C10.6865283,18.7692308 10.3076923,18.3903947 10.3076923,17.9230769 C10.3076923,17.4947022 10.6260198,17.1406769 11.0390281,17.0846474 L11.1538462,17.0769231 L19.6153846,17.0769231 Z M8.65384616,17.0769231 C9.0999223,17.0769231 9.46153846,17.4557591 9.46153846,17.9230769 C9.46153846,18.3514516 9.15768044,18.705477 8.76344522,18.7615064 L8.65384616,18.7692308 L5.19230769,18.7692308 C4.74623155,18.7692308 4.38461538,18.3903947 4.38461538,17.9230769 C4.38461538,17.4947022 4.68847341,17.1406769 5.08270863,17.0846474 L5.19230769,17.0769231 L8.65384616,17.0769231 Z M12,1 C15.3366666,1 18.1141666,3.32850962 18.7375,6.43019231 C21.1208334,6.59201923 23,8.51596154 23,10.8894231 C23,13.3707692 20.9466666,15.3846154 18.4166666,15.3846154 L18.4166666,15.3846154 L6.5,15.3846154 C3.46583334,15.3846154 1,12.9662019 1,9.99038462 C1,7.21235577 3.145,4.91980769 5.90416666,4.63211538 C7.05,2.47442308 9.35083334,1 12,1 Z M12,2.79807692 C10.1116666,2.79807692 8.40666666,3.82298077 7.53583334,5.46822115 L7.53583334,5.46822115 L7.0775,6.32230769 L6.09666666,6.42120192 C4.23583334,6.61 2.83333334,8.14735577 2.83333334,9.99038462 C2.83333334,11.9772596 4.47416666,13.5865385 6.5,13.5865385 L6.5,13.5865385 L18.4166666,13.5865385 C19.9291666,13.5865385 21.1666666,12.3728365 21.1666666,10.8894231 C21.1666666,9.49591346 20.0483334,8.31817308 18.6183334,8.22826923 L18.6183334,8.22826923 L17.2158334,8.129375 L16.9408334,6.78081731 C16.4733334,4.47028846 14.4016666,2.79807692 12,2.79807692 Z" id="Combined-Shape" fill="#FFFFFF" fill-rule="nonzero"></path>
            <rect id="Rectangle" x="0" y="0" width="24" height="24"></rect>
        </g>
    </g>
</svg>