<?xml version="1.0" encoding="UTF-8"?>
<svg width="24px" height="24px" viewBox="0 0 24 24" version="1.1" xmlns="http://www.w3.org/2000/svg" xmlns:xlink="http://www.w3.org/1999/xlink">
    <title>ico4_cloud</title>
    <g id="Page-1" stroke="none" stroke-width="1" fill="none" fill-rule="evenodd">
        <g id="ico4_cloud">
            <path d="M12,6.83333333 C14.4016667,6.83333333 16.4733333,8.53833333 16.9408333,10.8941667 L17.2158333,12.2691667 L18.6183333,12.37 C20.0483333,12.4616667 21.1666667,13.6625 21.1666667,15.0833333 C21.1666667,16.5958333 19.9291667,17.8333333 18.4166667,17.8333333 L6.5,17.8333333 C4.47416667,17.8333333 2.83333333,16.1925 2.83333333,14.1666667 C2.83333333,12.2875 4.23583333,10.72 6.09666667,10.5275 L7.0775,10.4266667 L7.53583333,9.55583333 C8.40666667,7.87833333 10.1116667,6.83333333 12,6.83333333 M12,5 C9.35083333,5 7.05,6.50333333 5.90416667,8.70333333 C3.145,8.99666667 1,11.3341667 1,14.1666667 C1,17.2008333 3.46583333,19.6666667 6.5,19.6666667 L18.4166667,19.6666667 C20.9466667,19.6666667 23,17.6133333 23,15.0833333 C23,12.6633333 21.1208333,10.7016667 18.7375,10.5366667 C18.1141667,7.37416667 15.3366667,5 12,5 Z" id="Shape" fill="#FFFFFF" fill-rule="nonzero"></path>
            <rect id="Rectangle" x="0" y="0" width="24" height="24"></rect>
        </g>
    </g>
</svg>