<?xml version="1.0" encoding="UTF-8"?>
<svg width="24px" height="24px" viewBox="0 0 24 24" version="1.1" xmlns="http://www.w3.org/2000/svg" xmlns:xlink="http://www.w3.org/1999/xlink">
    <title>ico5_rain</title>
    <g id="Page-1" stroke="none" stroke-width="1" fill="none" fill-rule="evenodd">
        <g id="ico5_rain">
            <path d="M12.556158,15.4217672 C12.9151733,15.706017 13.0066069,16.2106734 12.7894921,16.6021163 L12.7150602,16.7158192 L8.18564848,22.6439514 C7.87849091,23.0459618 7.30934714,23.1183827 6.91443027,22.8057079 C6.55541493,22.5214581 6.46398133,22.0168018 6.68109614,21.6253588 L6.75552799,21.511656 L11.2849398,15.5835236 C11.5920974,15.1815132 12.1612411,15.1090924 12.556158,15.4217672 Z M5.70017696,18.7874764 C6.05754409,19.0738703 6.14606094,19.5790653 5.9266887,19.9692018 L5.85160131,20.0824572 L4.20577861,22.210582 C3.89630412,22.6107468 3.32675184,22.6797596 2.93364798,22.3647263 C2.57628083,22.0783324 2.487764,21.5731373 2.70713624,21.1830008 L2.78222362,21.0697455 L4.42804633,18.9416206 C4.73752082,18.5414558 5.3070731,18.4724431 5.70017696,18.7874764 Z M14.7590005,18.7874764 C15.1163677,19.0738703 15.2048845,19.5790653 14.9855122,19.9692018 L14.9104248,20.0824572 L13.2646022,22.210582 C12.9551276,22.6107468 12.3855754,22.6797596 11.9924715,22.3647263 C11.6351043,22.0783324 11.5465875,21.5731373 11.7659598,21.1830008 L11.8410472,21.0697455 L13.4868698,18.9416206 C13.7963444,18.5414558 14.3658966,18.4724431 14.7590005,18.7874764 Z M19.0338028,10.2215392 C21.224273,10.2215392 23,11.9909493 23,14.1736273 C23,16.3563053 21.224273,18.1257155 19.0338028,18.1257155 C16.8433326,18.1257155 15.0676057,16.3563053 15.0676057,14.1736273 L15.0766573,14.0395586 C15.1423143,13.5573043 15.5571722,13.1856053 16.0591549,13.1856053 C16.5611377,13.1856053 16.9759956,13.5573043 17.0416526,14.0395586 L17.0507043,14.1736273 C17.0507043,15.2649664 17.9385677,16.1496714 19.0338028,16.1496714 C20.129038,16.1496714 21.0169014,15.2649664 21.0169014,14.1736273 C21.0169014,13.0822883 20.129038,12.1975832 19.0338028,12.1975832 L1.99154929,12.1975832 L1.85700193,12.1885637 C1.37302598,12.1231403 1,11.7097582 1,11.2095612 C1,10.7093641 1.37302598,10.295982 1.85700193,10.2305586 L1.99154929,10.2215392 L19.0338028,10.2215392 Z M4.12658942,14.813469 C4.48395657,15.0998629 4.57247341,15.605058 4.35310116,15.9951944 L4.27801378,16.1084498 L3.15531626,17.5601496 C2.84584177,17.9603144 2.27628948,18.0293272 1.88318563,17.7142938 C1.52581849,17.4279 1.43730165,16.9227049 1.65667389,16.5325684 L1.73176127,16.4193131 L2.8544588,14.9676133 C3.16393328,14.5674484 3.73348556,14.4984357 4.12658942,14.813469 Z M9.0217521,14.8104643 C9.37911925,15.0968582 9.46763608,15.6020532 9.24826384,15.9921898 L9.17317646,16.105445 L8.12218983,17.4644194 C7.81271533,17.8645842 7.24316305,17.933597 6.8500592,17.6185637 C6.49269206,17.3321697 6.40417521,16.8269747 6.62354745,16.4368382 L6.69863484,16.3235829 L7.74962147,14.9646085 C8.05909596,14.5644438 8.62864824,14.4954309 9.0217521,14.8104643 Z M18.7749793,1 C20.9654495,1 22.7411765,2.76941015 22.7411765,4.9520882 C22.7411765,7.05681345 21.0900221,8.77726282 19.0080235,8.89746746 L18.7749793,8.90417639 L4.57978459,8.90417639 C4.03216703,8.90417639 3.58823529,8.46182385 3.58823529,7.91615434 C3.58823529,7.42838205 3.94295969,7.02316537 4.40977506,6.94204046 L4.53968517,6.92813229 L18.7749793,6.92813229 C19.8702144,6.92813229 20.7580779,6.04342722 20.7580779,4.9520882 C20.7580779,3.86074917 19.8702144,2.9760441 18.7749793,2.9760441 C17.7405905,2.9760441 16.8911723,3.76517918 16.7999849,4.7722279 L16.7828291,5.08615693 C16.7171721,5.56841124 16.3023141,5.94011024 15.8003314,5.94011024 C15.3439834,5.94011024 14.9596396,5.63292098 14.8442012,5.21474359 L14.8178338,5.08615693 L14.8087821,4.9520882 C14.8087821,2.76941015 16.584509,1 18.7749793,1 Z" id="Shape" fill="#FFFFFF" fill-rule="nonzero"></path>
            <rect id="Rectangle" x="0" y="0" width="24" height="24"></rect>
        </g>
    </g>
</svg>