<?xml version="1.0" encoding="UTF-8"?>
<svg width="24px" height="24px" viewBox="0 0 24 24" version="1.1" xmlns="http://www.w3.org/2000/svg" xmlns:xlink="http://www.w3.org/1999/xlink">
    <title>ico6_mixed_rain</title>
    <g id="Page-1" stroke="none" stroke-width="1" fill="none" fill-rule="evenodd">
        <g id="ico6_mixed_rain">
            <path d="M13.9946116,19.5678771 C14.332125,19.8282666 14.4157242,20.2875901 14.2085393,20.6423025 L14.1376235,20.7452743 L12.5832353,22.6801666 C12.2909539,23.0439967 11.7530434,23.1067431 11.3817787,22.8203147 C11.0442653,22.5599251 10.960666,22.1006016 11.1678509,21.7458892 L11.2387667,21.6429174 L12.7931548,19.7080251 C13.0854363,19.344195 13.6233468,19.2814486 13.9946116,19.5678771 Z M7.38943778,20.1828831 C7.72695119,20.4432726 7.81055043,20.9025962 7.60336553,21.2573085 L7.53244968,21.3602803 L6.47212424,22.6801666 C6.17984277,23.0439967 5.64193228,23.1067431 5.27066753,22.8203147 C4.93315413,22.5599251 4.84955488,22.1006016 5.05673978,21.7458892 L5.12765565,21.6429174 L6.18798107,20.3230311 C6.48026254,19.959201 7.01817303,19.8964547 7.38943778,20.1828831 Z M19.6111904,18.1601328 C19.9487038,18.4205223 20.0323031,18.8798459 19.8251181,19.2345582 L19.7542023,19.33753 L17.4083175,22.2576722 C17.1160361,22.6215023 16.5781256,22.6842487 16.2068608,22.3978202 C15.8693475,22.1374308 15.7857482,21.6781072 15.9929331,21.3233949 L16.063849,21.220423 L18.4097337,18.3002809 C18.7020152,17.9364508 19.2399257,17.8737044 19.6111904,18.1601328 Z M9.59846138,13.6923077 C9.9850607,13.6923077 10.3051158,13.971512 10.3601126,14.3353818 L10.3684614,14.4468882 L10.3672991,15.2960909 L11.1187172,14.8713745 L11.2214324,14.8227068 C11.5704906,14.6874467 11.9772572,14.8194699 12.1705569,15.1475702 C12.3619235,15.4723895 12.2788513,15.8786817 11.9918431,16.1085949 L11.8887172,16.1783464 L11.1372991,16.6028327 L11.8887172,17.027319 C12.2570026,17.2356906 12.3831864,17.6971849 12.1705569,18.0580952 C11.9772572,18.3861955 11.5704906,18.5182186 11.2214324,18.3829586 L11.1187172,18.3342909 L10.3672991,17.9083769 L10.3684614,18.7587771 C10.3684614,19.1755205 10.0237206,19.5133577 9.59846138,19.5133577 C9.21186206,19.5133577 8.89180696,19.2341534 8.83681016,18.8702835 L8.82846138,18.7587771 L8.82729914,17.9095746 L8.0782055,18.3342909 L7.97549044,18.3829586 C7.62643219,18.5182186 7.2196656,18.3861955 7.02636593,18.0580952 C6.83499926,17.7332759 6.91807153,17.3269836 7.20507965,17.0970704 L7.3082055,17.027319 L8.05852137,16.6028327 L7.3082055,16.1783464 C6.93992017,15.9699747 6.81373631,15.5084805 7.02636593,15.1475702 C7.2196656,14.8194699 7.62643219,14.6874467 7.97549044,14.8227068 L8.0782055,14.8713745 L8.82729914,15.294893 L8.82846138,14.4468882 C8.82846138,14.0301449 9.17320212,13.6923077 9.59846138,13.6923077 Z M17.1316548,15.9519755 C17.4691682,16.212365 17.5527674,16.6716886 17.3455825,17.0264009 L17.2746667,17.1293728 L16.2820682,18.3649529 C15.9897867,18.728783 15.4518762,18.7915295 15.0806114,18.505101 C14.7430981,18.2447115 14.6594989,17.7853879 14.8666837,17.4306755 L14.9375996,17.3277038 L15.930198,16.0921235 C16.2224795,15.7282935 16.76039,15.6655471 17.1316548,15.9519755 Z M14.6753845,9.46153846 C15.0619838,9.46153846 15.3820388,9.74074275 15.4370357,10.1046126 L15.4453845,10.216119 L15.4442222,11.0653216 L16.1956403,10.6406053 L16.2983554,10.5919376 C16.6474137,10.4566775 17.0541802,10.5887007 17.2474799,10.916801 C17.4388466,11.2416202 17.3557743,11.6479125 17.0687662,11.8778257 L16.9656403,11.9475772 L16.2142222,12.3720635 L16.9656403,12.7965498 C17.3339256,13.0049214 17.4601095,13.4664157 17.2474799,13.827326 C17.0541802,14.1554262 16.6474137,14.2874494 16.2983554,14.1521893 L16.1956403,14.1035216 L15.4442222,13.6776076 L15.4453845,14.5280079 C15.4453845,14.9447513 15.1006437,15.2825884 14.6753845,15.2825884 C14.2887851,15.2825884 13.9687301,15.0033842 13.9137332,14.6395143 L13.9053845,14.5280079 L13.9042222,13.6788054 L13.1551285,14.1035216 L13.0524135,14.1521893 C12.7033552,14.2874494 12.2965887,14.1554262 12.103289,13.827326 C11.9119223,13.5025067 11.9949946,13.0962144 12.2820028,12.8663012 L12.3851285,12.7965498 L13.1354445,12.3720635 L12.3851285,11.9475772 C12.0168433,11.7392055 11.8906594,11.2777113 12.103289,10.916801 C12.2965887,10.5887007 12.7033552,10.4566775 13.0524135,10.5919376 L13.1551285,10.6406053 L13.9042222,11.0641238 L13.9053845,10.216119 C13.9053845,9.79937571 14.2501252,9.46153846 14.6753845,9.46153846 Z M12,1 C15.3366666,1 18.1141666,3.32662339 18.7375,6.42579353 C21.1208334,6.58748936 23,8.50987316 23,10.881412 C23,13.2807696 21.0770031,15.2426566 18.6599644,15.3667332 L18.4166666,15.372963 L18.1111111,15.372963 L18.1111111,13.5763426 L18.4166666,13.5763426 C19.8661459,13.5763426 21.0630642,12.4625783 21.160291,11.0652167 L21.1666666,10.881412 C21.1666666,9.55232129 20.1476894,8.41967094 18.8113257,8.24131908 L18.6183334,8.2224139 L17.2158334,8.12359978 L16.9408334,6.7761345 C16.4733334,4.46747732 14.4016666,2.79662037 12,2.79662037 C10.2015873,2.79662037 8.56946334,3.72548532 7.66584242,5.23401789 L7.53583334,5.46460163 L7.0775,6.3179963 L6.09666666,6.41681043 C4.23583334,6.60545556 2.83333334,8.14156599 2.83333334,9.98310185 C2.83333334,11.7643676 4.15427832,13.2418977 5.8890532,13.5267422 L5.8890955,15.3399815 C3.14166631,15.0415195 1,12.7541773 1,9.98310185 C1,7.20732339 3.145,4.91663242 5.90416666,4.62917316 C7.05,2.47322871 9.35083334,1 12,1 Z" id="Shape" fill="#FFFFFF" fill-rule="nonzero"></path>
            <rect id="Rectangle" x="0" y="0" width="24" height="24"></rect>
        </g>
    </g>
</svg>