<?xml version="1.0" encoding="UTF-8"?>
<svg width="24px" height="24px" viewBox="0 0 24 24" version="1.1" xmlns="http://www.w3.org/2000/svg" xmlns:xlink="http://www.w3.org/1999/xlink">
    <title>ico7_windy_rain</title>
    <g id="Page-1" stroke="none" stroke-width="1" fill="none" fill-rule="evenodd">
        <g id="ico7_windy_rain">
            <path d="M9.94776781,18.5164754 C10.2647045,18.7620079 10.3461392,19.1988486 10.1554068,19.5381761 L10.0899853,19.6367601 L8.00844529,22.3236399 C7.73835951,22.6722702 7.23679096,22.7359432 6.88816059,22.4658574 C6.57122389,22.2203249 6.48978919,21.7834843 6.68052164,21.4441567 L6.74594307,21.3455727 L8.8274831,18.6586929 C9.0975689,18.3100626 9.59913745,18.2463896 9.94776781,18.5164754 Z M18.7004444,15.8296296 L18.8924547,15.8356958 C20.4157845,15.9322522 21.6207407,17.1694485 21.6207407,18.6814815 C21.6207407,20.2565157 20.3132795,21.5333333 18.7004444,21.5333333 C17.0876094,21.5333333 15.7801481,20.2565157 15.7801481,18.6814815 L15.788064,18.576125 C15.8402091,18.2323238 16.1436688,17.9685185 16.5102222,17.9685185 C16.8767756,17.9685185 17.1802353,18.2323238 17.2323805,18.576125 L17.2402963,18.6814815 C17.2402963,19.4689986 17.8940269,20.1074074 18.7004444,20.1074074 C19.506862,20.1074074 20.1605926,19.4689986 20.1605926,18.6814815 C20.1605926,17.9431841 19.5860247,17.3359391 18.8497361,17.2629175 L18.7004444,17.2555556 L6.1522963,17.2555556 L6.0444113,17.2478252 C5.69235883,17.1969023 5.42222222,16.9005549 5.42222222,16.5425926 C5.42222222,16.1846303 5.69235883,15.8882829 6.0444113,15.8373599 L6.1522963,15.8296296 L18.7004444,15.8296296 Z M5.70839623,18.6651677 C6.02340875,18.9131641 6.10143471,19.3506264 5.90806214,19.6884564 L5.841874,19.7865273 L4.85223693,21.0435942 C4.57944089,21.390108 4.0773911,21.449868 3.73087734,21.177072 C3.41586482,20.9290755 3.33783886,20.4916133 3.53121143,20.1537833 L3.59739956,20.0557124 L4.58703664,18.7986455 C4.85983267,18.4521317 5.36188246,18.3923717 5.70839623,18.6651677 Z M13.6935815,18.6651677 C14.0085939,18.9131641 14.0866199,19.3506264 13.8932473,19.6884564 L13.8270592,19.7865273 L12.8374221,21.0435942 C12.5646261,21.390108 12.0625763,21.449868 11.7160625,21.177072 C11.40105,20.9290755 11.323024,20.4916133 11.5163966,20.1537833 L11.5825847,20.0557124 L12.5722218,18.7986455 C12.8450178,18.4521317 13.3470677,18.3923717 13.6935815,18.6651677 Z M12.2666667,1 C15.3808889,1 17.9732222,3.21588889 18.555,6.16755556 C20.7794444,6.32155556 22.5333333,8.15244444 22.5333333,10.4111111 C22.5333333,12.6962724 20.7385363,14.5647844 18.4826334,14.6829557 L18.2555556,14.6888889 L17.9703704,14.6888889 L17.9703704,12.9777778 L18.2555556,12.9777778 C19.6084028,12.9777778 20.7255266,11.9170226 20.8162715,10.5861676 L20.8222222,10.4111111 C20.8222222,9.14527778 19.8711768,8.06653536 18.623904,7.89667206 L18.4437778,7.87866667 L17.1347778,7.78455556 L16.8781111,6.50122222 C16.4417778,4.30244444 14.5082222,2.71111111 12.2666667,2.71111111 C10.5881481,2.71111111 9.06483245,3.5957672 8.22145293,5.03250189 L8.10011111,5.25211111 L7.67233333,6.06488889 L6.75688889,6.159 C5.02011111,6.33866667 3.71111111,7.80166667 3.71111111,9.55555556 C3.71111111,11.2520429 4.9439931,12.6592506 6.56311632,12.9305381 L6.56315581,14.6574772 C3.99888856,14.3732203 2,12.1947431 2,9.55555556 C2,6.91188889 4.002,4.73022222 6.57722222,4.45644444 C7.64666667,2.40311111 9.79411111,1 12.2666667,1 Z M14.1374815,8.98518519 C15.7503166,8.98518519 17.0577778,10.2620028 17.0577778,11.837037 C17.0577778,13.34907 15.8528216,14.5862663 14.3294918,14.6828228 L14.1374815,14.6888889 L8.43377778,14.6888889 L8.32589278,14.6811586 C7.97384031,14.6302356 7.7037037,14.3338883 7.7037037,13.9759259 C7.7037037,13.6577372 7.91714497,13.3882319 8.21183407,13.2965053 L8.32589278,13.2706933 L8.43377778,13.262963 L14.1374815,13.262963 C14.9438991,13.262963 15.5976296,12.6245542 15.5976296,11.837037 C15.5976296,11.0495199 14.9438991,10.4111111 14.1374815,10.4111111 C13.381465,10.4111111 12.7596461,10.9722126 12.6848719,11.6912444 L12.6773333,11.837037 L12.6694175,11.9423935 C12.6172724,12.2861947 12.3138127,12.55 11.9472593,12.55 C11.621434,12.55 11.3454606,12.3415612 11.2515326,12.0537789 L11.225101,11.9423935 L11.2171852,11.837037 C11.2171852,10.2620028 12.5246464,8.98518519 14.1374815,8.98518519 Z" id="Shape" fill="#FFFFFF" fill-rule="nonzero"></path>
            <rect id="Rectangle" x="0" y="0" width="24" height="24"></rect>
        </g>
    </g>
</svg>