<?xml version="1.0" encoding="UTF-8"?>
<svg width="24px" height="24px" viewBox="0 0 24 24" version="1.1" xmlns="http://www.w3.org/2000/svg" xmlns:xlink="http://www.w3.org/1999/xlink">
    <title>ico8_snow</title>
    <g id="Page-1" stroke="none" stroke-width="1" fill="none" fill-rule="evenodd">
        <g id="ico8_snow">
            <path d="M4.62316724,17.097394 C4.31316342,17.4073978 3.81054792,17.4073978 3.5005441,17.097394 C3.22154066,16.8183906 3.19364032,16.3833717 3.41684307,16.0731652 L3.5005441,15.9747709 L6.68228571,12.7935714 L1.79381443,12.7938144 C1.35540283,12.7938144 1,12.4384116 1,12 C1,11.5981227 1.2986371,11.2659958 1.68609852,11.2134322 L1.79381443,11.2061856 L6.6815,11.2056429 L3.5005441,8.0252291 C3.19054028,7.71522528 3.19054028,7.21260978 3.5005441,6.90260596 C3.77954754,6.62360252 4.21456643,6.59570218 4.52477296,6.81890493 L4.62316724,6.90260596 L8.92628571,11.2056429 L11.2056429,11.2056429 L11.2056429,8.92628571 L6.90260596,4.62316724 C6.59260214,4.31316342 6.59260214,3.81054792 6.90260596,3.5005441 C7.1816094,3.22154066 7.61662829,3.19364032 7.92683482,3.41684307 L8.0252291,3.5005441 L11.2056429,6.68228571 L11.2061856,1.79381443 C11.2061856,1.35540283 11.5615884,1 12,1 C12.4018773,1 12.7340042,1.2986371 12.7865678,1.68609852 L12.7938145,1.79381443 L12.7935714,6.6815 L15.9747709,3.5005441 C16.2847747,3.19054028 16.7873902,3.19054028 17.097394,3.5005441 C17.3763975,3.77954754 17.4042978,4.21456643 17.1810951,4.52477296 L17.097394,4.62316724 L12.7935714,8.92628571 L12.7935714,11.2056429 L15.0729286,11.2056429 L19.3768327,6.90260596 L19.475227,6.81890493 C19.7854335,6.59570218 20.2204524,6.62360252 20.4994559,6.90260596 C20.8094597,7.21260978 20.8094597,7.71522528 20.4994559,8.0252291 L20.4994559,8.0252291 L17.3169286,11.2056429 L22.2061856,11.2061856 C22.6445972,11.2061856 23,11.5615884 23,12 C23,12.4018773 22.7013629,12.7340042 22.3139015,12.7865678 L22.2061856,12.7938144 L17.3177143,12.7935714 L20.4994559,15.9747709 L20.5831569,16.0731652 C20.8063597,16.3833717 20.7784593,16.8183906 20.4994559,17.097394 C20.1894521,17.4073978 19.6868366,17.4073978 19.3768327,17.097394 L19.3768327,17.097394 L15.0729286,12.7935714 L12.7935714,12.7935714 L12.7935714,15.0729286 L17.097394,19.3768327 L17.1810951,19.475227 C17.4042978,19.7854335 17.3763975,20.2204524 17.097394,20.4994559 C16.7873902,20.8094597 16.2847747,20.8094597 15.9747709,20.4994559 L15.9747709,20.4994559 L12.7935714,17.3177143 L12.7938145,22.2061856 C12.7938145,22.6445971 12.4384116,23 12,23 C11.5981227,23 11.2659959,22.7013629 11.2134322,22.3139015 L11.2061856,22.2061856 L11.2056429,17.3169286 L8.0252291,20.4994559 L7.92683482,20.5831569 C7.61662829,20.8063597 7.1816094,20.7784593 6.90260596,20.4994559 C6.59260214,20.1894521 6.59260214,19.6868366 6.90260596,19.3768327 L6.90260596,19.3768327 L11.2056429,15.0729286 L11.2056429,12.7935714 L8.92628571,12.7935714 L4.62316724,17.097394 Z" id="Combined-Shape" fill="#FFFFFF" fill-rule="nonzero"></path>
            <rect id="Rectangle" x="0" y="0" width="24" height="24"></rect>
        </g>
    </g>
</svg>