<?xml version="1.0" encoding="UTF-8"?>
<svg width="24px" height="24px" viewBox="0 0 24 24" version="1.1" xmlns="http://www.w3.org/2000/svg" xmlns:xlink="http://www.w3.org/1999/xlink">
    <title>ico9_thunder_rain</title>
    <g id="Page-1" stroke="none" stroke-width="1" fill="none" fill-rule="evenodd">
        <g id="ico9_thunder_rain">
            <path d="M12.5864018,19.2416001 C12.8998071,19.4833904 12.977435,19.9099051 12.785049,20.2392809 L12.7191986,20.3348976 L11.2758382,22.1315833 C11.004434,22.4694255 10.5049457,22.52769 10.1601998,22.2617208 C9.8467945,22.0199305 9.76916664,21.5934158 9.96155258,21.26404 L10.0274031,21.1684233 L11.4707634,19.3717376 C11.7421677,19.0338954 12.241656,18.9756309 12.5864018,19.2416001 Z M7.08640182,20.2382792 C7.39980712,20.4800695 7.47743499,20.9065842 7.28504902,21.23596 L7.21919857,21.3315767 L5.77583818,23.1282624 C5.50443397,23.4661046 5.00494566,23.5243691 4.66019981,23.2583999 C4.34679451,23.0166096 4.26916664,22.5900949 4.46155261,22.2607191 L4.52740306,22.1651024 L5.97076345,20.3684167 C6.24216766,20.0305745 6.74165598,19.97231 7.08640182,20.2382792 Z M18.8254667,17.0954221 C19.1388721,17.3372124 19.2164999,17.7637271 19.0241139,18.0931029 L18.9582635,18.1887196 L16.7799419,20.9002801 C16.5085378,21.2381224 16.0090494,21.2963869 15.6643036,21.0304176 C15.3508982,20.7886274 15.2732704,20.3621126 15.4656564,20.0327369 L15.5315068,19.9371202 L17.7098284,17.2255596 C17.9812326,16.8877174 18.4807209,16.8294529 18.8254667,17.0954221 Z M11.868404,11.5116957 C12.1797393,11.7560406 12.2537323,12.1831754 12.058548,12.5109663 L11.9918856,12.6060411 L10.3607797,14.6005086 L11.1442867,14.6676839 C11.7368848,14.7184913 12.0511224,15.3568503 11.7612639,15.8363619 L11.695141,15.9299251 L9.13719268,19.059941 C8.86292085,19.3955518 8.36295376,19.4497293 8.02048491,19.1809499 C7.70914959,18.9366049 7.63515662,18.5094701 7.83034085,18.1816793 L7.89700327,18.0866044 L9.52584805,16.0919431 L8.74460213,16.0249617 C8.15200409,15.9741542 7.83776646,15.3357952 8.12762499,14.8562836 L8.19374783,14.7627205 L10.7516962,11.6327046 C11.025968,11.2970938 11.5259351,11.2429163 11.868404,11.5116957 Z M16.4489065,10.5954863 C16.7602418,10.8398313 16.8342348,11.2669661 16.6390506,11.5947569 L16.5723881,11.6898318 L14.9413403,13.6840652 L15.7247893,13.7514746 C16.3173873,13.8022819 16.6316249,14.4406409 16.3417665,14.9201525 L16.2756436,15.0137158 L13.7176952,18.1437316 C13.4434234,18.4793425 12.9434563,18.53352 12.6009874,18.2647405 C12.2896521,18.0203955 12.2156591,17.5932608 12.4108434,17.2654699 L12.4775058,17.1703951 L14.1064088,15.1754997 L13.3251047,15.1087523 C12.7325066,15.0579449 12.418269,14.4195859 12.7081275,13.9400743 L12.7742504,13.8465111 L15.3321988,10.7164952 C15.6064706,10.3808844 16.1064376,10.3267069 16.4489065,10.5954863 Z M6.56474001,16.3097078 C6.87814533,16.5514981 6.95577319,16.9780128 6.76338722,17.3073886 L6.69753678,17.4030053 L5.77583818,18.5503297 C5.50443397,18.8881719 5.00494566,18.9464365 4.66019981,18.6804672 C4.34679451,18.438677 4.26916664,18.0121622 4.46155261,17.6827864 L4.52740306,17.5871698 L5.44910164,16.4398453 C5.72050586,16.1020031 6.21999418,16.0437386 6.56474001,16.3097078 Z M12.2142857,2 C15.312619,2 17.8917262,4.160436 18.4705357,7.03823685 C20.683631,7.18838298 22.4285714,8.97345365 22.4285714,11.1755969 C22.4285714,13.4035718 20.6429314,15.225324 18.3985384,15.340538 L18.172619,15.3463228 L17.8888889,15.3463228 L17.8888889,13.6780325 L18.172619,13.6780325 C19.518564,13.6780325 20.6299882,12.6438227 20.7202702,11.3462726 L20.7261904,11.1755969 C20.7261904,9.9414412 19.7799973,8.88969444 18.5390882,8.724082 L18.359881,8.70652719 L17.0575595,8.61477122 L16.8022024,7.36355346 C16.3680953,5.21980037 14.4444047,3.66829034 12.2142857,3.66829034 C10.5443311,3.66829034 9.02878739,4.5308078 8.18971082,5.93158804 L8.0689881,6.14570151 L7.64339286,6.93813942 L6.73261904,7.0298954 C5.00470238,7.20506588 3.70238095,8.63145413 3.70238095,10.3414517 C3.70238095,11.9954842 4.92897273,13.3674764 6.53983511,13.6319749 L6.5398744,15.3156971 C3.98869015,15.0385538 2,12.9145933 2,10.3414517 C2,7.76394315 3.99178571,5.63687296 6.55386904,5.3699465 C7.61785714,3.36799808 9.75434524,2 12.2142857,2 Z" id="Shape" fill="#FFFFFF" fill-rule="nonzero"></path>
            <rect id="Rectangle" x="0" y="0" width="24" height="24"></rect>
        </g>
    </g>
</svg>