<?xml version="1.0" encoding="utf-8"?>
<!-- Generator: Adobe Illustrator 23.1.0, SVG Export Plug-In . SVG Version: 6.00 Build 0)  -->
<svg version="1.1" id="Layer_1" xmlns="http://www.w3.org/2000/svg" xmlns:xlink="http://www.w3.org/1999/xlink" x="0px" y="0px"
	 viewBox="0 0 47.56 46" style="enable-background:new 0 0 47.56 46;" xml:space="preserve">
<style type="text/css">
	.st0{fill-rule:evenodd;clip-rule:evenodd;fill:#FFFFFF;}
</style>
<path class="st0" d="M45.74,32.98c-2.26-1.77-4.19-1.77-6.45,0c-3.44,2.69-6.24,2.69-9.67,0c-2.29-1.79-3.83-1.79-6.12,0l-0.94-1.31
	c2.78-2.18,5.12-2.26,8.01,0c2.72,2.13,4.74,2.39,7.78,0c2.89-2.26,5.58-2.16,8.34,0c0.3,0.23,0.59,0.43,0.87,0.62l-1.15,1.17
	C46.19,33.29,45.97,33.16,45.74,32.98z M45.74,23.98c-2.26-1.77-4.19-1.77-6.45,0c-3.44,2.69-6.24,2.69-9.67,0
	c-2.29-1.79-3.83-1.79-6.12,0l-0.94-1.31c2.78-2.18,5.12-2.26,8.01,0c2.72,2.13,4.74,2.39,7.78,0c2.89-2.26,5.58-2.16,8.34,0
	c0.3,0.23,0.59,0.43,0.87,0.62l-1.15,1.17C46.19,24.29,45.97,24.16,45.74,23.98z M45.74,14.98c-2.26-1.77-4.19-1.77-6.45,0
	c-3.44,2.69-6.24,2.69-9.67,0c-2.29-1.79-3.83-1.79-6.12,0l-0.94-1.31c2.78-2.18,5.12-2.26,8.01,0c2.72,2.13,4.74,2.39,7.78,0
	c2.89-2.26,5.58-2.16,8.34,0c0.3,0.23,0.59,0.43,0.87,0.62l-1.15,1.17C46.19,15.29,45.97,15.16,45.74,14.98z M45.74,5.98
	c-2.26-1.77-4.19-1.77-6.45,0c-3.44,2.69-6.24,2.69-9.67,0c-2.29-1.79-3.83-1.79-6.12,0l-0.94-1.31c2.78-2.18,5.12-2.26,8.01,0
	c2.72,2.13,4.74,2.39,7.78,0c2.89-2.26,5.58-2.16,8.34,0c0.3,0.23,0.59,0.43,0.87,0.62l-1.15,1.17C46.19,6.29,45.97,6.16,45.74,5.98
	z M17.56,46h-15h-1c0,0-0.34,0-0.85,0c-1.09,0-0.59-1.5-0.59-1.5L6.56,24V1c0-0.55,0.45-1,1-1h10c0.55,0,1,0.45,1,1v44
	C18.56,45.55,18.11,46,17.56,46z M8.34,24.6L2.3,44h14.26V2h-8v21.31C8.56,23.54,8.34,24.6,8.34,24.6z M30.56,40.67
	c2.72,2.13,4.74,2.39,7.78,0c2.89-2.26,5.58-2.16,8.34,0c0.3,0.23,0.59,0.43,0.87,0.62l-1.15,1.17c-0.22-0.15-0.44-0.29-0.67-0.47
	c-2.26-1.77-4.19-1.77-6.45,0c-3.44,2.69-6.24,2.69-9.67,0c-2.29-1.79-3.83-1.79-6.12,0l-0.94-1.31
	C25.34,38.49,27.67,38.4,30.56,40.67z"/>
</svg>
