<svg xmlns="http://www.w3.org/2000/svg" width="24" height="24" viewBox="0 0 24 24">
    <path fill-opacity=".87" fill-rule="evenodd" d="M19 3c1.054 0 1.918.816 1.995 1.85L21 5v14c0 1.054-.816 1.918-1.85 1.995L19 21H5c-1.054 0-1.918-.816-1.995-1.85L3 19V5c0-1.054.816-1.918 1.85-1.995L5 3h14zm0 3.272L6.272 19H19V6.272zM17.726 5H5v12.726L17.726 5zm-3.806 8.8c1.15 0 1.851.647 1.915 1.751l.002.088.003.001.003.11c.02.41.176.53.637.53s.616-.12.637-.53l.003-.11h1.28l-.005.169c-.064 1.104-.766 1.751-1.915 1.751-1.15 0-1.851-.647-1.915-1.751l-.004-.089h-.001c0-.5-.14-.64-.64-.64-.461 0-.616.12-.637.53l-.003.11H12c0-1.207.713-1.92 1.92-1.92zM11 9v1.28H9V9h2zM8 9v1.28H6V9h2zm3-2v1.28H6V7h5z"/>
</svg>
