<?xml version="1.0" encoding="UTF-8"?>
<svg width="20px" height="16px" viewBox="0 0 20 16" version="1.1" xmlns="http://www.w3.org/2000/svg" xmlns:xlink="http://www.w3.org/1999/xlink">
    <title>Shape</title>
    <g id="Page-1" stroke="none" stroke-width="1" fill="none" fill-rule="evenodd" fill-opacity="0.87">
        <path d="M6.6,0 L6.6,1.6 L12.936,1.6 L13.001,1.602 L13.064,1.6 L13.4,1.6 L13.4,0 L17.6,0 L17.6,1.6 L18.936,1.6 C19.481,1.6 19.936,2.018 19.994,2.549 L20,2.664 L20,14.936 C20,15.481 19.582,15.936 19.045,15.994 L18.928,16 L13.064,16 C13.041,16 13.019,16 12.996,15.998 L12.928,16 L7.064,16 C7.041,16 7.019,16 6.996,15.998 L6.928,16 L1.064,16 C0.519,16 0.064,15.582 0.006,15.045 L0,14.928 L0,2.664 C0,2.119 0.418,1.664 0.949,1.606 L1.064,1.6 L2.4,1.6 L2.4,0 L6.6,0 Z M18,4 L2,4 L2,14 L18,14 L18,4 Z M14.4,6.4 L14.4,8 L16,8 L16,9.8 L14.399,9.8 L14.4,11.4 L12.6,11.4 L12.599,9.8 L11,9.8 L11,8 L12.6,8 L12.6,6.4 L14.4,6.4 Z M9,8 L9,9.8 L4,9.8 L4,8 L9,8 Z" id="Shape" fill="#FFFFFF" fill-rule="nonzero"></path>
    </g>
</svg>