<svg xmlns="http://www.w3.org/2000/svg" width="24" height="24" viewBox="0 0 24 24">
    <path fill-opacity=".87" d="M4 21c-1.054 0-1.918-.816-1.995-1.85L2 19V5c0-1.054.816-1.918 1.85-1.995L4 3h16c1.054 0 1.918.816 1.995 1.85L22 5v14c0 1.054-.816 1.918-1.85 1.995L20 21H4zM8 5H4v14h4V5zm6 0h-4v14h4V5zm6 0h-4v14h4V5zM6 14c.513 0 .936.386.993.883L7 15v2c0 .552-.448 1-1 1-.513 0-.936-.386-.993-.883L5 17v-2l.007-.117c.057-.497.48-.883.993-.883zm6 0c.513 0 .936.386.993.883L13 15v2c0 .513-.386.936-.883.993L12 18c-.513 0-.936-.386-.993-.883L11 17v-2l.007-.117c.057-.497.48-.883.993-.883zm6 0c.513 0 .936.386.993.883L19 15v2c0 .552-.448 1-1 1-.513 0-.936-.386-.993-.883L17 17v-2l.007-.117c.057-.497.48-.883.993-.883zM7 10v2H5v-2h2zm6 0v2h-2v-2h2zm6 0v2h-2v-2h2zM7 7v2H5V7h2zm6 0v2h-2V7h2zm6 0v2h-2V7h2z"/>
</svg>
