<svg xmlns="http://www.w3.org/2000/svg" width="24" height="24" viewBox="0 0 24 24">
    <g fill="none" fill-rule="evenodd">
        <path d="M0 0L24 0 24 24 0 24z"/>
        <path fill="#000" fill-opacity=".87" fill-rule="nonzero" d="M19.364 3C20.267 3 21 3.806 21 4.8v14.4c0 .994-.733 1.8-1.636 1.8H4.636C3.733 21 3 20.194 3 19.2V4.8C3 3.806 3.733 3 4.636 3zM19.2 4.8H4.8v14.4h14.4V4.8zM17.143 13c.473 0 .857.448.857 1v2c0 .552-.384 1-.857 1H6.857C6.384 17 6 16.552 6 16v-2c0-.552.384-1 .857-1zM16 14h-4v2h4v-2zm-6 0H8v2h2v-2zm7.143-7c.473 0 .857.448.857 1v2c0 .552-.384 1-.857 1H6.857C6.384 11 6 10.552 6 10V8c0-.552.384-1 .857-1zM10 8H8v2h2V8zm6 0h-4v2h4V8z"/>
    </g>
</svg>
