<svg xmlns="http://www.w3.org/2000/svg" width="24" height="24" viewBox="0 0 24 24">
    <g fill="none" fill-rule="evenodd">
        <path d="M0 0L24 0 24 24 0 24z"/>
        <path fill="#000" fill-opacity=".87" fill-rule="nonzero" d="M8.6 4v1.6h6.336l.065.002.063-.002h.336V4h4.2v1.6h1.336c.545 0 1 .418 1.058.949l.006.115v12.272c0 .545-.418 1-.955 1.058l-.117.006h-5.864c-.023 0-.045 0-.068-.002l-.068.002H9.064c-.023 0-.045 0-.068-.002L8.928 20H3.064c-.545 0-1-.418-1.058-.955L2 18.928V6.664c0-.545.418-1 .949-1.058l.115-.006H4.4V4h4.2zM20 8H4v10h16V8zm-3.6 2.4V12H18v1.8h-1.601l.001 1.6h-1.8l-.001-1.6H13V12h1.6v-1.6h1.8zM11 12v1.8H6V12h5z"/>
    </g>
</svg>
